<?xml version="1.0" encoding="UTF-8"?>
<svg width="35px" height="31px" viewBox="0 0 35 31" version="1.1" xmlns="http://www.w3.org/2000/svg" xmlns:xlink="http://www.w3.org/1999/xlink">
    <!-- Generator: Sketch 46.2 (44496) - http://www.bohemiancoding.com/sketch -->
    <title>Bagels Icon</title>
    <desc>Created with Sketch.</desc>
    <defs>
        <linearGradient x1="0%" y1="49.9993497%" x2="99.999359%" y2="49.9993497%" id="linearGradient-1">
            <stop stop-color="#FF9715" offset="25%"></stop>
            <stop stop-color="#FFE855" offset="78%"></stop>
        </linearGradient>
        <linearGradient x1="371%" y1="4474%" x2="17281%" y2="4474%" id="linearGradient-2">
            <stop stop-color="#FF9715" offset="25%"></stop>
            <stop stop-color="#FFE855" offset="78%"></stop>
        </linearGradient>
        <linearGradient x1="641%" y1="8470%" x2="7920%" y2="8470%" id="linearGradient-3">
            <stop stop-color="#FF9715" offset="25%"></stop>
            <stop stop-color="#FFE855" offset="78%"></stop>
        </linearGradient>
        <linearGradient x1="11525%" y1="18952%" x2="14410%" y2="18952%" id="linearGradient-4">
            <stop stop-color="#FF9715" offset="25%"></stop>
            <stop stop-color="#FFE855" offset="78%"></stop>
        </linearGradient>
        <linearGradient x1="14585%" y1="19292%" x2="15520%" y2="19292%" id="linearGradient-5">
            <stop stop-color="#FF9715" offset="25%"></stop>
            <stop stop-color="#FFE855" offset="78%"></stop>
        </linearGradient>
        <linearGradient x1="15636%" y1="19338%" x2="16570%" y2="19338%" id="linearGradient-6">
            <stop stop-color="#FF9715" offset="25%"></stop>
            <stop stop-color="#FFE855" offset="78%"></stop>
        </linearGradient>
        <linearGradient x1="17819%" y1="18940%" x2="18679%" y2="18940%" id="linearGradient-7">
            <stop stop-color="#FF9715" offset="25%"></stop>
            <stop stop-color="#FFE855" offset="78%"></stop>
        </linearGradient>
        <linearGradient x1="17197%" y1="19179%" x2="17722%" y2="19179%" id="linearGradient-8">
            <stop stop-color="#FF9715" offset="25%"></stop>
            <stop stop-color="#FFE855" offset="78%"></stop>
        </linearGradient>
        <linearGradient x1="16674%" y1="19262%" x2="17078%" y2="19262%" id="linearGradient-9">
            <stop stop-color="#FF9715" offset="25%"></stop>
            <stop stop-color="#FFE855" offset="78%"></stop>
        </linearGradient>
        <linearGradient x1="19353%" y1="18215%" x2="19965%" y2="18215%" id="linearGradient-10">
            <stop stop-color="#FF9715" offset="25%"></stop>
            <stop stop-color="#FFE855" offset="78%"></stop>
        </linearGradient>
        <linearGradient x1="18897%" y1="18578%" x2="19232%" y2="18578%" id="linearGradient-11">
            <stop stop-color="#FF9715" offset="25%"></stop>
            <stop stop-color="#FFE855" offset="78%"></stop>
        </linearGradient>
    </defs>
    <g id="Page-1" stroke="none" stroke-width="1" fill="none" fill-rule="evenodd">
        <g id="Search" transform="translate(-19.000000, -358.000000)">
            <g id="Bagels-Group" transform="translate(0.000000, 339.000000)">
                <g id="Bagels-Icon" transform="translate(19.000000, 17.000000)">
                    <path d="M0,9.88145402 C0,9.1614993 1.95078662,3.08501873 14.9387949,2.41368841 C21.7250253,2.06233796 25.8334289,5.03783709 27.3172802,8.21724497 C27.8202541,9.29482425 26.3771421,10.0853628 26.8472112,11.1974497 C27.2107313,12.0460238 28.9108144,12.4836433 30.451074,13.5502429 C31.1718466,14.049035 31.7186936,14.8176142 32.3313503,15.5893303 C34.2539327,18.0095703 35.0718529,22.1269584 34.995075,23.902533 C34.7271356,30.0464603 26.2204524,33 25.3680605,33 C25.4395833,32.9768111 25.5122851,32.9574387 25.5858592,32.9419644 C26.5589022,32.7647207 27.5538817,32.6643348 28.4971536,32.3914108 C29.1740531,32.1953447 29.8008118,31.7969384 30.4150354,31.4314712 C30.8761012,31.1297796 31.3206923,30.8035811 31.7468977,30.4542778 C31.8017391,30.413496 31.8393447,30.3476178 31.8957529,30.3162472 C32.4286035,30.0374743 32.8568648,29.5933578 33.1163656,29.0504445 C33.2819951,28.7204263 33.4650588,28.3994694 33.6647795,28.0889363 C34.0993645,27.3854283 34.419356,26.6171784 34.6127521,25.813001 C34.7083328,25.4224374 34.8665894,25.0412849 34.9261315,24.6460156 C34.9797176,24.1622515 35.001179,23.6754612 34.9903743,23.1888524 C34.988263,22.8780147 34.9641771,22.5677164 34.918297,22.2602833 C34.8164487,21.5105265 34.7036322,20.7639068 34.584548,20.0157186 C34.5541583,19.9062255 34.5104821,19.8008721 34.4544955,19.7020128 L34.3463797,19.7239722 C34.314217,19.8548636 34.2979084,19.9891542 34.2978059,20.1239471 C34.355781,20.6352875 34.4372597,21.1450593 34.5046362,21.6548312 C34.6617405,22.6851813 34.6891138,23.7311899 34.5861149,24.7683609 C34.5832192,24.9525825 34.5493169,25.134997 34.4858335,25.3079348 C34.1270141,26.0012245 33.8590747,26.7447071 33.3639353,27.3674131 C32.7450111,28.1516775 32.2091323,28.9829977 31.3583073,29.5853128 C30.3617609,30.2927193 29.3213414,30.876212 28.1587039,31.2056031 C27.0305381,31.5193088 25.9039393,31.8596796 24.7021294,31.6761617 C24.2555637,31.608715 23.7839278,31.5193088 23.3514642,31.5930297 C22.9190007,31.6667505 22.519442,31.4926438 22.0979467,31.4722529 C22.0775771,31.4722529 22.0587743,31.4722529 22.0399715,31.4722529 L19.5235352,31.0628669 C19.4855834,31.0548215 19.4487515,31.0421803 19.4138524,31.0252222 C19.039364,30.8589582 18.660175,30.7021053 18.2919542,30.523293 C17.478452,30.1490912 16.7508585,29.6108375 16.1547069,28.942216 C15.8773661,28.6190991 15.6282295,28.2850024 15.2600087,28.0481546 C15.0174926,27.8815077 14.7964554,27.685528 14.601912,27.4646619 C14.1506457,26.9799865 13.736985,26.4717831 13.5332884,25.8192752 C13.4580773,25.5745847 13.2794511,25.3628333 13.1666345,25.1259854 C12.9754731,24.7260106 12.7890124,24.3213302 12.6197875,23.9103756 C12.5656722,23.7454401 12.5242889,23.5765883 12.4960026,23.4053093 C12.4113902,23.0382736 12.2515667,22.6712379 12.2531336,22.3073392 C12.2531336,21.1419223 12.2860385,19.9733683 12.3831861,18.812657 C12.4200659,18.2105809 12.5671872,17.6204194 12.8172165,17.07159 C13.219909,16.252818 13.766756,15.5030612 14.2540609,14.7187968 C14.2787846,14.6773803 14.3118729,14.6415863 14.3512085,14.6137054 C14.9090238,14.2670605 15.2365053,13.6537658 15.8538627,13.3588824 C16.2941607,13.1486995 16.6576808,12.7816638 17.0932781,12.5573642 C17.7357058,12.2264046 18.4110384,11.9581862 19.0754026,11.6680083 C19.2211107,11.5976245 19.3747161,11.5449651 19.5329365,11.5111554 C20.2391835,11.3546625 20.9644128,11.3018252 21.6858529,11.3543026 C21.9581517,11.3584868 22.2302863,11.338541 22.4990723,11.2946985 C22.5656359,11.2934064 22.6321928,11.2976034 22.6980682,11.3072467 C23.1853732,11.3637137 23.674245,11.4139067 24.1615499,11.4797849 C24.4507984,11.5045629 24.7365609,11.5603026 25.0139418,11.6460489 C25.5028137,11.8264297 25.9666151,12.0742573 26.5165959,11.9597547 C26.6048929,11.9554802 26.6910468,11.9878215 26.7547643,12.0491608 C27.0994816,12.3628666 27.549181,12.3534554 27.959708,12.438156 C28.4141081,12.5338362 28.8732089,12.5557956 29.2712007,12.8585217 C29.5976886,13.0749342 29.9379021,13.2698438 30.2896836,13.4420144 C30.3379074,13.4736944 30.382563,13.5105079 30.4228699,13.5518114 C30.7456506,13.8482634 31.0699983,14.1400097 31.3865115,14.4411672 C31.5523276,14.6018744 31.7092511,14.7715282 31.8565805,14.9493706 C32.1166854,15.2630763 32.3454523,15.6050156 32.6259269,15.8904879 C32.9884331,16.2582988 33.2571538,16.7080677 33.4093753,17.2017779 C33.6506774,17.9860423 33.9092154,18.7514844 34.1630527,19.5373173 L34.4090555,19.3945812 C34.341679,19.1420481 34.2899714,18.8942205 34.2100596,18.6558041 C33.9201837,17.7742909 33.7102195,16.8645442 33.2119463,16.0567519 C32.8076869,15.4011069 32.2718082,14.8693756 31.7547322,14.3125479 C31.6402584,14.1930349 31.5183173,14.0809208 31.3896452,13.9768827 C30.9571817,13.612984 30.6453692,13.0796842 30.0217443,12.9745928 C29.3949855,12.3738463 28.6115371,12.1479781 27.7889162,12.002105 C27.6509946,11.9741606 27.5346163,11.8821259 27.4755368,11.7542774 C27.351752,11.1378456 27.2655727,10.5120026 27.1621575,9.88929667 C27.1578743,9.86010534 27.163385,9.83031632 27.1778264,9.80459611 C27.4253961,9.42344361 27.3486182,8.99523525 27.3219809,8.58584923 C27.3162811,8.24600933 27.2433191,7.91067413 27.1073161,7.59924462 C26.7720001,6.94516811 26.3693076,6.32403071 25.9822841,5.69505066 C25.7597847,5.33585756 25.5028137,5.02058327 25.042146,4.92490302 C24.8311945,4.88116077 24.6352046,4.78333399 24.4733624,4.6409993 C23.9468851,4.15161832 23.2934891,3.91320194 22.6447937,3.66223733 C22.5622824,3.63348468 22.4825627,3.59725847 22.4066254,3.55400885 C21.7453949,3.13521166 21.0105203,2.88738411 20.2819132,2.62387127 C20.0155465,2.53504072 19.7439571,2.46275098 19.4686938,2.40741429 C17.7607762,2.02469327 16.0168199,2.10625676 14.2885327,2.00116533 C14.2593045,1.99961156 14.2300146,1.99961156 14.2007864,2.00116533 C12.870491,2.02939885 11.5464631,2.10311971 10.2428049,2.40898282 C9.39354681,2.60661745 8.51921835,2.72268858 7.6918968,2.98620142 C6.57313242,3.35323716 5.41989632,3.64812057 4.40141334,4.26925798 C4.37584416,4.28225923 4.34908332,4.29276461 4.3215016,4.30062855 C3.52238419,4.57355257 2.87368888,5.08489295 2.25789841,5.63701509 C2.01502939,5.85347207 1.72358657,6.03855846 1.56689688,6.30050277 C1.17360576,6.92791429 0.842990523,7.59610756 0.48730493,8.24704701 C0.48730493,8.24704701 0.48730493,8.26586936 0.48730493,8.27528053 C0.321213861,8.81171738 0.158778884,9.34710855 0,9.88145402 Z M23.8591388,24.365249 C24.7303335,24.2178073 25.4871447,24.3464266 26.0856993,23.7284263 C26.4805573,23.3206088 26.7124581,22.4736032 26.3599063,22.0030446 C25.9728827,21.4760189 25.5936937,20.9270338 24.9230618,20.6964601 C24.8149459,20.6588154 24.7334673,20.5113737 24.6645238,20.4000082 C24.5532741,20.2196273 24.4811969,20.0141501 24.3605458,19.8384748 C24.0612685,19.3992868 23.7604243,18.9585302 23.4204077,18.5460071 C23.2642093,18.3280904 23.0527014,18.155892 22.807751,18.047215 C22.1731578,17.8354636 21.5291632,17.8386006 20.9274748,18.2040678 C20.7157973,18.3582944 20.4920519,18.4951992 20.2584098,18.6134539 C19.7617035,18.8142255 19.5642745,19.2408654 19.3182717,19.6675052 C18.8215654,20.4988255 19.3574441,22.2336183 20.3054167,22.5943799 C20.530486,22.6831141 20.7317062,22.8233092 20.893003,23.003766 C21.0446278,23.1928042 21.2564677,23.324027 21.4931245,23.3755073 C21.7962753,23.4116717 22.0686135,23.5783376 22.2389675,23.8319492 C22.3017006,23.9305288 22.3971207,24.0038344 22.5084737,24.038995 C23.0067469,24.1723199 23.5034532,24.2742743 23.8591388,24.365249 Z M23.157169,28.2552004 C23.2715525,28.1626572 23.3828022,28.1171698 23.3890698,28.0591343 C23.4188408,27.7815047 23.5191222,27.4536822 23.4110063,27.2325196 C23.2292463,26.8623468 22.9550393,26.4953111 22.4301289,26.5564837 C22.2342668,26.5800116 22.2013619,26.6913772 22.2138971,26.8545042 C22.9566062,26.845093 23.2825208,27.3391796 23.157169,28.2552004 L23.157169,28.2552004 Z M20.9274748,27.0976261 L21.8315743,26.8905803 C21.7704653,26.5768746 21.5949728,26.6505954 21.4586528,26.6866716 C21.3361779,26.7417695 21.1987238,26.7539267 21.0684955,26.7211792 C20.9111748,26.6859877 20.7464313,26.7253359 20.6219299,26.8278392 C20.559254,26.8905803 20.6219299,27.118017 20.6846057,27.2529105 C20.7648193,27.4982926 21.0006922,27.6582855 21.25809,27.6419056 C21.455519,27.2748699 20.7911547,27.4113319 20.9274748,27.0976261 Z M17.4803016,26.5157019 C17.3768864,26.5925599 17.2264643,26.6474584 17.1794574,26.7509813 C17.0682077,26.9988088 16.9177856,27.0850779 16.6592477,26.9941032 C16.5984074,26.9859896 16.5367609,26.9859896 16.4759207,26.9941032 L16.5244945,27.2764384 C17.2139292,27.3015349 17.4975375,27.0976261 17.4803016,26.5109964 L17.4803016,26.5157019 Z M15.9463096,26.4341384 L15.9463096,25.2436251 C15.4919095,25.726732 15.499744,26.1721941 15.9463096,26.4294329 L15.9463096,26.4341384 Z M29.6143511,23.3833499 L29.7020973,23.3049235 C29.6441221,22.980238 29.58458,22.6555526 29.5156366,22.268126 C29.2897304,22.4876411 29.2224305,22.8238675 29.3464117,23.113563 C29.3934186,23.2217915 29.5281718,23.2955123 29.6143511,23.3833499 Z M21.2847273,28.7900687 C21.3474031,28.9469216 21.3740404,29.1178912 21.4414169,29.132008 C21.6549551,29.1694996 21.8720487,29.1826546 22.0885454,29.1712212 C22.0994695,29.1142734 22.106277,29.0566111 22.108915,28.998683 L21.2847273,28.7900687 Z M30.1141912,22.7355475 C30.1439008,22.9084485 30.1847249,23.0792502 30.2364091,23.2468879 C30.2567788,23.3002179 30.3930988,23.3645276 30.4322713,23.3425682 C30.5091444,23.2995448 30.5613656,23.2228738 30.573292,23.1355224 C30.573292,22.9033801 30.435405,22.7700552 30.1204588,22.7355475 L30.1141912,22.7355475 Z M26.8237077,30.0668511 L26.925556,30.1044958 C27.0039009,29.9350947 27.3642872,30.0746938 27.274974,29.7547139 C27.2640058,29.7123636 27.0101685,29.6888357 26.9083202,29.7390286 C26.8534788,29.7719677 26.8613133,29.9523485 26.834676,30.0668511 L26.8237077,30.0668511 Z M24.6660907,30.3350696 L25.1549626,30.1782167 C25.103255,30.113907 25.0593818,30.0056785 24.9982729,29.9931303 C24.8384494,29.9648968 24.6754921,29.9931303 24.677059,30.3350696 L24.6660907,30.3350696 Z M19.2837999,29.1571044 L19.2038882,29.298272 L19.4091517,29.5351199 L19.6833586,29.2637644 L19.2837999,29.1571044 Z M30.1941029,16.252818 C30.071885,16.3924171 29.7804421,16.3657521 29.8713222,16.6512243 C29.93146,16.7036002 30.0130031,16.7240072 30.0906877,16.7061228 C30.2066381,16.5884832 30.3507926,16.4661379 30.1941029,16.252818 Z M29.083173,15.4387516 L29.023631,15.3493454 L28.6648116,15.3038581 L28.597435,15.3916957 L28.8810433,15.6724624 L29.083173,15.4387516 Z M28.2417494,16.2841886 L28.1602708,16.1602748 C28.0459165,16.1972847 27.9372767,16.2500774 27.83749,16.3171277 C27.7951838,16.3563409 27.821821,16.4739806 27.8171204,16.5586811 L27.8923314,16.5931888 L28.2417494,16.2841886 Z M32.1213861,17.0496306 L32.0289392,17.1202144 C32.0900482,17.2143262 32.1323544,17.3429455 32.2201006,17.3900014 C32.2639737,17.4135293 32.3877586,17.2943211 32.4755048,17.2331485 L32.4410331,17.1500165 L32.1213861,17.0496306 Z M33.2558194,21.2689731 L33.0991297,21.1921152 L32.9048345,21.4917042 L33.1085311,21.5952271 L33.2558194,21.2689731 Z M31.6685529,15.9610717 C31.757866,15.6473659 31.7343626,15.6285435 31.3849446,15.6254065 C31.3081666,15.8873508 31.4805253,15.923427 31.6685529,15.9610717 Z M28.4188088,29.4206173 L28.7478571,29.2637644 L28.4830515,29.0018201 L28.4188088,29.052013 L28.4188088,29.4206173 Z M18.5802632,28.6661549 C18.6680095,28.4434238 18.6037667,28.3257842 18.3797004,28.3006877 C18.2543487,28.6143935 18.2715845,28.6473326 18.5802632,28.6661549 Z M27.6682652,15.1422996 C27.5006072,15.0795585 27.4206954,15.0230914 27.3454844,15.0293655 C27.2702733,15.0356397 27.2373685,15.1219087 27.1887947,15.1721017 C27.2561713,15.2238631 27.320414,15.3101322 27.3909244,15.3164063 C27.4614348,15.3226804 27.5162762,15.244254 27.6635645,15.1485737 L27.6682652,15.1422996 Z M14.0832692,24.751107 L14.2289906,24.8514929 L14.4671589,24.5613151 C14.3966486,24.5299445 14.283832,24.4562236 14.2634623,24.4766145 C14.1906677,24.5623383 14.1285789,24.656622 14.0785685,24.7573812 L14.0832692,24.751107 Z M33.5488292,19.8510231 C33.4736181,19.7616169 33.4234774,19.6533884 33.3670691,19.6502514 C33.3106608,19.6471143 33.2432843,19.7443631 33.1806084,19.7961246 C33.238577,19.8697618 33.3025142,19.9384872 33.3717698,20.0016018 C33.435521,19.9572664 33.4948192,19.9068367 33.5488292,19.8510231 L33.5488292,19.8510231 Z M32.7841835,18.2385755 C32.7732152,18.5679665 32.9314718,18.5522812 33.0756263,18.5240477 C33.1226332,18.5146365 33.155538,18.4393472 33.1947105,18.3938598 L32.7841835,18.2385755 Z M26.4523532,15.7603 L26.3755752,15.6332491 C26.3270014,15.6050156 26.2564911,15.5407059 26.2314207,15.5548227 C26.1617166,15.6059563 26.0985658,15.6654852 26.0433931,15.7320664 C26.0935338,15.7822594 26.1483752,15.8748026 26.2000828,15.870097 C26.2894079,15.8469777 26.3745403,15.8099251 26.4523532,15.7603 L26.4523532,15.7603 Z M20.3696595,29.0818151 L20.5263492,29.1602415 L20.6830388,28.8779063 L20.5012788,28.7963428 L20.3696595,29.0818151 Z M14.8855204,22.8186796 L14.800908,22.9567101 C14.87725,23.0181844 14.9603027,23.0708041 15.0484777,23.113563 C15.0657135,23.113563 15.1268225,23.0163142 15.1659949,22.9567101 L14.8855204,22.8186796 Z M21.6435466,27.4113319 L21.5401314,27.527403 C21.6059411,27.5901442 21.6623494,27.6764133 21.7406942,27.7077838 C21.775166,27.7219006 21.8535108,27.6215147 21.911486,27.5728904 L21.6435466,27.4113319 Z" id="Shape" fill="url(#linearGradient-1)" fill-rule="nonzero"></path>
                    <path d="M24.4422994,33 C24.0786587,32.9686294 23.7134505,32.94667 23.3451075,32.9058883 C23.1397759,32.8823603 22.9360117,32.8305989 22.7322475,32.7866801 C22.685225,32.7772689 22.6444722,32.7411927 22.5990171,32.7317816 C22.185219,32.6533551 21.7682861,32.593751 21.3607577,32.4965023 C21.1491564,32.4463093 20.959499,32.3020047 20.7494651,32.2471062 C19.8293914,32.0024157 18.884239,31.831446 18.0299968,31.392258 C17.4547548,31.0973746 16.8544341,30.8448414 16.3763719,30.3727143 C15.9296581,29.9335262 15.4359218,29.5492366 14.9531574,29.1398506 C14.9236304,29.1153051 14.898229,29.0861787 14.8779214,29.0535815 C14.384185,28.2175557 13.8873139,27.3830984 13.402982,26.5439355 C12.9186502,25.7047726 12.6600264,24.7699294 12.319897,23.8695939 C11.9584369,22.9751174 11.8170579,22.0068176 11.9076663,21.046242 C11.9718323,20.5945005 11.7774673,20.1449018 11.4045255,19.8823936 C11.1490365,19.6737793 10.9343004,19.4243832 10.6819463,19.2047892 C10.5981955,19.129785 10.4976774,19.0759939 10.3888393,19.0479363 C9.95309741,18.9475505 9.50638359,18.8910834 9.08004619,18.7671697 C8.48286035,18.593063 7.87313517,18.4628751 7.30102799,18.2056364 C7.10830892,18.1384544 6.91076856,18.0860192 6.71011181,18.0487835 C6.47213773,18.0046754 6.23941943,17.9358092 6.01574612,17.8433062 C5.54552105,17.6001842 5.07529597,17.3272602 4.62701473,17.0496306 C4.48863031,16.9455569 4.36103041,16.8278505 4.24613242,16.6982802 C4.16149191,16.6198537 4.08939073,16.5414273 3.99691313,16.4598638 C3.67089042,16.172823 3.30254744,15.9202899 3.02354723,15.5924674 C2.53608057,15.0199544 2.11131058,14.3925429 1.64265293,13.8012075 C1.0633338,13.083991 0.640946994,12.2530461 0.402826147,11.3621452 C0.291615265,11.034479 0.156992406,10.7152437 0,10.4069112 L0,9.88145402 C0.158831581,9.34710855 0.315573272,8.81171738 0.470225075,8.27528053 C0.470225075,8.26586936 0.470225075,8.25488966 0.470225075,8.24704701 C0.826028714,7.59610756 1.15675368,6.92948282 1.55017533,6.30050277 C1.71475411,6.03855846 2.00629365,5.85347207 2.24454102,5.63858362 C2.86053587,5.08332442 3.50944647,4.57512109 4.3088291,4.30219708 C4.33641997,4.29433314 4.36318969,4.28382776 4.38876736,4.27082651 C5.41229061,3.64341499 6.56590946,3.35480569 7.68034288,2.98776995 C8.51891093,2.717983 9.40450149,2.60818598 10.2462044,2.41055135 C11.5502952,2.10468823 12.8747625,2.03096738 14.2054995,2.00116533 C14.2347374,1.99961156 14.264037,1.99961156 14.2932749,2.00116533 C16.0174335,2.10625676 17.7666707,2.02469327 19.4735878,2.40741429 C19.749045,2.46429349 20.0207261,2.53815514 20.2870771,2.62857685 C21.015926,2.89208969 21.7510445,3.13991724 22.4124945,3.55871443 C22.4959185,3.60828552 22.5841438,3.64927632 22.6758205,3.68105968 C23.3247311,3.93202429 23.978344,4.17044066 24.5049961,4.65982165 C24.6687334,4.80118387 24.8664537,4.89741112 25.0786706,4.93901978 C25.534789,5.03470003 25.7918453,5.34997432 26.0191208,5.70916742 C26.4062728,6.33657894 26.8028293,6.96399046 27.1445261,7.61336138 C27.2805743,7.92479089 27.3535606,8.26012609 27.3592623,8.59996599 C27.3859083,9.00935201 27.4627118,9.43756037 27.2150599,9.81871287 C27.2006137,9.84443308 27.1951011,9.8742221 27.1993857,9.90341343 C27.2965656,10.5308249 27.3827735,11.1582365 27.5128691,11.7683942 C27.5719682,11.8962427 27.6883851,11.9882773 27.8263525,12.0162217 C28.6523812,12.1620949 29.4360897,12.387963 30.0599216,12.9887096 C30.6868884,13.093801 31.0003717,13.6271008 31.4282766,13.9909995 C31.5569913,14.0950376 31.6789729,14.2071517 31.7934847,14.3266646 C32.3091649,14.8834924 32.8467889,15.4152236 33.2511824,16.0708687 C33.749621,16.878661 33.9596549,17.7962503 34.249627,18.6699209 C34.3295653,18.9083373 34.38129,19.1561648 34.448689,19.408698 L34.2026045,19.5514341 C33.948683,18.7671697 33.6900592,17.993885 33.448677,17.2158947 C33.2964049,16.7221844 33.0275951,16.2724155 32.6649685,15.9046046 C32.3844009,15.6144268 32.155558,15.2771931 31.8953668,14.9634873 C31.7479885,14.785645 31.5910129,14.6159912 31.4251417,14.455284 C31.1116584,14.1541265 30.7840682,13.8623801 30.4611803,13.5659282 C30.4208601,13.5246247 30.3761897,13.4878112 30.3279499,13.4561312 C29.9760516,13.2839605 29.6357252,13.089051 29.3091289,12.8726384 C28.911005,12.5699124 28.4517518,12.547953 27.9972009,12.4522727 C27.5865377,12.3675722 27.1366891,12.3769833 26.7918573,12.0632776 C26.7281188,12.0019383 26.6419363,11.9695969 26.55361,11.9738714 C26.0034466,12.0930796 25.5394912,11.8452521 25.0504571,11.6601657 C24.7729841,11.5744194 24.4871268,11.5186797 24.1977823,11.4939016 C23.7103157,11.4280234 23.2212816,11.3778305 22.7338149,11.3213635 C22.6679176,11.3117201 22.6013387,11.3075232 22.534753,11.3088152 C22.2658777,11.3526578 21.9936528,11.3726036 21.7212636,11.3684193 C20.9995841,11.315942 20.2741142,11.3687793 19.5676328,11.5252722 C19.4093598,11.5590819 19.2557034,11.6117412 19.109947,11.6821251 C18.4453623,11.9723029 17.7698056,12.2405213 17.1271646,12.5714809 C16.6914227,12.7957805 16.327782,13.1628163 15.8873379,13.3729991 C15.2697756,13.6694511 14.9468877,14.2827458 14.384185,14.6278222 C14.3448363,14.6557031 14.3117371,14.691497 14.2870052,14.7329136 C13.7995385,15.517178 13.25251,16.2590921 12.8496839,17.0857068 C12.5898707,17.6279687 12.4315592,18.213286 12.3825936,18.812657 C12.2854138,19.9733683 12.2587677,21.1419223 12.252498,22.3073392 C12.252498,22.6728064 12.4092397,23.0398421 12.4954476,23.4053093 C12.5237433,23.5765883 12.5651403,23.7454401 12.6192736,23.9103756 C12.7885546,24.3213302 12.9750772,24.7260106 13.1663021,25.1259854 C13.2791561,25.3628333 13.4578416,25.5745847 13.5330776,25.8192752 C13.7368418,26.4717831 14.1506399,26.9799865 14.602056,27.4646619 C14.7966639,27.685528 15.0177745,27.8815077 15.2603711,28.0481546 C15.6287141,28.2850024 15.8779334,28.6190991 16.1553661,28.942216 C16.7517156,29.6108375 17.4795506,30.1490912 18.2933228,30.523293 C18.6616658,30.7021053 19.0409807,30.8589582 19.4155933,31.0252222 C19.450504,31.0421803 19.4873482,31.0548215 19.5253125,31.0628669 L22.0425841,31.4722529 C22.0613931,31.4722529 22.0802021,31.4722529 22.1005785,31.4722529 C22.5143766,31.4926438 22.8968263,31.6714561 23.354512,31.5930297 C23.8121978,31.5146032 24.2589116,31.608715 24.7056254,31.6761617 C25.9078342,31.8565425 27.034807,31.5193088 28.1633471,31.2056031 C29.3326402,30.876212 30.3671353,30.2927193 31.3640125,29.5853128 C32.2151199,28.9829977 32.7511764,28.1485404 33.3703061,27.3674131 C33.8640425,26.7400016 34.1336382,26.0012245 34.4925766,25.3079348 C34.5560811,25.134997 34.5899946,24.9525825 34.5928913,24.7683609 C34.6959244,23.7311899 34.6685421,22.6851813 34.5113856,21.6548312 C34.4439867,21.1450593 34.362481,20.6352875 34.3044866,20.1239471 C34.3045892,19.9891542 34.3209031,19.8548636 34.3530765,19.7239722 L34.4612283,19.7020128 C34.5172335,19.8008721 34.5609242,19.9062255 34.5913239,20.0157186 C34.7104476,20.7639068 34.8233016,21.5105265 34.9251837,22.2602833 C34.971079,22.5677164 34.9951729,22.8780147 34.9972849,23.1888524 C35.0080931,23.6754612 34.9866246,24.1622515 34.9330208,24.6460156 C34.8797286,25.0412849 34.7214195,25.4224374 34.6195374,25.813001 C34.4260771,26.6171784 34.1059794,27.3854283 33.6712502,28.0889363 C33.4714631,28.3994694 33.2883387,28.7204263 33.1226543,29.0504445 C32.8630673,29.5933578 32.4346639,30.0374743 31.9016365,30.3162472 C31.8452095,30.3476178 31.8075915,30.413496 31.7527319,30.4542778 C31.3263849,30.8035811 30.8816463,31.1297796 30.4204275,31.4314712 C29.8060001,31.7969384 29.1790333,32.1953447 28.5019092,32.3914108 C27.561459,32.6643348 26.5630145,32.7647207 25.5896486,32.9419644 C25.51605,32.9574387 25.4433241,32.9768111 25.3717776,33 L24.4422994,33 Z M25.486199,11.376262 C25.5644505,11.2688425 25.6514799,11.1681106 25.7463902,11.0751044 C26.0332275,10.8429622 26.4094076,10.6782667 26.610037,10.3896574 C27.1259997,9.70225241 27.2286207,8.7888183 26.8780653,8.00392505 C26.5144245,7.19613272 26.0065815,6.45265007 25.5551654,5.68563948 C25.4438524,5.49026701 25.2491869,5.35673691 25.0269459,5.32330933 C24.8288097,5.27545684 24.6426151,5.18736546 24.4799174,5.06450208 C24.0588174,4.74257807 23.5937935,4.48269829 23.0990231,4.29278591 C22.2964845,3.99377852 21.5160579,3.63840635 20.7635719,3.22932338 C20.2432552,2.94579889 19.6702716,2.77228701 19.0801661,2.71955152 C18.609941,2.68818095 18.1616598,2.57367835 17.7008392,2.5219169 C16.6522373,2.40427724 15.5942309,2.53760218 14.5440616,2.39957165 C14.1026322,2.35173085 13.6571673,2.35488869 13.2164594,2.40898282 C12.2211497,2.50780014 11.2305422,2.65053626 10.2383673,2.76033327 C8.99697309,2.89522675 7.83708458,3.3391204 6.6442803,3.66851145 C6.26982157,3.7920494 5.90338643,3.93872743 5.54708846,4.10769951 C4.59488296,4.47541206 3.69152814,4.95901811 2.85740104,5.54760895 C1.37775947,6.64557911 0.518814999,8.06823473 0.586213926,9.96458605 C0.600320679,10.3692665 0.598753262,10.780221 1.01098391,11.0358912 C1.11329912,11.1277512 1.20243988,11.233318 1.27587737,11.349597 C1.74535792,11.9197114 2.29127472,12.4222056 2.89815388,12.8428364 C3.03109994,12.938625 3.15731291,13.0434404 3.27590135,13.1565422 C3.412271,13.2972262 3.56011987,13.4262922 3.71791292,13.5424002 C4.09722782,13.7745425 4.48594721,13.9957051 4.88407111,14.1917712 C5.22138254,14.3550776 5.5690532,14.496026 5.92483594,14.6137054 C6.14270689,14.6874263 6.38095426,14.6968374 6.6066623,14.7501674 C7.35118533,14.9258426 8.0894387,15.1281829 8.83866399,15.2834672 C9.97800554,15.5286069 11.1389353,15.659442 12.3042228,15.6740309 C12.575964,15.667749 12.8468473,15.6410085 13.1145773,15.5940359 C13.3496899,15.5579597 13.4813529,15.407381 13.6098811,15.1956296 C13.8285847,14.8694616 14.0700457,14.5591659 14.3324603,14.2670605 C14.3920221,14.1933397 14.489202,14.1447153 14.5409267,14.0694259 C14.8473237,13.6422428 15.2404464,13.2846535 15.6945456,13.0200802 C16.4860911,12.577755 17.2697996,12.1244502 18.0582103,11.678988 C18.187176,11.5939778 18.3248442,11.5229916 18.4688735,11.4672366 C18.921857,11.326069 19.3748405,11.18647 19.8356611,11.0782415 C20.154743,11.0023003 20.4799702,10.9550564 20.8074595,10.9370739 C21.1836396,10.916683 21.5613871,10.9370739 21.9375671,10.9527592 C22.4798934,10.9715815 23.0237871,10.9684445 23.5598437,11.0358912 C24.222861,11.1190232 24.8764739,11.266465 25.486199,11.376262 Z M2.69282226,14.4474414 C2.70692901,14.3564667 2.69282226,14.2780402 2.72730543,14.2498067 C2.78795214,14.2149183 2.85428,14.1910233 2.92323255,14.1792229 C2.93263705,14.2435326 2.97182247,14.3235276 2.9467438,14.3690149 C2.8764542,14.5289866 2.87339278,14.7105222 2.93824837,14.8727762 C3.00310396,15.0350302 3.13042907,15.1643742 3.29157552,15.2317058 L3.38405312,14.9697614 C3.57998023,15.0042691 3.76963768,15.0230914 3.67089042,15.2599393 L3.37935087,15.3446398 C3.41812131,15.432983 3.46760539,15.5162173 3.52668806,15.5924674 C3.69283425,15.7493203 3.86838495,15.9061731 4.04863789,16.063026 C4.3182336,16.2873256 4.59723381,16.5022141 4.87153177,16.7202396 L4.96087454,16.6229908 C4.82450927,16.4928029 4.68344174,16.3673206 4.55804839,16.2277215 C4.5125933,16.1790972 4.46400337,16.0520463 4.48437979,16.0347925 C4.5530674,15.9715805 4.63953211,15.9310556 4.73203167,15.9187214 C4.78062159,15.9187214 4.88877336,16.0018534 4.88877336,16.0379296 C4.85115535,16.3296759 5.06118922,16.3955541 5.26025117,16.4802547 C5.3483603,16.5238989 5.43415987,16.5720645 5.51730754,16.6245593 L5.26808825,16.9163057 C5.94364494,17.3178491 6.59569038,17.7005701 7.43896068,17.7805651 L7.19601106,17.3900014 L7.54084278,17.3131435 L7.49695511,17.8087986 L7.82454524,18.0174129 L8.13802862,17.5468543 L8.22110172,17.5625396 C8.22110172,17.6644939 8.20229272,17.7648798 8.20229272,17.8668341 C8.20229272,17.9436921 8.20229272,18.077017 8.23364106,18.0911338 C8.63803462,18.2589663 9.03302368,18.483266 9.39509699,18.4173878 L9.71798487,17.8778138 L9.8496479,17.9327124 L9.72425454,18.4409157 C10.1317829,18.5271848 10.4969911,18.8314794 10.951542,18.6401188 C10.9797189,18.6317171 11.0101716,18.636317 11.0346151,18.6526671 C11.319885,18.865987 11.6161268,18.7012915 11.9060989,18.6730579 C11.9761889,18.6583482 12.0346964,18.610338 12.0628406,18.5444386 C12.2047052,17.9935504 12.316678,17.4353839 12.3982678,16.8723869 C12.4499769,16.5111628 12.2402124,16.1634938 11.8966944,16.0410666 L11.9499866,16.4896659 L11.620829,16.4755491 L11.7916775,16.0567519 L11.045587,15.979894 L11.1521714,16.4504526 L10.7885306,16.3422241 L10.9452723,15.9202899 L10.4201877,16.0771428 C10.1835077,15.9814625 10.0048222,15.8591173 9.81986697,15.8497061 C9.5800631,15.865179 9.33952545,15.8342916 9.11139453,15.7587314 C8.9233045,15.6787365 8.66624812,15.6489344 8.55809636,15.9438178 C8.54398961,15.9783255 8.4875626,15.9971478 8.37314116,16.0802798 L8.30730965,15.5312948 L7.82611266,15.5061983 C7.73676989,15.6630512 7.66937097,15.786965 7.59726979,15.899899 C7.59726979,15.899899 7.4593371,15.846569 7.46247193,15.8324523 C7.48998456,15.7114982 7.52399463,15.5921167 7.56435403,15.4748277 C7.45620227,15.4450257 7.32767408,15.4136551 7.20384814,15.3744419 C6.84647709,15.2599393 6.81356133,15.2850357 6.84177484,15.6552085 C6.84177484,15.6944218 6.86842092,15.7461832 6.85274675,15.7665741 C6.8049727,15.8321296 6.74275948,15.8857997 6.67092639,15.923427 C6.60920848,15.9375197 6.54453318,15.9198685 6.49851053,15.8763711 C6.48630333,15.804104 6.49113392,15.7299825 6.51261728,15.6599141 C6.52515662,15.5861933 6.58001621,15.4952186 6.55493754,15.4403201 C6.4123026,15.1266143 5.68345373,14.8693756 5.35116135,14.9870153 C5.21949833,15.0325026 4.99535771,15.110929 4.98125096,14.8772182 C4.96244195,14.5274363 4.79629576,14.6199795 4.60193606,14.6921319 C4.44519437,14.7501674 4.27904818,14.8144771 4.21164925,14.5697866 L4.46557079,14.4129337 L4.32293585,14.3266646 C3.91697487,14.0521721 3.51414872,13.7745425 3.10505291,13.5063241 C3.03699155,13.4701812 2.96109772,13.4513289 2.88404712,13.4514256 C2.76022119,13.4514256 2.63482783,13.4514256 2.45927714,13.4514256 L2.64266492,13.0091004 C2.48592323,12.9322425 2.32918154,12.8036232 2.16146793,12.7895064 C1.89814188,12.7691155 1.74766986,12.6797094 1.69124285,12.4161966 C1.66146193,12.2593437 1.58622592,12.1668005 1.40283814,12.2593437 C1.3416529,12.2746598 1.2768289,12.2607591 1.22728744,12.221699 C1.20220877,12.1997396 1.22728744,12.115039 1.22728744,12.0648461 C1.22728744,11.9832826 1.24452903,11.9079932 1.25236612,11.8217241 C1.20064136,11.8217241 1.11600084,11.8044703 1.09562442,11.8217241 C1.0470345,11.9048562 0.971798487,12.0193588 0.996877158,12.0915111 C1.09719184,12.3534554 1.19750652,12.6248109 1.65049001,12.4836433 C1.28214704,12.9824355 1.63638326,13.1879127 1.95143406,13.4702479 C1.96330339,13.3834666 1.96645395,13.2957136 1.96083856,13.2083036 C1.94264566,13.1417981 1.91576785,13.077984 1.8809003,13.0185116 L2.13482184,12.9557705 C2.30567028,14.0631518 2.31350737,14.0882483 2.69282226,14.4474414 Z M22.5864777,31.9600654 C21.0676508,31.6965526 19.5049361,31.6181261 18.0644799,30.9907146 C19.4438068,31.7938014 21.0237631,31.967908 22.5331856,32.4823855 L22.5864777,31.9600654 Z M22.9438488,31.9600654 C22.9077352,32.1200645 22.8800063,32.2818438 22.8607757,32.4447408 C22.8607757,32.4933652 22.9234724,32.5921825 22.9579556,32.593751 C23.4140739,32.6031622 23.8701922,32.593751 24.3263105,32.593751 C24.3263105,32.0541771 24.3263105,32.0541771 23.9250518,32.0729995 L23.7306921,32.430624 C23.6272426,32.2361265 23.5833549,32.0196695 23.4673661,31.9600654 C23.3090569,31.8957557 23.0943208,31.9506542 22.9438488,31.9506542 L22.9438488,31.9600654 Z M25.9720983,32.071431 C25.7761712,32.1341721 25.5520306,32.0604512 25.4814968,32.3192585 C25.4112944,32.3302145 25.3394277,32.3186857 25.2761652,32.2863194 C24.8466929,31.9412431 24.6742771,31.9882989 24.5175354,32.5027764 C24.511117,32.5421844 24.5079714,32.5820568 24.5081309,32.6219846 L25.9470196,32.6219846 L25.9720983,32.071431 Z M28.8247971,31.9334004 C29.2824828,31.7420399 29.3326402,31.6557708 29.2385951,31.2354051 L27.929802,31.7059637 L28.0708695,32.2047559 L28.505044,32.1216239 C28.5567688,31.7106693 28.5567688,31.7106693 28.7558307,31.6338114 L28.8247971,31.9334004 Z M27.7777626,31.7153749 L26.9830822,31.8988928 C26.9721103,32.1043701 26.9642732,32.2800453 26.9548687,32.4698373 C27.1185155,32.4619434 27.2814057,32.4425505 27.4423354,32.4118017 C27.527857,32.3892227 27.6003789,32.3325248 27.6429647,32.2549488 C27.7002669,32.0752192 27.7453032,31.891802 27.7777626,31.7059637 L27.7777626,31.7153749 Z M26.1351096,32.0290807 C26.3561154,32.6094363 26.3702222,32.6188475 26.7620764,32.4447408 L26.6633291,31.911441 L26.1351096,32.0290807 Z M31.2934787,30.2346837 L31.2182427,30.1625314 L30.3342196,30.7366129 L30.7260738,30.9703237 L31.2934787,30.2346837 Z M29.7370337,31.4895068 C30.1335902,31.2714813 30.2323375,31.0565928 30.0693261,30.7977856 C29.6069381,31.0079684 29.5113257,31.1977604 29.7370337,31.4895068 Z" id="Shape" fill="#000000" fill-rule="nonzero"></path>
                    <path d="M23.4661837,24 C23.1297926,23.9213431 22.6600307,23.820837 22.1947144,23.6984817 C22.0894019,23.66583 21.999158,23.5977549 21.9398278,23.5062092 C21.7787149,23.2706935 21.52115,23.1159196 21.234444,23.0823356 C21.0106248,23.0345286 20.8102764,22.9126689 20.6668767,22.737119 C20.5143296,22.5695383 20.3240248,22.4393465 20.1111646,22.3569438 C19.2220253,22.0219235 18.7078064,20.4109127 19.1775683,19.6389093 C19.4131903,19.2499944 19.5999095,18.8465134 20.0667077,18.6600673 C20.2876756,18.5502505 20.4992837,18.4231142 20.6994785,18.2798921 C21.2640819,17.9375887 21.8731424,17.9346755 22.4777571,18.1342311 C22.7094199,18.2351538 22.9094544,18.3950654 23.0571796,18.5974331 C23.3743059,18.9805216 23.6588305,19.389829 23.9463189,19.7976798 C24.0604251,19.9608202 24.1285924,20.1516361 24.2338073,20.3191463 C24.2990108,20.4225656 24.3819972,20.5594869 24.4783206,20.5944456 C25.1125733,20.8085673 25.4711928,21.3227506 25.8372218,21.8078018 C26.1676853,22.2447848 25.9513281,23.0328109 25.5778895,23.4100729 C25.0058766,23.9825207 24.2901194,23.8630786 23.4661837,24 Z M22.6778135,18.6105426 C22.5580977,18.5554517 22.4354115,18.5068257 22.3103025,18.4648816 C21.6212196,18.2784355 21.0003039,18.4736212 20.4253272,18.8334039 C19.7347623,19.270387 19.1553399,19.7772873 19.3227944,20.7051479 C19.4072627,21.1698066 19.70957,21.5208496 19.9807575,21.8850021 C20.0222507,21.9388967 20.120056,21.9534628 20.2430536,22.008814 L20.1467302,21.5281326 C19.8058935,21.4800645 19.7525451,21.3970377 19.8073754,20.9877303 L20.1215379,21.2790523 C20.1956329,20.9877303 20.2697278,20.7211706 20.3349313,20.454611 L20.457929,20.4648073 C20.4757117,20.56677 20.5349877,20.6832988 20.5068316,20.7706954 C20.311221,21.3533394 20.4534833,21.8748059 20.7809829,22.3642268 C20.8462162,22.4804523 20.93804,22.5801837 21.0492066,22.6555489 C21.4937763,22.8900631 21.9383459,23.1202075 22.4021803,23.31248 C22.7009193,23.4437627 23.018202,23.5297106 23.343186,23.5673868 C23.7274601,23.581862 24.1122966,23.5687175 24.4946215,23.5280583 C24.8245007,23.533318 25.1397945,23.3946304 25.3556047,23.1493397 C25.4136702,23.0678006 25.4847242,22.9959917 25.5660343,22.9366746 C25.7290432,22.8347119 25.7305251,22.7007038 25.7008871,22.5390201 C25.5920631,21.795921 25.0813227,21.1695058 24.3671782,20.9032469 C24.1256286,20.8041974 23.9655836,20.6832988 23.9092714,20.4313052 C23.8871408,20.3772412 23.8454399,20.3331388 23.7922014,20.3074934 C23.5758442,20.1924212 23.3476317,20.0962849 23.1372021,19.972473 C22.7800645,19.7627212 22.4333001,19.53549 21.951683,19.681151 L21.9190812,19.0708314 L22.2480628,19.2092094 L22.6778135,18.6105426 Z" id="Shape" fill="#000000" fill-rule="nonzero"></path>
                    <path d="M22.7549323,29 C22.8553394,27.9257626 22.5942811,27.3444972 22.0018797,27.3573734 C21.991839,27.1734286 22.0181958,27.03547 22.1750818,27.0078783 C22.5955362,26.9361399 22.8151765,27.3665706 22.9607667,27.8006802 C23.0473678,28.0600423 22.9670422,28.4444868 22.9431955,28.7700691 C22.935665,28.8381286 22.8465537,28.8914726 22.7549323,29 Z" id="Shape" fill="#000000" fill-rule="nonzero"></path>
                    <path d="M21.2689086,27.4491823 C21.1584833,27.765909 21.6966478,27.6328838 21.5367216,27.9987031 C21.3281066,28.0161934 21.1364612,27.8552642 21.0709047,27.6075456 C21.0252114,27.4713532 20.9693642,27.2417264 21.0201344,27.178381 C21.1209861,27.0748906 21.2544356,27.0351636 21.3818724,27.070694 C21.4873631,27.1037568 21.5987069,27.0914826 21.6979171,27.035854 C21.8083424,26.9994305 21.9517683,26.9202488 22,27.2417264 L21.2689086,27.4491823 Z" id="Shape" fill="#000000" fill-rule="nonzero"></path>
                    <path d="M16.9992656,26 C17.0164137,26.7787887 16.7342498,27.0301438 16.0483264,26.9971792 L16,26.6263274 C16.0605304,26.6156701 16.1218629,26.6156701 16.1823933,26.6263274 C16.4396145,26.7458241 16.5892705,26.6263274 16.6999536,26.3069829 C16.7467211,26.1730642 16.8963771,26.1009541 16.9992656,26 Z" id="Shape" fill="#000000" fill-rule="nonzero"></path>
                    <path d="M16.5,26 C15.8391429,25.7839262 15.8275489,25.4097497 16.5,25 L16.5,26 Z" id="Shape" fill="#000000" fill-rule="nonzero"></path>
                    <path d="M29.3948181,23 C29.2840015,22.9212377 29.1224722,22.859353 29.0736377,22.7580872 C28.9250208,22.4983228 29.0056936,22.1968351 29.2764885,22 C29.3591314,22.347398 29.4305048,22.6385373 29.5,22.9296765 L29.3948181,23 Z" id="Shape" fill="#000000" fill-rule="nonzero"></path>
                    <path d="M21,29 L22,29.2708271 C21.9967871,29.3460305 21.9884959,29.4208887 21.9751908,29.4948195 C21.7115095,29.5096625 21.447101,29.4925845 21.1870229,29.4439121 C21.1087786,29.4255855 21.0763359,29.1934479 21,29 Z" id="Shape" fill="#000000" fill-rule="nonzero"></path>
                    <path d="M30,23 C30.3412969,23.0564368 30.4931741,23.274488 30.5,23.6541536 C30.4870112,23.7970158 30.4301378,23.9224101 30.3464164,23.9927743 C30.3020478,24.0286887 30.1552901,23.923511 30.1331058,23.8362905 C30.0768173,23.5621212 30.0323563,23.2827773 30,23 Z" id="Shape" fill="#000000" fill-rule="nonzero"></path>
                    <path d="M27,30.4522065 C27.0286182,30.3068345 27.0202011,30.0778238 27.0909047,30.0360045 C27.2003271,29.9722798 27.4730413,30.0021507 27.4848252,30.0559184 C27.5807802,30.4541979 27.1935934,30.2849291 27.1094224,30.5 L27,30.4522065 Z" id="Shape" fill="#000000" fill-rule="nonzero"></path>
                    <path d="M25,30.5 C25,30.0105848 25.1607717,29.9701744 25.3392283,30.0128298 C25.403537,30.03079 25.4485531,30.1856967 25.5,30.2777426 L25,30.5 Z" id="Shape" fill="#000000" fill-rule="nonzero"></path>
                    <polygon id="Shape" fill="#000000" fill-rule="nonzero" points="19.0833333 29 19.5 29.1410788 19.2140523 29.5 19 29.1804979"></polygon>
                    <path d="M30.4158594,16 C30.607479,16.2320447 30.431189,16.3719541 30.2893906,16.4930951 C30.1943882,16.5125493 30.0946672,16.490351 30.0211232,16.4333777 C29.9099839,16.1228472 30.2663962,16.1518528 30.4158594,16 Z" id="Shape" fill="#000000" fill-rule="nonzero"></path>
                    <polygon id="Shape" fill="#000000" fill-rule="nonzero" points="29.5 15.1829787 29.2919355 15.5 29 15.1191489 29.0693548 15 29.4387097 15.0617021"></polygon>
                    <path d="M28.5,16.1376812 L28.0939969,16.5 L28.0066061,16.4601449 C28.0066061,16.3641304 27.9811171,16.2264493 28.0302744,16.1811594 C28.1462207,16.1037188 28.2724537,16.0427451 28.4053266,16 L28.5,16.1376812 Z" id="Shape" fill="#000000" fill-rule="nonzero"></path>
                    <path d="M32.1105263,17 L32.4614035,17.1547786 L32.5,17.2736665 C32.4017544,17.3499342 32.2631579,17.520415 32.2140351,17.4979833 C32.1157895,17.4306883 32.0684211,17.2467485 32,17.1121584 L32.1105263,17 Z" id="Shape" fill="#000000" fill-rule="nonzero"></path>
                    <polygon id="Shape" fill="#000000" fill-rule="nonzero" points="33.5 21.0953307 33.2954545 21.5 33 21.3715953 33.275 21"></polygon>
                    <path d="M31.4362313,16.5 C31.1649149,16.4485981 30.9162083,16.3948598 31.0269958,16 C31.531192,16 31.5651066,16.0327103 31.4362313,16.5 Z" id="Shape" fill="#000000" fill-rule="nonzero"></path>
                    <polygon id="Shape" fill="#000000" fill-rule="nonzero" points="28 29.5 28 29.0590406 28.097619 29 28.5 29.3081181"></polygon>
                    <path d="M18.4384823,28.5 C17.9384823,28.4656652 17.9184823,28.4206009 18.1184823,28 C18.4759823,28.0429185 18.5784823,28.2038627 18.4384823,28.5 Z" id="Shape" fill="#000000" fill-rule="nonzero"></path>
                    <path d="M27.5,15.1807616 C27.3478964,15.3332616 27.2750809,15.4657616 27.2087379,15.4582616 C27.1423948,15.4507616 27.0695793,15.3107616 27,15.2282616 C27.0550162,15.1482616 27.1067961,15.0107616 27.1618123,15.0007616 C27.2168285,14.9907616 27.3268608,15.0807616 27.5,15.1807616 Z" id="Shape" fill="#000000" fill-rule="nonzero"></path>
                    <path d="M14,24.3673513 C14.0637883,24.2374212 14.1425734,24.1156614 14.2346939,24.0046399 C14.2612245,23.9776957 14.4081633,24.0751096 14.5,24.1165623 L14.1897959,24.5 L14,24.3673513 Z" id="Shape" fill="#000000" fill-rule="nonzero"></path>
                    <path d="M33.5,20.2772915 C33.4270657,20.3596397 33.3465321,20.4342387 33.2595745,20.5 C33.1655336,20.4103862 33.0787144,20.312806 33,20.2082518 C33.0851064,20.134758 33.1723404,19.9855433 33.2531915,20.0011329 C33.3340426,20.0167225 33.3978723,20.1503476 33.5,20.2772915 Z" id="Shape" fill="#000000" fill-rule="nonzero"></path>
                    <path d="M33.0006563,18 L33.5,18.25 C33.4523527,18.3225 33.412329,18.4425 33.3551522,18.4575 C33.1798102,18.5 32.9873151,18.525 33.0006563,18 Z" id="Shape" fill="#000000" fill-rule="nonzero"></path>
                    <path d="M26.5,16.3269676 C26.4039753,16.4061307 26.2988605,16.4645537 26.1886792,16.5 C26.1339623,16.5 26.0679245,16.3615741 26,16.2824736 C26.0664367,16.1775462 26.1424803,16.0837328 26.2264151,16.0031499 C26.2566038,15.9809029 26.3415094,16.0822504 26.4,16.1267444 L26.5,16.3269676 Z" id="Shape" fill="#000000" fill-rule="nonzero"></path>
                    <polygon id="Shape" fill="#000000" fill-rule="nonzero" points="20 29.3922414 20.2025 29 20.4925 29.112069 20.2425 29.5"></polygon>
                    <path d="M15.1158798,23 L15.5,23.2175 C15.4463519,23.3025 15.3626609,23.4675 15.3390558,23.4675 C15.218297,23.3993488 15.1045533,23.3154808 15,23.2175 L15.1158798,23 Z" id="Shape" fill="#000000" fill-rule="nonzero"></path>
                    <path d="M21.1392405,27 L21.5,27.25 C21.4219409,27.3275 21.3164557,27.5 21.2700422,27.465 C21.164557,27.415 21.0886076,27.2775 21,27.1775 L21.1392405,27 Z" id="Shape" fill="#000000" fill-rule="nonzero"></path>
                    <path d="M25.4383918,11.8017378 C24.8400591,11.694483 24.1986588,11.550455 23.5480297,11.4692477 C23.0219891,11.4033626 22.4882579,11.406427 21.9560648,11.3880405 C21.5869135,11.3742505 21.2162241,11.3527996 20.8470729,11.3727183 C20.5257026,11.3902845 20.2065521,11.4364345 19.8934321,11.5106175 C19.4412217,11.6163401 18.9967021,11.752707 18.5521824,11.8906061 C18.4108442,11.9450702 18.2757483,12.0144128 18.1491923,12.0974548 C17.3801271,12.5326032 16.611062,12.9754126 15.8296918,13.4074965 C15.3840773,13.6659442 14.9982999,14.0152541 14.6976279,14.4325466 C14.6407171,14.5060928 14.5438148,14.5535914 14.4930565,14.6256054 C14.2355451,14.9109476 13.9985957,15.2140591 13.7839785,15.5326752 C13.6578518,15.7395239 13.5286488,15.8866163 13.2979293,15.9218572 C13.0352017,15.9677422 12.7693797,15.9938636 12.5027159,16 C11.3589954,15.9837341 10.2197549,15.8538748 9.10190981,15.6123502 C8.36668352,15.459129 7.64222414,15.2630058 6.91161225,15.091398 C6.69012148,15.0393028 6.45017315,15.0301095 6.24252556,14.9580955 C5.89339049,14.8431407 5.55221593,14.7054557 5.22120704,14.5459304 C4.83052194,14.3544038 4.45214188,14.1383618 4.07683809,13.9115944 C3.92199334,13.7981746 3.77690697,13.6720969 3.64308534,13.5346701 C3.52671267,13.424187 3.40285794,13.3217984 3.27239593,13.2282276 C2.67685609,12.8173357 2.14113955,12.3264759 1.68043106,11.7695614 C1.60836573,11.6559746 1.52089053,11.552852 1.42048704,11.4631189 C1.01595877,11.2240937 1.0174969,10.8180574 1.00365373,10.4227466 C0.937514123,8.57030172 1.77271888,7.18211722 3.23240455,6.10803628 C4.05094629,5.53307316 4.93742226,5.06066409 5.87183616,4.70146523 C6.22147683,4.53640538 6.58106526,4.3931234 6.94852737,4.27244574 C8.11750641,3.95068112 9.25572284,3.51706499 10.473922,3.38529472 C11.4490967,3.27803984 12.421195,3.13860851 13.3963696,3.04207912 C13.828843,2.98923744 14.2659845,2.98615272 14.699166,3.03288585 C15.7297133,3.16772055 16.7679513,3.03288585 17.7969604,3.15239842 C18.2491708,3.20296143 18.6967667,3.31481294 19.1505151,3.34545719 C19.7295948,3.39697169 20.2918723,3.56646623 20.8024671,3.84342625 C21.5408932,4.24303767 22.3067377,4.59018187 23.0942812,4.8822663 C23.579807,5.06778162 24.0361422,5.32164437 24.449374,5.63611484 C24.6090318,5.75613355 24.7917474,5.84218534 24.9861815,5.8889299 C25.2025686,5.92289744 25.3916544,6.05316915 25.499917,6.24287098 C25.9428986,6.99212288 26.4412528,7.71839159 26.798099,8.50748101 C27.1421044,9.27420153 27.0414009,10.1664868 26.5350787,10.8379762 C26.3381981,11.1199033 25.9690468,11.2807856 25.6875689,11.507553 C25.5965602,11.5986495 25.5132207,11.6970422 25.4383918,11.8017378 L25.4383918,11.8017378 Z M11.0091914,7.64790981 C10.9725594,7.77263654 10.9584971,7.90286102 10.9676619,8.03249515 C11.075331,8.36345304 11.1891526,8.69287872 11.5383082,8.87367979 C11.948989,9.08665733 12.3212165,9.39156761 12.8257233,9.35632672 C12.8487952,9.35632672 12.8734053,9.38543876 12.9010917,9.39156761 C13.388679,9.51414461 13.87319,9.72405771 14.3638536,9.73325099 C14.9945247,9.77285076 15.625922,9.66802275 16.20961,9.42680849 C16.3245,9.36242001 16.4462557,9.31102714 16.5726087,9.27358725 C17.2063184,9.13875255 17.661605,8.70513642 18.1476542,8.334341 C18.3076933,8.199548 18.4247628,8.02115807 18.4845047,7.82104982 C18.6721566,7.22195475 18.5629493,6.93696323 18.1230441,6.70559914 C17.5277876,6.39149559 16.8771585,6.50487931 16.2296057,6.46197736 C16.340351,6.97526854 16.729498,6.8971257 17.0463529,6.9216411 C17.0386622,7.27864661 17.0894205,7.33687068 17.3724365,7.31235528 C17.3632077,7.25872785 17.3570552,7.2035682 17.3462883,7.14994076 C17.3355214,7.09631332 17.3170638,7.02276713 17.3016825,6.96147863 C17.7046726,6.80825738 17.8954008,6.90478677 17.8769432,7.24340572 L17.6339186,7.24340572 C17.6339186,7.33380626 17.6185373,7.44259334 17.661605,7.51001069 C17.7046726,7.57742804 17.815418,7.5973468 17.9169346,7.65250645 L17.9661548,7.32461298 L18.252247,7.32461298 C18.1799549,7.93749797 17.7431259,8.20257073 17.3001444,8.48449782 L17.0155903,8.07539709 C16.7310361,8.28684242 16.6679728,8.26692365 16.5541512,7.95894895 C16.5418461,7.92370806 16.540308,7.87774169 16.5156979,7.85322629 C16.469554,7.80419549 16.4126432,7.73831035 16.3618849,7.73371371 C16.3111266,7.72911708 16.2080718,7.78274451 16.1880761,7.82871089 C16.115784,8.10144471 15.85584,7.99265762 15.6943363,8.07846152 C15.6486736,8.02574781 15.6089571,7.96820063 15.5759003,7.90685372 C15.5359089,7.84096859 15.50207,7.77048681 15.466693,7.70153725 C15.413095,7.75377777 15.3817059,7.8245428 15.3790196,7.89919266 C15.3790196,7.96354558 15.3790196,8.02789851 15.3697908,8.08612258 C15.0621648,8.15200772 15.0621648,8.15200772 14.3192478,7.88387054 L14.2008118,8.14587887 C13.9900879,8.06007497 14.1054477,7.65557088 13.7609065,7.73831035 C13.7501396,7.78734115 13.7347583,7.84096859 13.7270676,7.8915316 C13.6563137,8.25926259 13.5947884,8.31289003 13.2410185,8.28224578 C12.9538176,8.23637617 12.6817638,8.42540356 12.6257663,8.70973306 C12.595944,8.79676778 12.5615448,8.88217902 12.5227116,8.96561254 L12.4165806,8.96561254 C12.4227627,8.87582822 12.4227627,8.78572747 12.4165806,8.69594315 C12.4119305,8.61076415 12.3782958,8.52970292 12.3212165,8.46611127 C12.2354786,8.42779827 12.1429123,8.40695983 12.0489675,8.40482278 L12.0858826,8.702072 C11.4106434,8.67602438 11.3906477,8.0263663 11.0091914,7.64790981 Z M15.5174513,7.2403413 C15.5943578,7.16373067 15.6820313,7.07486235 15.7712428,6.98905845 C15.8189249,6.94462429 15.9142889,6.8971257 15.9096746,6.86188482 C15.9004458,6.78987083 15.8466112,6.68108374 15.7912385,6.66882605 C15.6534466,6.64245059 15.5126493,6.63523155 15.3728671,6.64737507 C15.1267662,6.65656835 14.8822035,6.69334144 14.6361027,6.69027702 C14.214655,6.69027702 13.7916691,6.63205295 13.3717595,6.65810056 C13.1942221,6.69805885 13.0376441,6.80167898 12.9318543,6.94922093 C12.8786634,7.01613259 12.8558957,7.10211062 12.8690337,7.18645179 C12.8821717,7.27079295 12.9300248,7.34585475 13.0010701,7.39356254 C13.0441378,7.42880343 13.0395234,7.51307512 13.070286,7.56823477 C13.1210443,7.66169973 13.1825695,7.74903584 13.2410185,7.83943637 L13.33023,7.79193779 L13.2287134,7.12236094 C13.3058219,7.20103569 13.3897158,7.27281454 13.4794287,7.33687068 C13.600941,7.40122361 13.7347583,7.42114237 13.7639828,7.2403413 C13.7993598,7.01817049 13.9362534,6.99825173 14.1162146,7.0319604 C14.2361888,7.05494359 14.3577011,7.07333014 14.4453745,7.08712005 C14.4337256,7.19485538 14.4373501,7.30368753 14.4561414,7.41041688 C14.4669083,7.44872219 14.6391789,7.47936644 14.6437933,7.47017317 C14.7037804,7.33687068 14.7483862,7.19743935 14.8160639,7.00131615 L15.5174513,7.2403413 Z M12.1904755,12.6796956 C12.1904755,12.9554938 12.3135259,13.0321044 12.4873346,13.0275078 C12.6611433,13.0229112 12.845719,12.9953313 13.0256802,12.9754126 C13.2794717,12.9478328 13.5224963,12.9263818 13.6147841,13.2542753 C13.6332417,13.3186282 13.7255295,13.3615301 13.7947454,13.4228186 C13.9408678,13.050491 13.9131814,12.9202529 13.5701784,12.8467067 C13.1241206,12.7563062 12.6611433,12.733323 12.1904755,12.6796956 Z M13.2671667,13.9054656 C12.3642842,14.0127204 11.8674681,14.2869865 11.9289933,14.6271376 C12.3458266,14.4739164 12.7626599,14.3206951 13.1702645,14.1444907 C13.2148703,14.1352974 13.2225609,14.0142526 13.2640904,13.90853 L13.2671667,13.9054656 Z M5.72725191,11.0708725 L5.69341304,10.9942619 C5.84722607,10.8778137 6.01642041,10.7690266 6.16408092,10.6403208 C6.21726057,10.5847925 6.24556509,10.510157 6.24252556,10.4334721 C6.24252556,10.3982312 6.12716579,10.3369427 6.07486936,10.346136 C5.93797576,10.3721836 5.80877281,10.4380687 5.67187922,10.4733096 C5.60285827,10.4855674 5.54166989,10.5249223 5.50204923,10.5825401 C5.46242857,10.640158 5.44769483,10.7112119 5.46115536,10.7797521 C5.4532485,10.8545564 5.47780551,10.9291615 5.52864175,10.9847784 C5.57947799,11.0403953 5.65174844,11.0717233 5.72725191,11.0708725 L5.72725191,11.0708725 Z M10.0493981,14.2073114 C10.107847,14.1276364 10.2032111,14.0540902 10.1862917,14.0111882 C10.1201521,13.7736953 10.2785795,13.6235385 10.3754817,13.4458018 C10.4270493,13.3445351 10.4628365,13.2360367 10.4816127,13.1240372 C10.4821083,13.0643392 10.4548508,13.0077711 10.4077824,12.9708159 C10.3800961,12.9508972 10.2970371,12.9708159 10.2631982,13.0060568 C10.0063304,13.2466142 9.88635627,13.857967 10.0493981,14.2134403 L10.0493981,14.2073114 Z M6.86085395,10.9176512 C6.7802818,10.9567546 6.70220224,11.0007613 6.62705814,11.0494215 C6.61782936,11.0494215 6.65166822,11.1628052 6.67166392,11.1643374 C6.83731205,11.1933425 7.00648702,11.1964442 7.1730944,11.1735307 C7.24384839,11.1582086 7.34690312,10.9467633 7.32690743,10.9130546 C7.21368202,10.795427 7.08603865,10.6924697 6.94698924,10.6066121 L6.86085395,10.9176512 Z M9.41415026,5.58095519 L8.59740307,5.58095519 L8.55433542,5.65143696 C8.61739876,5.70812883 8.68969088,5.82151255 8.74352545,5.8153837 C8.96040182,5.78320724 9.24495593,5.95941167 9.41415026,5.57789076 L9.41415026,5.58095519 Z M7.55301259,6.04061893 C7.68891014,6.02488114 7.82288351,5.99562306 7.95292647,5.95328282 C8.01906607,5.925703 8.05444307,5.8276414 8.1067395,5.76022405 C8.03752363,5.72651537 7.96676964,5.66063024 7.8990919,5.66369466 C7.72936104,5.68155308 7.56088003,5.70969577 7.39458516,5.74796635 L7.55301259,6.04061893 Z M19.3089425,8.34813091 L19.3274001,8.51973871 C19.4812131,8.51973871 19.6350262,8.51973871 19.7888392,8.4936911 C19.8488263,8.4936911 19.9026608,8.43087039 19.9580335,8.39716171 C19.9011227,8.334341 19.8380594,8.21329622 19.7888392,8.21942507 C19.6254105,8.24900487 19.4648492,8.29257922 19.3089425,8.34966313 L19.3089425,8.34813091 Z M10.9430518,12.4851046 C10.9707381,12.6766311 10.9645856,12.8329168 10.9999626,12.8421101 C11.1324104,12.8702509 11.268737,12.8754342 11.4029528,12.8574322 C11.4260247,12.8574322 11.4614017,12.704211 11.4521729,12.704211 C11.3137412,12.632197 11.1706951,12.5785695 10.9430518,12.4866368 L10.9430518,12.4851046 Z M22.5467068,9.6244639 L22.5928508,9.7102678 L22.9635402,9.76849188 L23.0404467,9.33794017 L22.9358538,9.27665167 L22.5467068,9.6244639 Z M21.1931522,7.61573335 C21.155155,7.685014 21.1566295,7.7691159 21.1970319,7.83703264 C21.2374343,7.90494939 21.3107818,7.9466237 21.3900329,7.94669125 C21.4884732,7.95741673 21.6022948,7.83483974 21.709964,7.77201902 C21.6356652,7.72278699 21.5562477,7.68168984 21.4730919,7.64944203 C21.3812112,7.62852776 21.287389,7.61723024 21.1931522,7.61573335 L21.1931522,7.61573335 Z M9.22496023,4.04567829 L8.95732556,4.30768663 C9.01885077,4.35978185 9.11113859,4.46090787 9.13882493,4.4517146 C9.24026149,4.39208444 9.33379162,4.32001903 9.41722652,4.23720485 L9.22496023,4.04567829 Z M12.7980369,14.7037482 C12.668834,14.8707594 12.3365978,14.8922104 12.527326,15.2216361 C12.8872485,15.0745437 12.9210874,15.0255129 12.7980369,14.7037482 Z M13.1241206,3.59061119 L13.0810529,3.48795295 C12.9425573,3.48332393 12.8039102,3.48639312 12.6657577,3.49714623 C12.6519146,3.49714623 12.621152,3.65956075 12.6519146,3.690205 C12.7132417,3.75358509 12.7989687,3.78763233 12.8872485,3.78366996 C12.9795363,3.75762235 13.0410615,3.65802854 13.1241206,3.59061119 Z M9.87712748,3.812782 C9.87712748,4.11922449 9.98018221,4.20349618 10.1586053,4.15599759 C10.2247449,4.13761104 10.2647363,4.01350183 10.3124184,3.93842342 L9.87712748,3.812782 Z M13.6855381,14.4923029 L13.6024791,14.4034346 L13.2440947,14.7206026 C13.2917768,14.7650367 13.3425351,14.8477762 13.388679,14.846244 C13.6178604,14.8385829 13.6732331,14.6777006 13.6855381,14.4923029 Z M12.4550339,8.21942507 L12.6780628,8.00644753 C12.5934656,7.94515903 12.515021,7.85322629 12.4227331,7.83483974 C12.373513,7.82564646 12.2996827,7.93903018 12.2366194,7.99725426 L12.4550339,8.21942507 Z M20.9147506,8.78021483 L20.7917002,8.71586191 L20.5332943,9.04069095 L20.7932383,9.17859007 C20.8224628,9.04528759 20.8639923,8.9119851 20.9039837,8.78021483 L20.9147506,8.78021483 Z M21.4823207,9.54632107 L21.356194,9.44519504 L21.0485679,9.67196249 L21.3269695,9.82518374 L21.4823207,9.54632107 Z M13.9931642,13.916191 C13.9054908,14.182796 13.9362534,14.3084374 14.1377484,14.2915831 C14.2208075,14.2915831 14.2992521,14.2027148 14.380773,14.1552162 L13.9931642,13.916191 Z M16.2111481,7.57129919 C16.123835,7.49612332 16.0258813,7.43416982 15.9204415,7.38743369 C15.891217,7.37977263 15.7927767,7.49315636 15.7958529,7.54065494 C15.7989292,7.58815353 15.8712213,7.68008628 15.9142889,7.74903584 L16.2111481,7.57129919 Z M16.7510318,7.32920962 C16.7510318,7.48243087 16.6541296,7.65710309 16.894078,7.71226274 C16.9448363,7.72298823 17.0678867,7.65097424 17.0663486,7.61879778 C17.0617342,7.44412556 16.9879039,7.31235528 16.7510318,7.32920962 Z M11.2968218,3.76528341 L10.9107511,3.86947386 C10.9307467,3.93076236 10.9368993,4.03648502 10.9738144,4.04874272 C11.1476231,4.10083794 11.2783642,4.04414608 11.2968218,3.76528341 Z M23.0142985,7.74903584 C23.0712093,7.56670255 23.032756,7.44259334 22.8297228,7.44259334 C22.7681976,7.44259334 22.6528378,7.49315636 22.6528378,7.52226839 C22.6466853,7.76282575 22.8327991,7.73677814 23.0142985,7.74290699 L23.0142985,7.74903584 Z M16.4372533,7.35678945 C16.4833972,7.18211722 16.481859,7.0319604 16.2834402,6.97220411 C16.2434488,6.95994641 16.1296272,7.03349261 16.1296272,7.0687335 C16.1296272,7.24800236 16.2311438,7.34912838 16.4372533,7.3506606 L16.4372533,7.35678945 Z M7.58992771,13.7920818 C7.65914358,13.6909558 7.75604579,13.6036197 7.74374074,13.5561211 C7.70463336,13.4782046 7.62780532,13.4260234 7.54070754,13.418222 C7.48072046,13.418222 7.42534777,13.5270091 7.36689882,13.5867654 L7.58992771,13.7920818 Z M6.88854029,14.0372358 C6.91776477,13.8840146 6.95160363,13.7307933 6.73472726,13.7078101 C6.66497241,13.7168184 6.6058566,13.7633402 6.58091423,13.8288549 C6.54553723,14.0326392 6.69012148,14.0479613 6.88854029,14.0372358 Z M11.6752018,7.92370806 C11.6459773,8.17499091 11.7321126,8.28071357 11.9828279,8.20410294 C12.0228193,7.94209461 11.9336077,7.83943637 11.6675112,7.92370806 L11.6752018,7.92370806 Z M17.4278092,8.05394612 C17.4908725,7.92064363 17.5539359,7.84403301 17.5354783,7.81185655 C17.4766562,7.72555674 17.409141,7.64546625 17.3339832,7.5728314 C17.2893774,7.63105548 17.1970896,7.70306946 17.2093947,7.74137478 C17.2661784,7.85396807 17.3369773,7.95898559 17.4201185,8.05394612 L17.4278092,8.05394612 Z M14.7330049,7.75056805 L15.0098683,7.94209461 C15.1190756,7.64331318 15.0790842,7.56210592 14.8114495,7.50234963 L14.7330049,7.75056805 Z M12.1274121,7.66016751 L12.1812467,7.50694627 L11.8597775,7.37211157 L11.7828709,7.57129919 L12.1274121,7.66016751 Z M19.5012088,8.97480582 L19.3227857,9.35019787 C19.396616,9.36245557 19.49198,9.40995416 19.5412002,9.37930991 C19.691937,9.29044158 19.7057802,9.16480016 19.5012088,8.97480582 Z M12.4750296,7.73371371 L12.6288426,7.68774734 C12.6141754,7.57622447 12.5905142,7.46605968 12.5580886,7.35832166 C12.482196,7.36407368 12.4070116,7.37689819 12.3335216,7.39662697 L12.4750296,7.73371371 Z M24.2417264,6.81438623 L24.1002185,6.93236659 C24.1518183,7.02278408 24.2148872,7.10620903 24.2878704,7.18058501 C24.3047898,7.19437492 24.4186114,7.09631332 24.4878273,7.04881474 L24.2417264,6.81438623 Z M14.0408462,7.64944203 L14.1285197,7.59275017 C14.1977355,7.28630767 14.1869686,7.27558218 13.8055123,7.30316201 L14.0408462,7.64944203 Z M6.46401633,12.9478328 C6.35019468,12.8650933 6.27328817,12.7700961 6.23022052,12.783886 C6.15485479,12.8242503 6.09567425,12.8891525 6.06256432,12.9677515 C6.05333553,12.9830736 6.153314,13.0933929 6.19330539,13.0887963 C6.2901167,13.0555713 6.38137103,13.0080537 6.46401633,12.9478328 Z M7.72682131,13.0321044 L7.83141417,12.9922669 C7.83256881,12.8783382 7.82017751,12.7646739 7.79449904,12.653648 C7.78373213,12.6230037 7.65606732,12.6306648 7.58223706,12.6199393 L7.52071185,12.6950177 L7.72682131,13.0321044 Z M22.8358753,5.79852936 L22.7035961,5.72345095 L22.5344018,5.98086265 L22.7220537,6.06666654 L22.8358753,5.79852936 Z M24.6585598,9.26439397 L24.1971207,9.26439397 L24.5355093,9.62599612 L24.6585598,9.26439397 Z" id="Shape" fill="url(#linearGradient-2)" fill-rule="nonzero"></path>
                    <path d="M2.62539259,14.652555 C2.25989167,14.2904836 2.25234,14.265186 2.08469289,13.148931 L1.84001872,13.2121749 C1.8746663,13.2719591 1.90158373,13.3362914 1.92006644,13.4034878 C1.92547734,13.4915982 1.9224415,13.5800544 1.91100444,13.6675311 C1.60893757,13.3829335 1.26609167,13.1758097 1.62102024,12.6730206 C1.18453361,12.8153194 1.08787221,12.5417895 1.00480382,12.2824895 C0.980638473,12.209759 1.05313452,12.0943388 1.09995489,12.0105407 C1.1135479,11.9868242 1.19510595,12.0105407 1.25098832,12.0105407 C1.25098832,12.0911766 1.23437465,12.1686504 1.22682297,12.2556108 C1.22682297,12.3109492 1.19661629,12.3963285 1.22682297,12.4137206 C1.27333153,12.4506148 1.33310647,12.4639411 1.38993908,12.4500858 C1.5666482,12.3504767 1.63914425,12.4500858 1.66784061,12.6081956 C1.72070231,12.87382 1.86569441,12.9639426 2.12094091,12.9844969 C2.28103636,12.9987267 2.43055946,13.1283768 2.58461356,13.2058506 L2.40035277,13.6485579 C2.56951022,13.6485579 2.69033697,13.6485579 2.80965338,13.6485579 C2.88287555,13.6489749 2.9549104,13.667963 3.01958986,13.7038963 C3.41378713,13.9742641 3.80194306,14.2541184 4.19311965,14.5308105 L4.33056008,14.6177708 L4.08588592,14.7758806 C4.15083029,15.0225319 4.31243607,14.9577069 4.46195917,14.8992062 C4.64924063,14.8264757 4.80933607,14.7410965 4.82746009,15.0857758 C4.84105309,15.3213593 5.05703091,15.2438856 5.18389899,15.1964526 C5.50408988,15.0778703 6.20639536,15.3340081 6.34383578,15.6533899 C6.36800113,15.7087283 6.31513943,15.800432 6.30305675,15.8747436 C6.28235578,15.9453734 6.27770111,16.0200888 6.28946375,16.092935 C6.33381033,16.136781 6.39613027,16.1545736 6.45560052,16.140368 C6.52481758,16.1024392 6.5847651,16.048339 6.63079931,15.9822582 C6.64590265,15.9617039 6.62324764,15.9095277 6.62022697,15.8700003 C6.59304095,15.4968612 6.62022697,15.4715636 6.96911421,15.5869838 C7.08843062,15.6265112 7.21227804,15.6581332 7.31649111,15.688174 C7.27760153,15.8064029 7.24483004,15.926741 7.21831938,16.0486643 C7.21831938,16.0628942 7.34518746,16.1213948 7.34820813,16.1166515 C7.42070418,16.0028125 7.48262789,15.882649 7.56871695,15.719796 L8.0323896,15.7450935 L8.11243732,16.2937345 C8.22269173,16.2099363 8.27706376,16.1909631 8.29065677,16.156179 C8.39486984,15.8589326 8.64256468,15.8889734 8.8238048,15.9696094 C9.0436276,16.0457751 9.27540529,16.0769099 9.50647593,16.0613131 C9.68469538,16.0707997 9.8568735,16.1941253 10.084934,16.2905723 L10.590896,16.1324625 L10.4398626,16.5577778 L10.7902601,16.6668735 L10.6875574,16.1925442 L11.4064766,16.270018 L11.2418501,16.6921711 L11.5590203,16.706401 L11.5091793,16.2589503 C11.840187,16.3823585 12.0423123,16.7328134 11.9924863,17.0969321 C11.9108816,17.6646176 11.7999612,18.2272587 11.6602127,18.7823823 C11.6330935,18.8488098 11.5767167,18.8972047 11.5091793,18.9120323 C11.2297674,18.9404921 10.9443142,19.1065074 10.6694334,18.8914781 C10.6458801,18.8749969 10.6165365,18.8703602 10.5893857,18.8788293 C10.1513887,19.0717232 9.7994808,18.7649902 9.40679386,18.6780299 L9.52762061,18.1657542 L9.40075253,18.1104158 L9.08207198,18.6558945 C8.73318474,18.7223006 8.35258048,18.4977847 7.96291422,18.3270262 C7.92817653,18.3127963 7.93421786,18.178403 7.93270753,18.1009292 C7.93270753,17.9981578 7.9447902,17.8969676 7.95083154,17.7941962 L7.87078382,17.7783852 L7.56871695,18.2527146 L7.25305707,18.0424286 L7.29534643,17.5428017 L6.96307287,17.6202755 L7.1971747,18.0139688 C6.38461481,17.9396572 5.75631572,17.547545 5.10536161,17.142784 L5.34550477,16.8486998 C5.26538519,16.7957843 5.18271029,16.7472327 5.09780994,16.7032388 C4.90599747,16.6178595 4.70361267,16.545129 4.73986069,16.2573692 C4.73986069,16.221004 4.63866829,16.1324625 4.58882726,16.1372058 C4.49969637,16.1496388 4.41638055,16.1904884 4.35019443,16.254207 C4.33056008,16.2715991 4.37738045,16.399668 4.42118014,16.448682 C4.54200689,16.5893997 4.67793698,16.7158876 4.80933607,16.8471187 L4.72324701,16.9451467 C4.4589385,16.7253741 4.19009899,16.5087638 3.93032148,16.2826668 C3.75663302,16.1340436 3.58747558,15.9775149 3.42738013,15.8083374 C3.37044915,15.7314764 3.32276719,15.647575 3.2854087,15.558524 L3.5663309,15.4731447 C3.66148196,15.234399 3.4787315,15.2154258 3.28993971,15.1806416 L3.20234032,15.4431039 C3.0459767,15.3764498 2.92191085,15.2465794 2.85822987,15.082894 C2.7945489,14.9192086 2.79663843,14.7355513 2.86402542,14.5735001 C2.88819077,14.5276483 2.85043241,14.4470123 2.8413704,14.3821873 C2.77492899,14.3940822 2.71101667,14.4181686 2.65257861,14.4533367 C2.62690292,14.4817964 2.6389856,14.5608513 2.62539259,14.652555 Z M6.01005189,17.5111797 C6.00098988,17.35307 6.02515523,17.2534608 5.98739687,17.2186766 C5.87714247,17.1174864 5.74423304,16.9783498 5.61887529,16.9767687 C5.4391455,16.9767687 5.46784185,17.1522705 5.56450325,17.2439742 C5.70503672,17.3468957 5.85415801,17.4363271 6.01005189,17.5111797 Z M6.85281846,17.1491083 L6.75011572,17.0653102 L6.37404247,17.3720431 L6.37404247,17.4811389 C6.49637955,17.5143419 6.69272302,17.61237 6.72746071,17.5680992 C6.79485793,17.4382902 6.83743787,17.2959727 6.85281846,17.1491083 L6.85281846,17.1491083 Z M11.1557611,18.697003 L11.3067945,18.2052816 C11.2433604,18.1926329 11.1557611,18.1436188 11.1225337,18.1704975 C10.9715003,18.3064719 10.8748389,18.4661628 11.1557611,18.697003 Z M8.90989386,17.7594121 L8.80114978,17.6756139 C8.74073641,17.8337237 8.44320054,17.6329243 8.49908291,17.9301706 C8.51418626,18.0139688 8.65011635,18.0740505 8.73318474,18.1451999 L8.90989386,17.7594121 Z M3.92579047,15.9000411 L4.03000354,15.865257 C4.20218166,15.5490374 4.17046464,15.4747258 3.78381904,15.4731447 L3.92579047,15.9000411 Z M9.91275587,17.4969498 C9.84662787,17.5678599 9.78459426,17.6428313 9.72698475,17.7214657 C9.70162717,17.7714558 9.6823464,17.8245719 9.66959204,17.8795755 C9.7268021,17.9089282 9.78881867,17.9266342 9.8523425,17.9317517 C10.0788927,17.903292 10.0970167,17.791034 9.91275587,17.4969498 Z M11.3838215,17.7847096 L11.4729313,17.8669267 C11.6239647,17.8858999 11.7749981,17.8416292 11.7749981,17.6471541 C11.7749981,17.5823291 11.6783367,17.5095986 11.6239647,17.4416114 L11.3838215,17.7847096 Z M7.26967074,16.4945339 C7.09447196,16.3965058 7.0038519,16.4692363 6.96760387,16.6526436 C6.93135585,16.836051 7.0129139,16.9135248 7.19264369,16.932498 L7.26967074,16.4945339 Z M10.2133124,18.5942317 C10.3032893,18.5065808 10.3889839,18.4142327 10.4700693,18.3175396 C10.4700693,18.3175396 10.3839802,18.1926329 10.3688768,18.1989572 C10.2526968,18.2553023 10.1397356,18.3186525 10.030562,18.388689 L10.2133124,18.5942317 Z M9.39471119,16.6716168 L9.50798626,16.94989 C9.60917867,16.8882272 9.72849508,16.8550242 9.77380511,16.7743882 C9.80099113,16.723793 9.71490207,16.6052107 9.67865405,16.513507 L9.39471119,16.6716168 Z M5.48143486,15.3545624 C5.37722179,15.4715636 5.26092605,15.5521996 5.27300872,15.5980514 C5.29264307,15.6818496 5.3908148,15.7435124 5.45575918,15.8146618 C5.50257954,15.7593234 5.58262727,15.7071472 5.58715827,15.6565521 C5.59168927,15.6059569 5.53429657,15.4921179 5.48143486,15.3545624 Z M11.2312778,16.9356601 L10.8265082,17.1064187 C10.8748389,17.1665004 10.9125972,17.2645285 10.9775416,17.2787584 C11.1436784,17.3261913 11.2282571,17.2297443 11.2312778,16.9356601 Z M10.9050455,17.7040737 L10.8446322,17.5459639 L10.4987656,17.6566407 L10.5878753,17.8764133 L10.9050455,17.7040737 Z M4.39097346,15.590146 L4.32451874,15.6628765 C4.40909747,15.735607 4.48763485,15.8462838 4.58127559,15.8636759 C4.63564762,15.8747436 4.71569534,15.7324448 4.78366039,15.6597143 L4.73684002,15.590146 L4.39097346,15.590146 Z M5.35003577,16.0787052 C5.27602939,16.2115174 5.19900234,16.2968967 5.21259535,16.3364241 C5.25746934,16.4153899 5.32369161,16.4786627 5.40289748,16.5182503 C5.41800082,16.5277369 5.5358069,16.415479 5.52674489,16.3806948 C5.48088783,16.2722775 5.4214641,16.1707245 5.35003577,16.0787052 Z M8.00671391,16.8234022 L8.23175373,16.6336705 C8.17285069,16.5783321 8.11394765,16.4755607 8.05202394,16.4755607 C7.99010023,16.4755607 7.92213519,16.5672644 7.85719081,16.6178595 L8.00671391,16.8234022 Z M8.24383641,17.6234377 C8.41903519,17.6851005 8.54590328,17.6534785 8.55949629,17.4495169 C8.55949629,17.4005029 8.48700024,17.2914071 8.45377288,17.2914071 C8.26951209,17.3151236 8.22269173,17.4431925 8.24383641,17.6234377 Z M5.92094216,16.43129 C6.15655432,16.7807126 6.20790569,16.7791315 6.39216648,16.43129 L5.92094216,16.43129 Z M7.82547379,17.0083906 L7.74542607,16.9530522 L7.51736558,17.2155144 L7.85114947,17.3736242 L7.82547379,17.0083906 Z M9.49590359,17.191798 L9.44153155,17.1174864 L9.02769994,17.1174864 L9.29653945,17.4068273 L9.49590359,17.191798 Z M3.48628317,14.3268489 L3.36545643,14.2304019 C3.29878835,14.3046679 3.24004259,14.386312 3.19025764,14.4738909 C3.18270597,14.4897019 3.29749138,14.5687568 3.35639442,14.6177708 L3.48628317,14.3268489 Z M9.15758869,16.6984955 C9.04280328,16.6067918 8.97936924,16.5182503 8.92801787,16.5261558 C8.8766665,16.5340613 8.80266012,16.6194406 8.73922608,16.6716168 C8.78151544,16.7206309 8.8238048,16.8107534 8.86458383,16.8107534 C8.96673253,16.7916869 9.06552562,16.7565021 9.15758869,16.706401 L9.15758869,16.6984955 Z M2.9818315,14.9830044 L3.28389837,15.0968435 L3.36092542,14.7901105 L3.30051205,14.7553263 L2.9818315,14.9830044 Z" id="Shape" fill="url(#linearGradient-3)" fill-rule="nonzero"></path>
                    <path d="M23,31.6498423 L22.9410745,32 C21.2720971,31.6550999 19.52513,31.5383807 18,31 C19.592721,31.4153523 21.3206239,31.4679285 23,31.6498423 Z" id="Shape" fill="url(#linearGradient-4)" fill-rule="nonzero"></path>
                    <path d="M23.0567204,32.0300068 C23.163601,32.0300068 23.3057522,31.9476045 23.4137016,32.0559047 C23.4927932,32.1359527 23.5205821,32.4608533 23.5932609,32.7622104 L23.7257929,32.218355 C24.0026136,32.1901028 24.0026136,32.1901028 23.9994072,33 C23.6883847,33 23.3773622,33 23.0663397,33 C23.0428259,33 22.9979361,32.8493214 23.0000737,32.7763365 C23.0128884,32.525509 23.0317977,32.276375 23.0567204,32.0300068 Z" id="Shape" fill="url(#linearGradient-5)" fill-rule="nonzero"></path>
                    <path d="M25,32.0122423 L24.9828694,33 L24.0000039,33 C23.999895,32.9283649 24.0020437,32.8568292 24.0064279,32.7861265 C24.1134939,31.8630937 24.2312664,31.7786699 24.5246271,32.3977773 C24.5678401,32.4558462 24.6169302,32.4765302 24.6648835,32.456874 C24.7109219,31.9925434 24.8661676,32.1248073 25,32.0122423 Z" id="Shape" fill="url(#linearGradient-6)" fill-rule="nonzero"></path>
                    <path d="M28.6638044,31.7249191 L28.6126531,31.4110032 C28.4650118,31.4902913 28.4650118,31.4902913 28.4266483,31.9142395 L28.1046277,32 L28,31.4854369 L28.9707122,31 C29.0404639,31.4385113 29.003263,31.5275081 28.6638044,31.7249191 Z" id="Shape" fill="url(#linearGradient-7)" fill-rule="nonzero"></path>
                    <path d="M28,32 C27.9598885,32.2417105 27.9051647,32.4802319 27.8361905,32.7139875 C27.7844392,32.8172396 27.6963089,32.8927035 27.592381,32.9227557 C27.3968154,32.9636818 27.1988675,32.9894935 27,33 C27.0114286,32.7473904 27.0209524,32.5135699 27.0342857,32.2400835 L28,32 Z" id="Shape" fill="url(#linearGradient-8)" fill-rule="nonzero"></path>
                    <path d="M26,32.1861193 L26.8440594,32 L27,32.8437409 C26.3712871,33.1191975 26.3490099,33.1043079 26,32.1861193 Z" id="Shape" fill="url(#linearGradient-9)" fill-rule="nonzero"></path>
                    <polygon id="Shape" fill="url(#linearGradient-10)" fill-rule="nonzero" points="31 30.0815534 30.4065041 31 30 30.7106796 30.9170732 30"></polygon>
                    <path d="M30.223138,32 C29.7927136,31.5804989 29.9750462,31.3061224 30.8568184,31 C31.1676805,31.3718821 30.9793698,31.6825397 30.223138,32 Z" id="Shape" fill="url(#linearGradient-11)" fill-rule="nonzero"></path>
                    <path d="M11.0490932,7.08628196 C11.4502651,7.43249054 11.4712942,8.02679189 12.1814331,8.05202167 L12.14261,7.78010076 C12.2414104,7.78205572 12.3387609,7.80111854 12.4289302,7.83616693 C12.4823669,7.89451826 12.5124577,7.96634293 12.5146645,8.04080843 C12.5211661,8.12294232 12.5211661,8.20536568 12.5146645,8.28749956 L12.6262809,8.28749956 C12.6671212,8.21117534 12.7032982,8.1330419 12.734662,8.05342332 C12.7935537,7.79332126 13.0796685,7.62040071 13.3817133,7.66236182 C13.7537678,7.69179655 13.8233258,7.641337 13.8831781,7.30774332 C13.8831781,7.25868542 13.9074425,7.20962753 13.9187659,7.1675779 C14.2811147,7.09188858 14.1597925,7.46192527 14.3814076,7.54041791 L14.505965,7.30073505 C15.2824266,7.54602452 15.2824266,7.54602452 15.6108051,7.48575339 C15.6108051,7.43249054 15.6108051,7.37362106 15.6205109,7.31475159 C15.6271359,7.24462651 15.6655182,7.17962256 15.7272744,7.1339382 C15.7644798,7.19701264 15.8000677,7.26148873 15.842126,7.32175986 C15.8768914,7.37787946 15.9186606,7.4305231 15.9666834,7.47874512 C16.1284462,7.40025249 16.4099135,7.49976993 16.4859421,7.2502755 C16.4988831,7.20822587 16.6072642,7.16056963 16.6687341,7.16337294 C16.730204,7.16617625 16.7868209,7.22784903 16.8304969,7.27270196 C16.856379,7.29512843 16.8579966,7.33717805 16.8709376,7.3694161 C16.9906421,7.64974693 17.0569649,7.66937009 17.3562261,7.47594181 L17.6554874,7.85018347 C18.1213643,7.59227911 18.5807708,7.34418632 18.6567993,6.78913128 L18.3623909,6.78913128 L18.3106268,7.08908527 C18.1973929,7.03862572 18.0841589,7.01760091 18.0421005,6.95873144 C18.0000422,6.89986196 18.0194537,6.79754121 18.0129832,6.71484361 L18.2685685,6.71484361 C18.28798,6.40507805 18.0873941,6.31256887 17.6635755,6.45693925 C17.6797518,6.51300542 17.6959281,6.57187489 17.7104867,6.62934271 C17.7250454,6.68681053 17.7282806,6.72886016 17.7379864,6.77791805 C17.4403428,6.80034452 17.3869611,6.74708166 17.3950492,6.42049624 C17.0618178,6.39386481 16.6525578,6.46534918 16.5360886,6 C17.2171101,6.03924632 17.9013669,5.93552391 18.527389,6.22286301 C18.9900307,6.43451278 19.1048823,6.69522046 18.9075317,7.24326723 C18.8447021,7.42632445 18.7215819,7.58951394 18.5532711,7.71282136 C18.0421005,8.05202167 17.5632825,8.44868979 16.8968197,8.57203536 C16.7639361,8.60628503 16.6358875,8.65329877 16.5150594,8.71220077 C15.9012036,8.93286139 15.2371726,9.02875711 14.5739054,8.9925316 C14.0578819,8.98412167 13.548329,8.79209506 13.0355408,8.67996272 C13.0064235,8.67996272 12.9805415,8.64632303 12.956277,8.64772468 C12.425695,8.67996272 12.0342289,8.40103355 11.6023221,8.20620362 C11.2351205,8.04080843 11.1170336,7.73945279 11.002182,7.4366955 C10.9937846,7.31840638 11.0096677,7.19976428 11.0490932,7.08628196 Z M13.9058249,8.57904363 C14.8165496,8.77807852 15.5994817,8.54119896 16.3807962,8.33515581 C16.4552071,8.31553265 16.5069712,8.10107956 16.4843244,7.99034889 C16.4328521,7.89199177 16.3264291,7.82362611 16.2028571,7.8095355 C15.6350696,7.82074873 15.0705173,7.87401159 14.5011121,7.88522482 C14.3072079,7.86680548 14.1239843,7.96588613 14.0578819,8.12490768 C13.9947944,8.26647475 13.9592066,8.41645175 13.9058249,8.57904363 Z" id="Shape" fill="#000000" fill-rule="nonzero"></path>
                    <path d="M15.6139955,6.50300744 L14.9237285,6.31107425 C14.8571238,6.47377258 14.8132253,6.58944093 14.7541893,6.70002495 C14.7541893,6.70765143 14.5801088,6.68222982 14.5695126,6.6504528 C14.5502984,6.55983702 14.5467297,6.46736963 14.5589164,6.37589937 C14.4726331,6.36445964 14.3530473,6.34920667 14.2349754,6.33014046 C14.0578674,6.30217668 13.9231443,6.31870073 13.8883282,6.50300744 C13.859567,6.65299496 13.7278714,6.63647091 13.6082857,6.58308552 C13.5199952,6.52994634 13.4374315,6.47040061 13.3615455,6.40513422 L13.4614526,6.9605965 L13.3736554,7 C13.3161332,6.92500624 13.2555835,6.85255464 13.2056299,6.77501871 C13.1753551,6.72925981 13.1798963,6.65935037 13.1375115,6.63011551 C13.0652345,6.59058343 13.0164714,6.52704036 13.0034639,6.4554385 C12.9904564,6.38383664 13.0144398,6.31097556 13.0693931,6.2551467 C13.1735055,6.13275002 13.327601,6.04678965 13.5023236,6.01364136 C13.9155755,5.99203299 14.3318549,6.03652081 14.7466206,6.04033406 C14.9888195,6.04033406 15.2295047,6.01237028 15.4717036,6.0047438 C15.6092695,5.99466987 15.7478345,6.00065859 15.8834418,6.02253893 C15.9379365,6.03270757 15.9909175,6.1229543 16,6.1826951 C16,6.21192995 15.9106891,6.25133346 15.8637631,6.2881948 C15.775966,6.36191748 15.6896826,6.43564016 15.6139955,6.50300744 Z" id="Shape" fill="#000000" fill-rule="nonzero"></path>
                    <path d="M12,12 C12.5561673,12.0721649 13.1032469,12.0969072 13.6357861,12.2247423 C14.0410976,12.3237113 14.0738133,12.4989691 13.901147,13 C13.8193577,12.9175258 13.7103053,12.8597938 13.6884948,12.7731959 C13.5794424,12.3319588 13.292271,12.3608247 12.9923769,12.3979381 C12.7797247,12.4247423 12.5688901,12.4597938 12.3562379,12.4680412 C12.1435857,12.4762887 12.0072702,12.371134 12,12 Z" id="Shape" fill="#000000" fill-rule="nonzero"></path>
                    <path d="M13,14 C12.9690836,14.1464968 12.9633583,14.3036093 12.9278617,14.3312102 C12.6244228,14.566879 12.3141137,14.7791932 12.0038045,15 C11.9580024,14.5265393 12.3278543,14.14862 13,14 Z" id="Shape" fill="#000000" fill-rule="nonzero"></path>
                    <path d="M5.34453506,10.9999847 C5.25002585,11.0009248 5.15951318,10.9585334 5.09514453,10.8831834 C5.03077589,10.8078334 4.99849,10.7064765 5.00618687,10.6039138 C4.98907148,10.5086591 5.00780578,10.409911 5.05818441,10.3298358 C5.10856304,10.2497606 5.18636555,10.1950666 5.27412734,10.1780311 C5.44819086,10.1290546 5.61247553,10.0374899 5.78653905,10.0012898 C5.85303523,9.98851335 5.99580643,10.0736899 5.99971797,10.1226664 C6.0035828,10.2292403 5.96759292,10.332966 5.8999737,10.4101372 C5.70439672,10.5890079 5.50881973,10.7401963 5.30150812,10.9020317 L5.34453506,10.9999847 Z" id="Shape" fill="#000000" fill-rule="nonzero"></path>
                    <path d="M10.1468498,14 C9.82502581,13.7138287 10.0618397,13.2216634 10.5688642,13.0341719 C10.6356579,13.0095019 10.7996059,12.989766 10.8542553,13.0058014 C10.9471622,13.0355519 11.0009652,13.0810917 10.9999869,13.1291511 C10.962925,13.2193156 10.8922857,13.3066615 10.7904977,13.3881855 C10.5870807,13.5300377 10.2834732,13.6509204 10.4170605,13.8421124 C10.4413491,13.8778838 10.2622206,13.9370917 10.1468498,14 Z" id="Shape" fill="#000000" fill-rule="nonzero"></path>
                    <path d="M6.34229684,10.5264753 L6.45565788,10 C6.65273514,10.1475054 6.83364641,10.3243884 6.99412285,10.5264753 C7.03118319,10.5843876 6.88512185,10.9476555 6.77612084,10.9739793 C6.53998517,11.0133451 6.3002104,11.0080164 6.06543428,10.958185 C6.03709402,10.958185 5.98913358,10.7739187 6.0022137,10.7607568 C6.11136708,10.674076 6.22495527,10.5958257 6.34229684,10.5264753 L6.34229684,10.5264753 Z" id="Shape" fill="#000000" fill-rule="nonzero"></path>
                    <path d="M9,5 C8.80322004,5.6225 8.46332737,5.335 8.22003578,5.3825 C8.15742397,5.3825 8.07334526,5.2075 8,5.115 L8.05008945,5 L9,5 Z" id="Shape" fill="#000000" fill-rule="nonzero"></path>
                    <path d="M7.21598272,5.5 L7,5.11178862 C7.2335096,5.06102169 7.47008895,5.02368966 7.70842333,5 C7.80345572,5 7.90280778,5.08333333 8,5.12804878 C7.93088553,5.21747967 7.8812095,5.34756098 7.78401728,5.38414634 C7.59931392,5.44071078 7.40899805,5.47952671 7.21598272,5.5 Z" id="Shape" fill="#000000" fill-rule="nonzero"></path>
                    <path d="M19,8.21 C19.2412497,8.11701289 19.4896604,8.04674477 19.7423888,8 C19.8173302,8 19.9133489,8.1875 20,8.29 C19.9156909,8.345 19.8337237,8.435 19.7423888,8.4475 C19.5081967,8.48 19.2740047,8.4775 19.0398126,8.49 L19,8.21 Z" id="Shape" fill="#000000" fill-rule="nonzero"></path>
                    <path d="M11,12 C11.4458144,12.1220254 11.7259546,12.2033756 11.997058,12.2826921 C12.0151315,12.2826921 11.9458496,12.4860677 11.9006657,12.4860677 C11.6378188,12.5099623 11.370838,12.5030824 11.1114536,12.4657302 C11.0421716,12.4616627 11.0542207,12.2542195 11,12 Z" id="Shape" fill="#000000" fill-rule="nonzero"></path>
                    <polygon id="Shape" fill="#000000" fill-rule="nonzero" points="22 9.70716511 22.788162 9 23 9.12461059 22.8442368 10 22.0934579 9.88161994"></polygon>
                    <path d="M21.0505125,7 C21.2236446,7.00225695 21.396015,7.01929086 21.5648182,7.05082451 C21.7175922,7.09944639 21.8634983,7.16141094 22,7.23564092 C21.8021901,7.33035933 21.5930768,7.51517574 21.412222,7.4990043 C21.2666218,7.49890247 21.1318677,7.4360677 21.0576403,7.3336657 C20.9834129,7.23126371 20.9807041,7.10445843 21.0505125,7 Z" id="Shape" fill="#000000" fill-rule="nonzero"></path>
                    <path d="M9.2909699,4 L9.5,4.23499073 C9.40929036,4.33659838 9.30760528,4.42501799 9.19732441,4.49818034 C9.16220736,4.5169796 9.06688963,4.38538479 9,4.32146732 L9.2909699,4 Z" id="Shape" fill="#000000" fill-rule="nonzero"></path>
                    <path d="M12.4169719,14 C12.5729084,14.6213018 12.5358734,14.7159763 12.0739117,15 C11.8302611,14.3639053 12.2532387,14.3224852 12.4169719,14 Z" id="Shape" fill="#000000" fill-rule="nonzero"></path>
                    <path d="M12.5,3.17090684 C12.4149841,3.28090684 12.3520094,3.44340684 12.2575473,3.48590684 C12.1661099,3.4938397 12.0770275,3.43816943 12.0135201,3.33340684 C11.9820328,3.28340684 12.0135201,3.02090684 12.0276895,3.01840684 C12.1690968,3.00086177 12.3110104,2.995854 12.4527689,3.00340684 L12.5,3.17090684 Z" id="Shape" fill="#000000" fill-rule="nonzero"></path>
                    <path d="M10.0001626,3 L10.5,3.1768895 C10.4421241,3.28259176 10.3965249,3.45732406 10.3246184,3.48321033 C10.1176682,3.55008319 9.9949011,3.42280904 10.0001626,3 Z" id="Shape" fill="#000000" fill-rule="nonzero"></path>
                    <path d="M13.5,14.100346 C13.4860627,14.3096886 13.4233449,14.4913495 13.1637631,14.5 C13.1114983,14.5 13.054007,14.4083045 13,14.3581315 L13.4059233,14 L13.5,14.100346 Z" id="Shape" fill="#000000" fill-rule="nonzero"></path>
                    <path d="M12.2421603,7.5 L12,7.21672414 C12.0714286,7.13928181 12.1550523,6.98847308 12.2108014,7.00070081 C12.315331,7.02719424 12.4041812,7.14743364 12.5,7.22895187 L12.2421603,7.5 Z" id="Shape" fill="#000000" fill-rule="nonzero"></path>
                    <polygon id="Shape" fill="#000000" fill-rule="nonzero" points="20.5 8.06953642 20.3407258 8.5 20 8.35099338 20.3387097 8"></polygon>
                    <polygon id="Shape" fill="#000000" fill-rule="nonzero" points="21.5 9.12903226 21.3220641 9.5 21 9.2983871 21.3558719 9"></polygon>
                    <path d="M14.0533567,14 L14.5,14.3171041 C14.4060631,14.3801184 14.3227606,14.4898852 14.2199618,14.498016 C13.9877781,14.5203759 13.9523303,14.353693 14.0533567,14 Z" id="Shape" fill="#000000" fill-rule="nonzero"></path>
                    <path d="M16.5,7.24478814 L16.1426533,7.5 C16.0908102,7.4050865 16.003788,7.31228219 16.0000849,7.21315031 C15.9963818,7.11401843 16.1148802,6.98113953 16.1500594,7.00223142 C16.2764194,7.06331413 16.3943019,7.14502285 16.5,7.24478814 L16.5,7.24478814 Z" id="Shape" fill="#000000" fill-rule="nonzero"></path>
                    <path d="M17.0305943,7.00188463 C17.3920367,6.9800291 17.5,7.15089957 17.5,7.37740228 C17.5,7.41912646 17.3145847,7.51250915 17.2371328,7.49860109 C16.8827315,7.42707392 17.0305943,7.19858435 17.0305943,7.00188463 Z" id="Shape" fill="#000000" fill-rule="nonzero"></path>
                    <path d="M11.5,3 C11.4760956,3.455 11.3007968,3.5475 11.0816733,3.4525 C11.0338645,3.4325 11.0258964,3.26 11,3.16 L11.5,3 Z" id="Shape" fill="#000000" fill-rule="nonzero"></path>
                    <path d="M23.4677911,7.49938232 C23.2329967,7.49938232 22.9922329,7.53167721 23.0001921,7.12923317 C23.0001921,7.08203294 23.1494258,6.99756938 23.2290171,7.0000536 C23.4996276,7.01247471 23.541413,7.20375984 23.4677911,7.49938232 Z" id="Shape" fill="#000000" fill-rule="nonzero"></path>
                    <path d="M16.462751,7.5 C16.1527078,7.5 16,7.36700503 16,7.12682007 C16,7.08116508 16.1712179,6.9858851 16.2313755,7.0017651 C16.5298499,7.07918008 16.5321637,7.27371004 16.462751,7.5 Z" id="Shape" fill="#000000" fill-rule="nonzero"></path>
                    <path d="M7.29872638,13.5 L7,13.2254098 C7.07722179,13.1454918 7.15037927,13.0020492 7.22963321,13 C7.34470535,13.0104336 7.44620928,13.0802207 7.49787731,13.1844262 C7.51819883,13.2479508 7.38814108,13.3647541 7.29872638,13.5 Z" id="Shape" fill="#000000" fill-rule="nonzero"></path>
                    <path d="M6.47358991,13.4958482 C6.17344144,13.5119921 5.94590955,13.4958482 6.01126445,13.170664 C6.05399614,13.076539 6.14635417,13.0114208 6.25331966,13 C6.56072978,13.0369003 6.50747763,13.2583023 6.47358991,13.4958482 Z" id="Shape" fill="#000000" fill-rule="nonzero"></path>
                    <path d="M11.0083859,7.04317792 C11.4173434,6.91691182 11.5544505,7.07072689 11.4811691,7.46329968 C11.0958508,7.57808704 10.9634715,7.41968048 11.0083859,7.04317792 Z" id="Shape" fill="#000000" fill-rule="nonzero"></path>
                    <path d="M17.3321569,7.5 C17.2029253,7.40249995 17.0918994,7.29412267 17.0016929,7.17741935 C16.9830752,7.13709677 17.1227079,7.06129032 17.190197,7 C17.3039116,7.07646001 17.406063,7.1607683 17.4950616,7.2516129 C17.5229882,7.27903226 17.4275725,7.35967742 17.3321569,7.5 Z" id="Shape" fill="#000000" fill-rule="nonzero"></path>
                    <path d="M15,7.28222997 L15.1176304,7 C15.5189576,7.06794425 15.5789261,7.16027875 15.4151661,7.5 L15,7.28222997 Z" id="Shape" fill="#000000" fill-rule="nonzero"></path>
                    <polygon id="Shape" fill="#000000" fill-rule="nonzero" points="12.4324324 7.47 12 7.325 12.0965251 7 12.5 7.22"></polygon>
                    <path d="M19.2697754,9 C19.5767612,9.22911095 19.5558304,9.38061981 19.3302423,9.48778461 C19.2558215,9.52473799 19.1116312,9.46746025 19,9.4526789 L19.2697754,9 Z" id="Shape" fill="#000000" fill-rule="nonzero"></path>
                    <path d="M12.22,7.5 L12,7.05060729 C12.119447,7.0245425 12.241648,7.00759932 12.365,7 C12.417703,7.14233872 12.4561606,7.28788358 12.48,7.43522267 L12.22,7.5 Z" id="Shape" fill="#000000" fill-rule="nonzero"></path>
                    <path d="M24.1825397,6 L24.5,6.31762333 C24.4107143,6.38197838 24.2638889,6.52522028 24.2420635,6.4961567 C24.1484608,6.39795637 24.0671255,6.28774458 24,6.16815353 L24.1825397,6 Z" id="Shape" fill="#000000" fill-rule="nonzero"></path>
                    <path d="M14.3240739,7.5 L14,7.01371206 C14.5358021,6.97498116 14.5509256,6.99219489 14.4537034,7.42038649 L14.3240739,7.5 Z" id="Shape" fill="#000000" fill-rule="nonzero"></path>
                    <path d="M6.5,12.2696922 C6.39722022,12.3679504 6.28373403,12.4454814 6.16333704,12.4996922 C6.11360274,12.4996922 5.98926699,12.3271922 6.00074413,12.3021922 C6.04192048,12.173948 6.11551891,12.0680517 6.20924563,12.0021922 C6.26280564,11.9796922 6.35844853,12.1346922 6.5,12.2696922 Z" id="Shape" fill="#000000" fill-rule="nonzero"></path>
                    <path d="M7.33160437,12.5 L7,12.0910781 L7.09898638,12 C7.21777003,12.0130112 7.42316677,12 7.44048938,12.0408922 C7.48180283,12.1755785 7.50173888,12.3134652 7.49988121,12.4516729 L7.33160437,12.5 Z" id="Shape" fill="#000000" fill-rule="nonzero"></path>
                    <polygon id="Shape" fill="#000000" fill-rule="nonzero" points="22.49 5.109375 22.305 5.5 22 5.375 22.275 5"></polygon>
                    <polygon id="Shape" fill="#000000" fill-rule="nonzero" points="24.5 9 24.3703704 9.5 24 9"></polygon>
                    <path d="M7,18 C6.70116326,17.8607338 6.41520783,17.6933739 6.1457042,17.5000098 C5.96060678,17.3284156 5.90934903,16.9970612 6.2482197,17.0000197 C6.48457487,17.0000197 6.7351683,17.2633281 6.94304695,17.4526735 C7.02847653,17.517761 6.98291408,17.7189404 7,18 Z" id="Shape" fill="#000000" fill-rule="nonzero"></path>
                    <path d="M7.5,17.1630086 C7.48263338,17.4493365 7.43698488,17.7262146 7.365625,17.9780515 C7.3296875,18.0641692 7.1265625,17.8734799 7,17.8088916 L7,17.5966729 L7.3875,17 L7.5,17.1630086 Z" id="Shape" fill="#000000" fill-rule="nonzero"></path>
                    <path d="M11.275588,19 C10.8452721,18.5680693 10.9933378,18.2692678 11.2177498,18.0148429 C11.2617068,17.9645496 11.4028319,18.0562609 11.5,18.0799283 L11.275588,19 Z" id="Shape" fill="#000000" fill-rule="nonzero"></path>
                    <path d="M9.5,17.0892256 L9.28253171,17.5 C9.18627525,17.4242424 9.0240653,17.3602694 9.00624003,17.2710438 C8.94919916,16.9545455 9.30035698,17.1717172 9.36274542,17 L9.5,17.0892256 Z" id="Shape" fill="#000000" fill-rule="nonzero"></path>
                    <path d="M4.20521246,15.5 L4,15 C4.55887647,15 4.60472181,15.087037 4.35584713,15.4592593 L4.20521246,15.5 Z" id="Shape" fill="#000000" fill-rule="nonzero"></path>
                    <path d="M10.3300094,17 C10.5800787,17.3333333 10.5554817,17.4605735 10.2480195,17.5 C10.1618082,17.4941995 10.0776426,17.4741303 10,17.4408602 C10.0173096,17.3785157 10.0434764,17.3183106 10.0778904,17.2616487 C10.1558134,17.1700638 10.2400071,17.0826877 10.3300094,17 Z" id="Shape" fill="#000000" fill-rule="nonzero"></path>
                    <path d="M12,17.397734 L12.3106061,17 C12.3768939,17.0791785 12.5,17.1638811 12.5,17.2393769 C12.4848485,17.4658643 12.3106061,17.5174224 12.1212121,17.4953261 L12,17.397734 Z" id="Shape" fill="#000000" fill-rule="nonzero"></path>
                    <path d="M7.5,16.0481745 L7.3794621,16.5 C7.08672719,16.4801395 6.95634946,16.3924225 7.01292847,16.2070582 C7.06950749,16.0216939 7.21464496,15.940597 7.5,16.0481745 Z" id="Shape" fill="#000000" fill-rule="nonzero"></path>
                    <path d="M10.2077694,18.5 L10,18.244898 C10.1241198,18.1544978 10.2525457,18.0727279 10.384631,18 C10.4018021,18 10.5065454,18.144898 10.4996769,18.1530612 C10.4072729,18.2743864 10.3098501,18.3901756 10.2077694,18.5 L10.2077694,18.5 Z" id="Shape" fill="#000000" fill-rule="nonzero"></path>
                    <path d="M10,16.1811594 L10.3694154,16 C10.4165748,16.1050725 10.5285785,16.240942 10.4932089,16.298913 C10.4342596,16.3913043 10.2790265,16.4293478 10.1473732,16.5 L10,16.1811594 Z" id="Shape" fill="#000000" fill-rule="nonzero"></path>
                    <path d="M5.33192895,15 C5.41576464,15.1520979 5.50678625,15.2395105 5.49960033,15.3251748 C5.49241442,15.4108392 5.36546323,15.4475524 5.29120876,15.5 C5.18821063,15.4213287 5.03251577,15.3531469 5.0013768,15.2604895 C4.98221436,15.2115385 5.16665288,15.1293706 5.33192895,15 Z" id="Shape" fill="#000000" fill-rule="nonzero"></path>
                    <path d="M11.5,17 C11.5,17.4146752 11.3937729,17.5506708 11.1831502,17.4837877 C11.1135531,17.4592639 11.0677656,17.3254977 11,17.2407791 L11.5,17 Z" id="Shape" fill="#000000" fill-rule="nonzero"></path>
                    <polygon id="Shape" fill="#000000" fill-rule="nonzero" points="11.5 17.2392344 11.1096654 17.5 11 17.1674641 11.4256506 17"></polygon>
                    <path d="M4.07236842,15 L4.44901316,15 L4.5,15.11 C4.42598684,15.225 4.33552632,15.45 4.27960526,15.4325 C4.17763158,15.405 4.09210526,15.23 4,15.115 L4.07236842,15 Z" id="Shape" fill="#000000" fill-rule="nonzero"></path>
                    <path d="M5.2206762,16 C5.33326651,16.1045408 5.42693434,16.2199127 5.49921744,16.3430828 C5.5135016,16.3826002 5.32780745,16.5101335 5.3040005,16.4993561 C5.17915069,16.4543816 5.07476653,16.382499 5.00403302,16.2927879 C4.97546469,16.2478818 5.10402218,16.1508846 5.2206762,16 Z" id="Shape" fill="#000000" fill-rule="nonzero"></path>
                    <path d="M8.2016129,16.5 L8,16.2045623 C8.08669355,16.1318392 8.17540323,15.9977559 8.26008065,16.0000285 C8.34475806,16.0023011 8.42137097,16.1477474 8.5,16.2272883 L8.2016129,16.5 Z" id="Shape" fill="#000000" fill-rule="nonzero"></path>
                    <path d="M8.00732995,17.4585263 C7.97434815,17.1994589 8.04737929,17 8.33479216,17 C8.38662071,17 8.50676872,17.1467284 8.49970119,17.2292631 C8.47378691,17.5020863 8.28060777,17.5479389 8.00732995,17.4585263 Z" id="Shape" fill="#000000" fill-rule="nonzero"></path>
                    <path d="M6,16 L6.5,16 C6.30769231,16.55 6.25320513,16.5525 6,16 Z" id="Shape" fill="#000000" fill-rule="nonzero"></path>
                    <polygon id="Shape" fill="#000000" fill-rule="nonzero" points="8.46153846 17.0667939 8.5 17.5 8 17.3091603 8.34162896 17"></polygon>
                    <polygon id="Shape" fill="#000000" fill-rule="nonzero" points="9.5 17.1175 9.28525641 17.4575 9 17 9.44230769 17"></polygon>
                    <path d="M3.49558768,14.1244898 L3.27558768,14.5 C3.17808768,14.4367347 2.98808768,14.3346939 3.00058768,14.3142857 C3.08299485,14.2012424 3.18023451,14.0958595 3.29058768,14 L3.49558768,14.1244898 Z" id="Shape" fill="#000000" fill-rule="nonzero"></path>
                    <path d="M9.5,16.2735888 C9.39049312,16.3571464 9.2723998,16.4170057 9.14981949,16.4510888 C9.10108303,16.4510888 9.05054152,16.3085888 9,16.2310888 C9.07581227,16.1485888 9.14440433,16.0160888 9.22563177,16.0010888 C9.30685921,15.9860888 9.36281588,16.1285888 9.5,16.2735888 Z" id="Shape" fill="#000000" fill-rule="nonzero"></path>
                    <polygon id="Shape" fill="#000000" fill-rule="nonzero" points="3 15.3272727 3.41699605 15 3.5 15.0590909 3.39920949 15.5"></polygon>
                    <path d="M21.2009781,19 L21.5639387,19 C21.7191505,19.1176204 21.8556187,19.2420544 21.9718943,19.3719807 C22.0170967,19.4538004 22.0075459,19.5415317 21.9448972,19.6199678 C21.8622767,19.7305434 21.7340847,19.8296399 21.569938,19.9098229 C21.411992,19.9567796 21.2390036,19.9873704 21.0599935,20 C21.0389958,19.9098229 21.0209977,19.8196457 21,19.7294686 C21,19.7294686 21.2009781,19.0177134 21.2009781,19 Z" id="Shape" fill="#000000" fill-rule="nonzero"></path>
                    <path d="M20.4241052,21.5 C20.0291052,21.4235282 19.9491052,21.2450941 20.0266052,21.0020837 C20.4966052,20.9867894 20.5416052,21.0462674 20.4241052,21.5 Z" id="Shape" fill="#000000" fill-rule="nonzero"></path>
                    <polygon id="Shape" fill="#000000" fill-rule="nonzero" points="22.0719844 19.4492063 22 19 22.5 19.2238095 22.1828794 19.5"></polygon>
                    <path d="M20.4025,19.0033333 L20.445,19.4533333 L20.3325,19.5 C20.215,19.4433333 20,19.385 20,19.3333333 C20.034778,19.2153812 20.1008105,19.1025052 20.195,19 L20.4025,19.0033333 Z" id="Shape" fill="#000000" fill-rule="nonzero"></path>
                    <path d="M20.1397014,20 C20.3294452,20.0959119 20.6859966,20.1163522 20.3815726,20.5 L20,20.0660377 L20.1397014,20 Z" id="Shape" fill="#000000" fill-rule="nonzero"></path>
                    <polygon id="Shape" fill="#000000" fill-rule="nonzero" points="20 20.202765 20.3098859 20 20.5 20.4170507 20.3992395 20.5 20.0551331 20.3617512"></polygon>
                    <path d="M21.05,19.4522059 C21.02861,19.4003783 21.0119069,19.3475669 21,19.2941176 C21,19.2279412 21,19.1599265 21,19 L21.46,19.1727941 L21.175,19.5 L21.05,19.4522059 Z" id="Shape" fill="#000000" fill-rule="nonzero"></path>
                    <rect id="Rectangle-2" x="0" y="0" width="35" height="35"></rect>
                </g>
            </g>
        </g>
    </g>
</svg>