<?xml version="1.0" encoding="UTF-8"?>
<svg width="34px" height="22px" viewBox="0 0 34 22" version="1.1" xmlns="http://www.w3.org/2000/svg" xmlns:xlink="http://www.w3.org/1999/xlink">
    <!-- Generator: Sketch 46.2 (44496) - http://www.bohemiancoding.com/sketch -->
    <title>Coffee Icon</title>
    <desc>Created with Sketch.</desc>
    <defs>
        <polygon id="path-1" points="33.9054725 0.121801695 33.9054725 22 2.99540819e-05 22 2.99540819e-05 0.121801695"></polygon>
    </defs>
    <g id="Page-1" stroke="none" stroke-width="1" fill="none" fill-rule="evenodd">
        <g id="Search" transform="translate(-20.000000, -294.000000)">
            <g id="Coffee-Group" transform="translate(0.000000, 271.000000)">
                <g id="Coffee-Icon" transform="translate(19.000000, 15.000000)">
                    <path d="M26.022904,13.5893115 C25.7197416,14.1899285 25.3570098,14.7946827 25.2246741,15.4386506 C24.9176627,16.9330878 24.7105445,18.4487508 24.5030597,19.960996 C24.2092451,22.102639 23.2110454,23.7033848 21.0361211,24.4158867 C18.9713544,25.092053 16.8735954,25.1787549 14.7518253,24.6885838 C12.1305888,24.08311 10.8303265,22.7406708 10.4159068,20.1367381 C10.2679914,19.2078414 10.2381151,18.2611367 10.0982645,17.3306211 C9.84862289,15.6679967 9.40909243,14.0733667 8.2158717,12.7782358 C7.90061215,12.4361053 7.92297359,12.0081725 8.33372745,11.7223443 C8.78810444,11.4062964 9.29013694,11.0781965 9.81911313,10.9583969 C11.3167793,10.6195043 12.8324079,10.3424902 14.3533519,10.123757 C14.8839777,10.047668 15.4219351,10.0197867 15.97089,10 L15.97089,10.0303996 L18.4759203,10.0303996 C20.1968342,10.1466016 21.9171983,10.3101119 23.6256484,10.5403574 C24.6570237,10.679584 25.6781347,10.9673909 26.5412493,11.596069 C27.1536227,12.0421697 27.1433584,12.5249657 26.5676432,13.0063227 C26.3634576,13.1770282 26.1378271,13.3617642 26.022904,13.5893115" id="Fill-1" fill="#FFFFFF"></path>
                    <g id="Group-5" transform="translate(1.000000, 8.000000)">
                        <mask id="mask-2" fill="white">
                            <use xlink:href="#path-1"></use>
                        </mask>
                        <g id="Clip-4"></g>
                        <path d="M25.9127264,5.23475085 C25.6035505,5.85727627 25.2338473,6.48408983 25.0991549,7.15154746 C24.786056,8.70049661 24.575144,10.2714458 24.3634846,11.8388525 C24.0640231,14.0586153 23.0466385,15.7177508 20.8299132,16.4562424 C18.7254626,17.1570729 16.5873857,17.2469373 14.4248363,16.7388864 C11.7532209,16.1113271 10.4279681,14.7199203 10.0055835,12.0210051 C9.85482527,11.0582254 9.82437473,10.0769881 9.68183626,9.11253051 C9.4273967,7.38925932 8.97941868,5.73627627 7.76326484,4.39408983 C7.44194615,4.03947966 7.46473736,3.59593729 7.88338571,3.29968305 C8.3464956,2.97210678 8.85817692,2.63203898 9.39731978,2.50786949 C10.9237703,2.15661525 12.4685286,1.86949661 14.0187044,1.64278475 C14.5595286,1.56392034 15.1078253,1.53502203 15.6675176,1.51451356 L15.6675176,1.54602203 L18.2205066,1.54602203 C19.9744956,1.66646271 21.7279242,1.83593729 23.4692099,2.07458136 C24.5204077,2.21888644 25.561144,2.51719153 26.4406604,3.16880169 C27.0649901,3.63117458 27.0545286,4.13158136 26.4677484,4.63049661 C26.2596385,4.80742881 26.0296714,4.99890339 25.9127264,5.23475085 M32.990144,12.4388186 C32.5714956,12.0060898 32.0676604,11.633022 31.548133,11.3240898 C30.0612868,10.4396153 28.4111659,9.97631017 26.7361989,9.60659831 C26.3381,9.51878475 26.1968692,9.35303898 26.3136275,8.96747966 C26.3438912,8.8677339 26.3545396,8.76239492 26.380133,8.66115763 C26.6913637,7.42449661 27.0633088,6.24712373 27.9910231,5.26793729 C29.0541769,4.14593729 28.4875725,2.37792034 26.9812978,1.84768305 C25.0640341,1.17295424 23.0918473,0.721022034 21.0759462,0.480327119 C20.2293088,0.379276271 19.3783747,0.308615254 18.4996055,0.236649153 L18.4996055,0.185191525 L17.8735945,0.185191525 C17.6294297,0.164869492 17.3839571,0.143988136 17.1343747,0.121801695 C17.1364297,0.144174576 17.1386714,0.164123729 17.1409132,0.185191525 L16.1504297,0.185191525 C16.0777593,0.174937288 15.9974297,0.174937288 15.9079462,0.184072881 C15.9042099,0.184445763 15.9004736,0.184632203 15.8967374,0.185191525 L15.6675176,0.185191525 L15.6675176,0.204394915 C15.2428912,0.237394915 14.8162099,0.248767797 14.3915835,0.284191525 C11.9738473,0.486666102 9.62205604,0.960971186 7.41747363,2.01659831 C6.49835275,2.45659831 6.01207802,3.37034407 6.21850659,4.33349661 C6.28706703,4.6547339 6.20860549,4.83595424 5.98760549,5.0507339 C5.27977033,5.7387 4.82768242,6.56202203 4.69784725,7.55892034 C4.58034176,8.46483559 4.87027582,9.27268305 5.24894615,10.0911576 C5.08436374,10.1506322 4.93323187,10.1927678 4.79293516,10.258022 C3.81515495,10.7146153 2.77124286,11.072022 1.87603407,11.6557678 C-0.439515385,13.1661237 -0.608207692,15.3674288 1.35164945,17.3125644 C1.46317692,17.4233102 1.57507802,17.5340559 1.6937044,17.6369712 C2.78805604,18.5846492 4.03615495,19.2847339 5.37018791,19.8216831 C11.4464736,22.2674119 17.6918253,22.5496831 24.0453418,21.1871746 C26.6030011,20.6384797 29.0545505,19.7819712 31.2617484,18.3350051 C32.0997923,17.7855644 32.8623637,17.1499881 33.3873088,16.275022 C34.1857484,14.9443949 34.0678692,13.5528017 32.990144,12.4388186" id="Fill-3" fill="#000000" mask="url(#mask-2)"></path>
                    </g>
                    <path d="M25,13.4155725 C22.0556728,11.454509 13.2590668,11.6017561 11,13.4202061 C15.7138411,14.1561841 20.3507632,14.2310948 25,13.4155725" id="Fill-6" fill="#000000"></path>
                    <path d="M25,13.4155725 C20.3507632,14.2310948 15.7138411,14.1561841 11,13.4202061 C13.2590668,11.6017561 22.0556728,11.454509 25,13.4155725" id="Fill-8" fill="#000000"></path>
                    <path d="M27.1447178,19 C29.2738904,19.4465139 31.3923896,19.8514452 33.1556136,21.1434121 C34.2220106,21.9247661 34.2767123,22.8862509 33.3288674,23.8039741 C32.1143756,24.9799091 30.5867309,25.6855427 28.9904709,26.2488149 C24.9009956,27.6920409 20.6695247,28.1944825 16.3257915,27.9342733 C13.043309,27.7374367 9.84488043,27.1639959 6.86030303,25.8179171 C5.77961116,25.3307285 4.75038081,24.6724882 3.83550939,23.9367117 C2.63664664,22.9725031 2.75233975,21.905155 4.02591701,21.0172115 C5.40813525,20.0531845 7.02974484,19.6317291 8.6650775,19.2674726 C8.80707317,19.2356954 9.02645171,19.3691593 9.15987046,19.48047 C9.62797967,19.8719642 10.0634966,20.2986855 10.5316058,20.6903612 C11.0214432,21.1001952 11.3805302,21.5648675 11.6153472,22.1639116 C12.2290735,23.7293433 13.4389909,24.7443953 15.1006261,25.2304944 C17.5256072,25.9399413 19.9816558,25.9646366 22.4378949,25.3699506 C24.8401948,24.7881569 26.2601515,23.3018956 26.7639026,21.0070429 C26.9053264,20.3627845 27.0109178,19.7114443 27.1447178,19" id="Fill-10" fill="#FFFFFF"></path>
                    <path d="M9.88845104,21 C9.08684376,20.0310236 8.19879811,19.1355381 7.5045547,18.0748819 C6.56435629,16.637769 6.98463673,14.8499213 8.37907927,14 C8.39308325,14.205958 8.46439088,14.4124672 8.40773109,14.5500787 C7.91469433,15.7435696 8.28877772,16.7540682 8.88418843,17.7269029 C8.91010384,17.7691601 8.93279995,17.8198688 8.96853425,17.8472441 C9.93738449,18.5880315 9.92998009,19.7598425 10,20.8974803 C9.96281701,20.9316535 9.92547306,20.9658268 9.88845104,21" id="Fill-12" fill="#FFFFFF"></path>
                    <rect id="Rectangle-2" x="0" y="0" width="35" height="35"></rect>
                </g>
            </g>
        </g>
    </g>
</svg>