<?xml version="1.0" encoding="UTF-8"?>
<svg width="22px" height="33px" viewBox="0 0 22 33" version="1.1" xmlns="http://www.w3.org/2000/svg" xmlns:xlink="http://www.w3.org/1999/xlink">
    <!-- Generator: Sketch 46.2 (44496) - http://www.bohemiancoding.com/sketch -->
    <title>Ice Cream Cone Copy 2</title>
    <desc>Created with Sketch.</desc>
    <defs>
        <path d="M12.7747402,18.3121766 C12.7567244,18.7539951 12.7567244,18.7539951 13.4842835,19.0384631 C13.2528504,19.1820713 12.8759055,19.2817038 12.7913701,19.4953983 C12.5107402,20.1969485 12.8128504,20.5776133 13.5882205,20.6305216 C13.8840945,20.6504481 14.1792756,20.6758715 14.4751496,20.695798 C18.2730079,20.9534683 22.0334488,20.6298345 25.7696378,19.9626403 C25.9463307,19.9310328 26.1874646,19.7647496 26.2380472,19.6094603 C26.4493858,18.9532601 26.599748,18.2771334 26.8,17.5 C22.1152126,18.73613 17.4671496,18.9615056 12.7747402,18.3121766 Z M10.1853228,18.2572069 C10.1790866,17.5755833 9.63722835,17.7315597 9.2,17.5501598 C9.26859843,18.3059925 9.70582677,18.2846918 10.1853228,18.2572069 Z M12.0485669,18.6358104 C11.9848189,17.8394376 11.2974488,18.1541388 10.8068661,17.9026527 C10.9496063,18.6591725 11.2337008,18.8014065 12.0485669,18.6358104 Z M10.879622,20.1921386 C10.5989921,19.1037395 10.424378,18.9436404 9.44251969,18.833014 C9.41341732,19.9241616 9.41341732,19.9241616 10.879622,20.1921386 Z M11.160252,19.2638387 C10.9565354,20.348115 11.0119685,20.3955263 12.6340787,20.4683611 C12.3742362,19.4617294 12.2599055,19.2459735 11.5912441,19.2459735 C11.4679055,19.2452864 11.3258583,19.2528447 11.160252,19.2638387 Z M18.176,22.7873932 C20.3080945,22.4287163 22.408315,22.0755363 24.575748,21.7113623 C24.536252,21.8797069 24.5133858,22.0219409 24.4683465,22.1573036 C23.6569449,24.6481159 22.8337638,27.1341183 22.032063,29.626992 C21.615622,30.9242757 20.743937,31.6004024 19.376126,31.6670531 C18.7850709,31.6959122 18.1933228,31.7364523 17.6029606,31.7866121 C16.2794961,31.8986128 15.3412913,31.3035663 14.7911181,30.1636332 C14.4841575,29.5266724 14.3476535,28.8072571 14.1238425,28.0905902 C14.8846614,28.123572 15.495811,28.1496826 16.1797165,28.1799159 C16.2469291,28.3132173 16.3425512,28.5042369 16.4367874,28.6945693 C16.4118425,28.3255855 16.8352126,28.0631054 16.5982362,27.6192255 C16.4069921,27.2591743 16.4014488,26.8022391 16.2982047,26.3171319 C16.727811,26.1797078 17.1241575,26.0532776 17.5205039,25.9261603 C17.5211969,25.8883686 17.5211969,25.8512641 17.5218898,25.8134725 C17.399937,25.8031657 17.2655118,25.805227 17.1324724,25.8072884 C16.8262047,25.8114111 16.519937,25.8169081 16.3487874,25.6678029 C16.1104252,25.4609796 16.1561575,24.9298354 16.0452913,24.3801389 C16.648126,24.3801389 17.2509606,24.2069845 17.5911811,24.4289244 C17.9237795,24.6474288 17.9889134,25.2678987 18.2840945,25.7062817 C18.2840945,25.4328077 18.3374488,25.1455912 18.2730079,24.8872339 C18.1392756,24.3471571 18.3741732,24.1547633 18.871685,24.0874255 C19.1308346,24.0537566 19.3802835,23.9396945 19.6165669,23.7637917 C19.1779528,23.7857795 18.7386457,23.8077674 18.255685,23.8318166 C18.2272756,23.4614586 18.2023307,23.1316407 18.176,22.7873932 Z M16.6834646,22.8643507 C16.768,22.8574795 16.8532283,22.8554182 16.9412283,22.8554182 C17.0811969,22.8554182 17.2280945,22.8609151 17.3888504,22.8609151 C17.4519055,23.1721808 17.5108031,23.4690169 17.5710866,23.7644788 C16.2684094,24.1169717 15.903937,23.9486271 15.9004724,22.97429 C16.1561575,22.9364984 16.4187717,22.8870257 16.6834646,22.8643507 Z M12.6569449,23.1742422 C13.3062047,23.1213339 13.8445984,23.0388794 14.3608189,23.0388794 C14.4515906,23.0388794 14.5423622,23.0416279 14.6324409,23.0471248 C14.8112126,23.0601801 14.9636535,23.4710783 15.1285669,23.6992023 C15.0821417,23.7534848 15.0357165,23.8084545 14.9892913,23.8634241 C14.3622047,23.833878 13.7302677,23.8359393 13.1101102,23.7521106 C12.959748,23.7321841 12.8488819,23.4305381 12.6569449,23.1742422 Z M13.6381102,25.5228205 C13.3540157,25.4163168 13.240378,24.8618104 12.9930079,24.4055623 C13.5819843,24.4426668 13.9409134,24.47771 14.3012283,24.4838941 C15.3662362,24.5045077 15.4223622,24.5553546 15.4944252,25.7701839 C14.8617953,25.7014718 14.2035276,25.7351407 13.6381102,25.5228205 Z M13.8272756,26.9685223 C13.7268031,26.7500179 13.7025512,26.4978446 13.6214803,26.1687139 C14.0885039,26.2243706 14.4439685,26.2738433 14.8015118,26.3081993 C15.8907717,26.4126417 15.8914646,26.4105803 16.0224252,27.6549558 C15.4355276,27.6549558 14.8458583,27.7092383 14.2783622,27.6240353 C14.096126,27.5965505 13.9409134,27.2131372 13.8272756,26.9685223 Z" id="path-1"></path>
        <linearGradient x1="94.0867457%" y1="72.2738199%" x2="0%" y2="40.310861%" id="linearGradient-3">
            <stop stop-color="#FFDF42" offset="0%"></stop>
            <stop stop-color="#C56E05" offset="76.4907607%"></stop>
            <stop stop-color="#C36B04" offset="100%"></stop>
        </linearGradient>
    </defs>
    <g id="Page-1" stroke="none" stroke-width="1" fill="none" fill-rule="evenodd">
        <g id="Search" transform="translate(-28.000000, -81.000000)">
            <g id="Ice-Cream-Group" transform="translate(0.000000, 67.000000)">
                <g id="Ice-Cream-Cone-Copy-2" transform="translate(21.000000, 13.000000)">
                    <path d="M9.27206481,14.3833516 C8.68810237,14.6183599 8.14166087,14.8116188 7.61977855,15.0547076 C7.12450199,15.2850023 6.90756267,15.6418917 7.0364983,16.238503 C7.34075911,17.6451858 7.63274033,19.0586024 7.81761629,20.4834664 C7.92608595,21.32586 8.36542218,21.7729818 9.11515901,21.9635472 C9.56813923,22.0786946 9.75779058,22.3406379 9.91810738,22.734563 C11.11946,25.6920312 12.339232,28.6420922 13.5521821,31.5948467 C14.0099377,32.7079376 14.7774117,33.5112754 15.9849041,33.7887063 C17.4100181,34.1166405 18.8426362,34.0533432 20.2486486,33.6648051 C21.5250432,33.311956 22.3689235,32.4944773 22.8273613,31.2574853 C23.8376982,28.5356988 24.8835094,25.8273798 25.8842955,23.1022264 C26.0616673,22.6173955 26.3011192,22.3116827 26.8298235,22.2349178 C27.4936033,22.1379517 27.7801269,21.7406597 27.8988295,21.0814244 C28.1178154,19.8632869 28.4336736,18.6619838 28.7208795,17.4566405 C29.2079696,15.4136171 29.2120628,15.4142905 27.4533535,14.3692107 C27.4663153,14.291099 27.4649509,14.2001933 27.496332,14.1207349 C28.01685,12.7840832 27.8401604,11.6110618 26.7077099,10.628606 C26.5787742,10.5168256 26.5139653,10.2313141 26.5508041,10.0528694 C26.8816706,8.44484705 26.327725,7.1768797 25.0472372,6.19711736 C24.7368366,5.95941557 24.6699811,5.7520157 24.7600314,5.37088479 C24.9599157,4.52108405 24.7491162,3.71168588 24.1515098,3.08140577 C22.8560136,1.71849238 21.1355075,1.29359201 19.3092604,1 C19.2103416,2.37503416 18.4148974,3.26860435 17.3888699,3.89417082 C16.3116775,4.55138597 15.1239688,5.0368902 13.9717345,5.56953076 C12.6462216,6.18230308 11.1863155,6.88665457 10.8227034,8.28054326 C10.5034342,9.50406778 9.89491261,10.4582418 9.29457738,11.4905275 C8.75768668,12.4137263 8.94119824,13.4163834 9.27206481,14.3833516" id="Fill-2" fill="#2D2D2D"></path>
                    <rect id="Rectangle-2" x="0" y="0" width="35" height="35"></rect>
                    <path d="M20.70492,17.5 C22.6329839,17.161302 24.5624279,16.827845 26.4870414,16.4714587 C26.616085,16.4478743 26.8162062,16.2343046 26.7989543,16.1393119 C26.7596202,15.9270524 26.634717,15.7082417 26.4801406,15.5470817 C26.427005,15.4920515 26.1758184,15.5811481 26.0288329,15.6381437 C25.0937841,16.0030465 24.1828877,16.435427 23.2243764,16.7315421 C22.3955988,16.9876947 21.5150657,17.091204 20.6579951,17.2628459 C20.6731767,17.3421156 20.6897384,17.4207303 20.70492,17.5 M17.3684173,6.41730346 C15.5452445,6.46578248 13.8062607,7.68496427 13.6986093,8.90480117 C14.8931256,8.09572567 16.0710801,7.29713212 17.3684173,6.41730346 M12.3840203,9.43151915 C12.6207154,8.58575683 13.1575921,7.99876764 13.818682,7.55525014 C14.5522296,7.06194338 15.3375326,6.61187466 16.1573393,6.26400495 C18.2613717,5.36976361 19.5290357,4.58885835 20.8187821,3.2 C21.3839518,3.66841213 22.0119182,4.08965549 22.5046303,4.62226956 C23.0794611,5.24332509 23.0283957,5.91875573 22.3652356,6.44874931 C21.8380198,6.87064779 21.2162641,7.21786238 20.5841573,7.48580722 C18.1233571,8.52941635 15.5003898,9.02141286 12.8574104,9.42889866 C12.7283667,9.44855232 12.5931124,9.43151915 12.3840203,9.43151915 M15.1450022,10.8649258 C13.4481128,10.7594512 11.5904364,12.0795217 11.4075671,13.4775518 C12.645558,12.6127909 13.8711276,11.7558915 15.1450022,10.8649258 M24.2677667,7.54018233 C24.8591592,8.86090801 24.5141228,10.1056395 23.3347881,10.9120946 C22.2210103,11.6740013 20.9367846,11.9825637 19.5925224,12.15093 C17.1613954,12.4562168 14.7661522,12.9161123 12.4978824,13.8404893 C12.0031001,14.0422668 11.5352306,14.3043156 11.0535597,14.5395043 C10.6105328,13.3045996 11.2598915,11.7604774 12.6214054,11.210175 C13.6710064,10.785656 14.8130771,10.5452263 15.9337556,10.3080722 C18.8106698,9.69815375 21.6710222,9.06006505 24.2677667,7.54018233 M11.548342,16.8134323 C12.9374588,16.2107202 14.3044934,15.6165246 15.8123028,14.9620579 C13.6427134,14.8650999 12.1107514,15.5536329 11.548342,16.8134323 M10.3,16.7007513 C11.0480391,16.2434763 11.7650249,15.7305159 12.5489478,15.338753 C14.7861643,14.22046 17.2200516,13.7002932 19.7050043,13.4113845 C21.7565912,13.1729201 23.7060473,12.6874748 25.4629731,11.6183159 C25.9149709,12.6907504 25.5602734,14.00558 24.4416651,14.6652877 C23.6128875,15.1540086 22.6571364,15.5562534 21.7041457,15.7265851 C19.5559486,16.1098314 17.4719282,16.6489967 15.4162009,17.3499771 C14.7896147,17.5635468 14.026394,17.5026205 13.3377012,17.4430044 C12.3412358,17.3565283 11.3565017,17.156061 10.3669371,17.0047279 C10.3448547,16.903184 10.3227724,16.8022952 10.3,16.7007513" id="Fill-4" fill="#FFFFFF"></path>
                    <mask id="mask-2" fill="white">
                        <use xlink:href="#path-1"></use>
                    </mask>
                    <g id="Clip-8"></g>
                    <path d="M12.7747402,18.3121766 C12.7567244,18.7539951 12.7567244,18.7539951 13.4842835,19.0384631 L13.4842835,19.0384631 C13.2528504,19.1820713 12.8759055,19.2817038 12.7913701,19.4953983 L12.7913701,19.4953983 C12.5107402,20.1969485 12.8128504,20.5776133 13.5882205,20.6305216 L13.5882205,20.6305216 C13.8840945,20.6504481 14.1792756,20.6758715 14.4751496,20.695798 L14.4751496,20.695798 C18.2730079,20.9534683 22.0334488,20.6298345 25.7696378,19.9626403 L25.7696378,19.9626403 C25.9463307,19.9310328 26.1874646,19.7647496 26.2380472,19.6094603 L26.2380472,19.6094603 C26.4493858,18.9532601 26.599748,18.2771334 26.8,17.5 L26.8,17.5 C22.1152126,18.73613 17.4671496,18.9615056 12.7747402,18.3121766 M10.1853228,18.2572069 C10.1790866,17.5755833 9.63722835,17.7315597 9.2,17.5501598 L9.2,17.5501598 C9.26859843,18.3059925 9.70582677,18.2846918 10.1853228,18.2572069 M12.0485669,18.6358104 C11.9848189,17.8394376 11.2974488,18.1541388 10.8068661,17.9026527 L10.8068661,17.9026527 C10.9496063,18.6591725 11.2337008,18.8014065 12.0485669,18.6358104 M10.879622,20.1921386 C10.5989921,19.1037395 10.424378,18.9436404 9.44251969,18.833014 L9.44251969,18.833014 C9.41341732,19.9241616 9.41341732,19.9241616 10.879622,20.1921386 M11.160252,19.2638387 C10.9565354,20.348115 11.0119685,20.3955263 12.6340787,20.4683611 L12.6340787,20.4683611 C12.3742362,19.4617294 12.2599055,19.2459735 11.5912441,19.2459735 L11.5912441,19.2459735 C11.4679055,19.2452864 11.3258583,19.2528447 11.160252,19.2638387 M18.176,22.7873932 C18.2023307,23.1316407 18.2272756,23.4614586 18.255685,23.8318166 L18.255685,23.8318166 C18.7386457,23.8077674 19.1779528,23.7857795 19.6165669,23.7637917 L19.6165669,23.7637917 C19.3802835,23.9396945 19.1308346,24.0537566 18.871685,24.0874255 L18.871685,24.0874255 C18.3741732,24.1547633 18.1392756,24.3471571 18.2730079,24.8872339 L18.2730079,24.8872339 C18.3374488,25.1455912 18.2840945,25.4328077 18.2840945,25.7062817 L18.2840945,25.7062817 C17.9889134,25.2678987 17.9237795,24.6474288 17.5911811,24.4289244 L17.5911811,24.4289244 C17.2509606,24.2069845 16.648126,24.3801389 16.0452913,24.3801389 L16.0452913,24.3801389 C16.1561575,24.9298354 16.1104252,25.4609796 16.3487874,25.6678029 L16.3487874,25.6678029 C16.519937,25.8169081 16.8262047,25.8114111 17.1324724,25.8072884 L17.1324724,25.8072884 C17.2655118,25.805227 17.399937,25.8031657 17.5218898,25.8134725 L17.5218898,25.8134725 C17.5211969,25.8512641 17.5211969,25.8883686 17.5205039,25.9261603 L17.5205039,25.9261603 C17.1241575,26.0532776 16.727811,26.1797078 16.2982047,26.3171319 L16.2982047,26.3171319 C16.4014488,26.8022391 16.4069921,27.2591743 16.5982362,27.6192255 L16.5982362,27.6192255 C16.8352126,28.0631054 16.4118425,28.3255855 16.4367874,28.6945693 L16.4367874,28.6945693 C16.3425512,28.5042369 16.2469291,28.3132173 16.1797165,28.1799159 L16.1797165,28.1799159 C15.495811,28.1496826 14.8846614,28.123572 14.1238425,28.0905902 L14.1238425,28.0905902 C14.3476535,28.8072571 14.4841575,29.5266724 14.7911181,30.1636332 L14.7911181,30.1636332 C15.3412913,31.3035663 16.2794961,31.8986128 17.6029606,31.7866121 L17.6029606,31.7866121 C18.1933228,31.7364523 18.7850709,31.6959122 19.376126,31.6670531 L19.376126,31.6670531 C20.743937,31.6004024 21.615622,30.9242757 22.032063,29.626992 L22.032063,29.626992 C22.8337638,27.1341183 23.6569449,24.6481159 24.4683465,22.1573036 L24.4683465,22.1573036 C24.5133858,22.0219409 24.536252,21.8797069 24.575748,21.7113623 L24.575748,21.7113623 C22.408315,22.0755363 20.3080945,22.4287163 18.176,22.7873932 M16.6834646,22.8643507 C16.4187717,22.8870257 16.1561575,22.9364984 15.9004724,22.97429 L15.9004724,22.97429 C15.903937,23.9486271 16.2684094,24.1169717 17.5710866,23.7644788 L17.5710866,23.7644788 C17.5108031,23.4690169 17.4519055,23.1721808 17.3888504,22.8609151 L17.3888504,22.8609151 C17.2280945,22.8609151 17.0811969,22.8554182 16.9412283,22.8554182 L16.9412283,22.8554182 C16.8532283,22.8554182 16.768,22.8574795 16.6834646,22.8643507 M12.6569449,23.1742422 C12.8488819,23.4305381 12.959748,23.7321841 13.1101102,23.7521106 L13.1101102,23.7521106 C13.7302677,23.8359393 14.3622047,23.833878 14.9892913,23.8634241 L14.9892913,23.8634241 C15.0357165,23.8084545 15.0821417,23.7534848 15.1285669,23.6992023 L15.1285669,23.6992023 C14.9636535,23.4710783 14.8112126,23.0601801 14.6324409,23.0471248 L14.6324409,23.0471248 C14.5423622,23.0416279 14.4515906,23.0388794 14.3608189,23.0388794 L14.3608189,23.0388794 C13.8445984,23.0388794 13.3062047,23.1213339 12.6569449,23.1742422 M13.6381102,25.5228205 C14.2035276,25.7351407 14.8617953,25.7014718 15.4944252,25.7701839 L15.4944252,25.7701839 C15.4223622,24.5553546 15.3662362,24.5045077 14.3012283,24.4838941 L14.3012283,24.4838941 C13.9409134,24.47771 13.5819843,24.4426668 12.9930079,24.4055623 L12.9930079,24.4055623 C13.240378,24.8618104 13.3540157,25.4163168 13.6381102,25.5228205 M13.8272756,26.9685223 C13.9409134,27.2131372 14.096126,27.5965505 14.2783622,27.6240353 L14.2783622,27.6240353 C14.8458583,27.7092383 15.4355276,27.6549558 16.0224252,27.6549558 L16.0224252,27.6549558 C15.8914646,26.4105803 15.8907717,26.4126417 14.8015118,26.3081993 L14.8015118,26.3081993 C14.4439685,26.2738433 14.0885039,26.2243706 13.6214803,26.1687139 L13.6214803,26.1687139 C13.7025512,26.4978446 13.7268031,26.7500179 13.8272756,26.9685223" id="Fill-7" fill="url(#linearGradient-3)" mask="url(#mask-2)"></path>
                </g>
            </g>
        </g>
    </g>
</svg>