<?xml version="1.0" encoding="UTF-8"?>
<svg width="95px" height="147px" viewBox="0 0 95 147" version="1.1" xmlns="http://www.w3.org/2000/svg" xmlns:xlink="http://www.w3.org/1999/xlink">
    <!-- Generator: Sketch 46.2 (44496) - http://www.bohemiancoding.com/sketch -->
    <title>Ice Cream Cone Copy</title>
    <desc>Created with Sketch.</desc>
    <defs>
        <path d="M25.2332677,79.521325 C25.1564961,81.436902 25.1564961,81.436902 28.2568898,82.6702595 C27.2706693,83.2928965 25.6643701,83.7248696 25.3041339,84.6513773 C24.1082677,87.6930633 25.3956693,89.3434982 28.6998031,89.5728908 C29.9606299,89.6592854 31.2185039,89.769513 32.4793307,89.8559076 C48.6633858,90.9730793 64.6879921,89.5699117 80.609252,86.6771819 C81.3622047,86.5401421 82.3897638,85.819194 82.605315,85.1459119 C83.5059055,82.3008481 84.1466535,79.3693897 85,76 C65.0364173,81.3594448 45.2293307,82.3365976 25.2332677,79.521325 Z M14.1988189,79.2829951 C14.1722441,76.3277037 11.863189,77.0039649 10,76.2174761 C10.2923228,79.4945129 12.1555118,79.4021601 14.1988189,79.2829951 Z M22.1387795,80.9244926 C21.867126,77.4716875 18.9379921,78.8361264 16.8474409,77.7457669 C17.4557087,81.0257829 18.6663386,81.6424616 22.1387795,80.9244926 Z M17.1574803,87.6722094 C15.9616142,82.9532764 15.2175197,82.2591404 11.0334646,81.7795013 C10.9094488,86.5103509 10.9094488,86.5103509 17.1574803,87.6722094 Z M18.3533465,83.6474123 C17.4852362,88.3484707 17.7214567,88.5540302 24.6338583,88.8698174 C23.5265748,84.5054002 23.0393701,83.5699551 20.1899606,83.5699551 C19.6643701,83.566976 19.0590551,83.5997464 18.3533465,83.6474123 Z M48.25,98.9243623 C57.3356299,97.3692593 66.2854331,95.8379894 75.5216535,94.2590535 C75.3533465,94.988939 75.2559055,95.6056177 75.0639764,96.1925052 C71.6062992,106.991831 68.0984252,117.770303 64.6820866,128.578567 C62.9074803,134.203153 59.1929134,137.134612 53.3641732,137.423587 C50.8454724,137.54871 48.3238189,137.724479 45.8080709,137.941955 C40.1683071,138.427552 36.1702756,135.84763 33.8257874,130.905263 C32.5177165,128.143614 31.9360236,125.024471 30.9822835,121.917244 C34.2244094,122.060242 36.8287402,122.173449 39.7431102,122.304531 C40.0295276,122.882481 40.4370079,123.710677 40.8385827,124.535895 C40.7322835,122.936105 42.5364173,121.798079 41.5265748,119.873565 C40.7116142,118.312504 40.6879921,116.331386 40.2480315,114.228124 C42.0787402,113.632299 43.7677165,113.084141 45.4566929,112.533003 C45.4596457,112.369151 45.4596457,112.208278 45.4625984,112.044426 C44.9429134,111.999739 44.3700787,112.008677 43.8031496,112.017614 C42.4980315,112.035489 41.1929134,112.059322 40.4635827,111.412852 C39.4478346,110.516135 39.6427165,108.213272 39.1702756,105.829973 C41.7391732,105.829973 44.3080709,105.079233 45.757874,106.04149 C47.1751969,106.988852 47.4527559,109.679001 48.7106299,111.579683 C48.7106299,110.393991 48.9379921,109.148717 48.6633858,108.028566 C48.0935039,105.686975 49.0944882,104.85282 51.2145669,104.560866 C52.3188976,104.414889 53.3818898,103.920354 54.3887795,103.157698 C52.519685,103.25303 50.6476378,103.348362 48.5895669,103.452631 C48.4685039,101.846883 48.3622047,100.416904 48.25,98.9243623 Z M41.8897638,99.2580242 C42.25,99.228233 42.613189,99.2192956 42.988189,99.2192956 C43.5846457,99.2192956 44.2106299,99.2431286 44.8956693,99.2431286 C45.1643701,100.592672 45.4153543,101.879654 45.6722441,103.160677 C40.121063,104.688968 38.5679134,103.959083 38.5531496,99.7346841 C39.6427165,99.5708323 40.761811,99.3563353 41.8897638,99.2580242 Z M24.7312992,100.601609 C27.4980315,100.372217 29.7923228,100.014722 31.992126,100.014722 C32.378937,100.014722 32.765748,100.026638 33.1496063,100.050471 C33.9114173,100.107075 34.5610236,101.888591 35.2637795,102.87766 C35.0659449,103.113011 34.8681102,103.351341 34.6702756,103.589671 C31.9980315,103.461569 29.3051181,103.470506 26.6624016,103.107053 C26.0216535,103.020658 25.5492126,101.712823 24.7312992,100.601609 Z M28.9124016,110.784257 C27.7017717,110.322492 27.2175197,107.918339 26.1633858,105.9402 C28.6732283,106.101073 30.2027559,106.253008 31.738189,106.27982 C36.2765748,106.369194 36.515748,106.589649 36.8228346,111.856741 C34.1269685,111.558829 31.3218504,111.704806 28.9124016,110.784257 Z M29.7185039,117.052334 C29.2903543,116.104973 29.1870079,115.011634 28.8415354,113.584633 C30.8316929,113.825943 32.3464567,114.04044 33.8700787,114.189396 C38.511811,114.642223 38.5147638,114.633285 39.0728346,120.02848 C36.5718504,120.02848 34.0590551,120.26383 31.640748,119.894419 C30.8641732,119.775254 30.2027559,118.112903 29.7185039,117.052334 Z" id="path-1"></path>
        <linearGradient x1="94.0867457%" y1="72.2738199%" x2="0%" y2="40.310861%" id="linearGradient-3">
            <stop stop-color="#FFDF42" offset="0%"></stop>
            <stop stop-color="#C56E05" offset="76.4907607%"></stop>
            <stop stop-color="#C36B04" offset="100%"></stop>
        </linearGradient>
    </defs>
    <g id="Page-1" stroke="none" stroke-width="1" fill="none" fill-rule="evenodd">
        <g id="Sign-In" transform="translate(-140.000000, -176.000000)">
            <g id="Ice-Cream-Cone-Copy" transform="translate(140.000000, 176.000000)">
                <path d="M9.81118896,59.616748 C7.28953295,60.6636031 4.92989923,61.5244839 2.67631646,62.607334 C0.537622224,63.633192 -0.399161201,65.222972 0.157606306,67.8806041 C1.47145979,74.1467367 2.7322878,80.4428652 3.53061581,86.7899867 C3.99900752,90.5424673 5.89614125,92.5341916 9.1336412,93.3830741 C11.0896921,93.8960031 11.9086412,95.0628416 12.6009182,96.8175987 C17.7885774,109.991775 23.0557747,123.132956 28.2935135,136.286136 C30.2701855,141.244449 33.5842778,144.822954 38.7984497,146.058783 C44.9523508,147.519581 51.1386565,147.23762 57.2100736,145.506859 C62.7217773,143.935077 66.3658059,140.293581 68.3454237,134.783344 C72.7082421,122.659022 77.2242453,110.594692 81.5458216,98.455372 C82.3117452,96.2956709 83.345742,94.9338594 85.6287833,94.5919068 C88.495105,94.1599665 89.7323661,92.3902115 90.2449457,89.453618 C91.1905667,84.0273691 92.5544998,78.6761098 93.7947068,73.306853 C95.8980507,64.2061127 95.9157259,64.2091123 88.3212992,59.5537567 C88.3772706,59.2058048 88.3713788,58.8008609 88.5068884,58.4469099 C90.7545794,52.492734 89.9916017,47.2674573 85.1014744,42.8910631 C84.5447069,42.393132 84.2648502,41.1213081 84.4239267,40.3264181 C85.8526687,33.1634096 83.4606305,27.5151914 77.9312516,23.1507955 C76.5908854,22.0919421 76.3021911,21.16807 76.6910446,19.470305 C77.5541816,15.6848289 76.6439109,12.079328 74.0633377,9.27171663 C68.4691498,3.20055698 61.0396914,1.30781897 53.1536246,0 C52.7264749,6.12515217 49.2916024,10.1056012 44.8610292,12.8922155 C40.2095165,15.8198102 35.0807746,17.9825109 30.1052173,20.3551825 C24.3814117,23.0848046 18.0772716,26.2223703 16.5071283,32.4315109 C15.1284659,37.8817565 12.500759,42.1321681 9.90840234,46.7305316 C7.59001065,50.8429624 8.38244694,55.3093442 9.81118896,59.616748" id="Fill-2" fill="#2D2D2D"></path>
                <path d="M59.142085,74 C67.3217498,72.4604636 75.5072698,70.9447499 83.6722966,69.3248122 C84.2197545,69.2176104 85.0687534,68.2468389 84.9955638,67.8150541 C84.8286916,66.8502382 84.2987992,65.8556441 83.6430208,65.1230988 C83.417597,64.8729613 82.3519571,65.2779458 81.728382,65.5370167 C77.7615081,67.1956661 73.8970995,69.1610317 69.8306878,70.5070093 C66.3146615,71.6713396 62.5790666,72.1418362 58.9430095,72.9220268 C59.0074163,73.2823438 59.0776782,73.639683 59.142085,74 M44.9872249,23.6241067 C37.2525526,23.8444658 29.8750454,29.3862012 29.4183425,34.9309144 C34.4859874,31.2532985 39.4833703,27.6233278 44.9872249,23.6241067 M23.8412984,37.325087 C24.8454591,33.4807128 27.1231181,30.8125802 29.9277419,28.7965915 C33.0397618,26.5542881 36.3713504,24.5085212 39.8493181,22.9272952 C48.7755163,18.8625618 54.1534849,15.3129925 59.6251361,9 C62.022826,11.1291461 64.6869258,13.0438886 66.7772195,15.4648616 C69.2158955,18.2878413 68.9992545,21.3579806 66.1858479,23.7670423 C63.9491751,25.6847627 61.3114235,27.2630108 58.6297582,28.4809419 C48.1899999,33.2246198 37.0622598,35.4609676 25.8496198,37.3131757 C25.3021619,37.4025105 24.7283558,37.325087 23.8412984,37.325087 M35.5545549,43.8405717 C28.3556302,43.3611417 20.4745788,49.3614623 19.6987695,55.7161444 C24.950852,51.7854132 30.1502381,47.890416 35.5545549,43.8405717 M74.2571922,28.7281015 C76.7661301,34.7314 75.302339,40.3892707 70.299101,44.0549753 C65.5739832,47.5181876 60.1257527,48.920744 54.4228225,49.6860454 C44.1089502,51.0737127 33.9473123,53.164147 24.3243494,57.3658604 C22.225273,58.283031 20.2403722,59.4741616 18.1969198,60.5432014 C16.317412,54.9299982 19.0722669,47.9112608 24.8483867,45.4098864 C29.3012393,43.4802547 34.1463879,42.3873923 38.9007814,41.3094191 C51.1058718,38.5370625 63.2407002,35.6366593 74.2571922,28.7281015 M20.2959963,70.8792377 C26.1892193,68.1396372 31.9887597,65.4387484 38.3855269,62.4638996 C29.1812084,62.0231812 22.6819758,65.152877 20.2959963,70.8792377 M15,70.3670515 C18.1734992,68.2885285 21.2152571,65.9568902 24.5409905,64.1761499 C34.0322122,59.0929998 44.3577947,56.7286055 54.9000184,55.4153839 C63.6037204,54.331455 71.8741402,52.1248855 79.3277646,47.2650724 C81.245331,52.1397746 79.7405537,58.1162727 74.9949429,61.1149441 C71.4789166,63.3364028 67.4242152,65.1647883 63.3812241,65.9390233 C54.2676606,67.6810519 45.4263622,70.1318032 36.7050947,73.3180777 C34.0468501,74.2888492 30.8089441,74.0119113 27.887217,73.7409291 C23.6597883,73.347856 19.4821284,72.436641 15.2839755,71.7487631 C15.1902928,71.2871999 15.0966102,70.8286146 15,70.3670515" id="Fill-4" fill="#FFFFFF"></path>
                <mask id="mask-2" fill="white">
                    <use xlink:href="#path-1"></use>
                </mask>
                <g id="Clip-8"></g>
                <path d="M25.2332677,79.521325 C25.1564961,81.436902 25.1564961,81.436902 28.2568898,82.6702595 L28.2568898,82.6702595 C27.2706693,83.2928965 25.6643701,83.7248696 25.3041339,84.6513773 L25.3041339,84.6513773 C24.1082677,87.6930633 25.3956693,89.3434982 28.6998031,89.5728908 L28.6998031,89.5728908 C29.9606299,89.6592854 31.2185039,89.769513 32.4793307,89.8559076 L32.4793307,89.8559076 C48.6633858,90.9730793 64.6879921,89.5699117 80.609252,86.6771819 L80.609252,86.6771819 C81.3622047,86.5401421 82.3897638,85.819194 82.605315,85.1459119 L82.605315,85.1459119 C83.5059055,82.3008481 84.1466535,79.3693897 85,76 L85,76 C65.0364173,81.3594448 45.2293307,82.3365976 25.2332677,79.521325 M14.1988189,79.2829951 C14.1722441,76.3277037 11.863189,77.0039649 10,76.2174761 L10,76.2174761 C10.2923228,79.4945129 12.1555118,79.4021601 14.1988189,79.2829951 M22.1387795,80.9244926 C21.867126,77.4716875 18.9379921,78.8361264 16.8474409,77.7457669 L16.8474409,77.7457669 C17.4557087,81.0257829 18.6663386,81.6424616 22.1387795,80.9244926 M17.1574803,87.6722094 C15.9616142,82.9532764 15.2175197,82.2591404 11.0334646,81.7795013 L11.0334646,81.7795013 C10.9094488,86.5103509 10.9094488,86.5103509 17.1574803,87.6722094 M18.3533465,83.6474123 C17.4852362,88.3484707 17.7214567,88.5540302 24.6338583,88.8698174 L24.6338583,88.8698174 C23.5265748,84.5054002 23.0393701,83.5699551 20.1899606,83.5699551 L20.1899606,83.5699551 C19.6643701,83.566976 19.0590551,83.5997464 18.3533465,83.6474123 M48.25,98.9243623 C48.3622047,100.416904 48.4685039,101.846883 48.5895669,103.452631 L48.5895669,103.452631 C50.6476378,103.348362 52.519685,103.25303 54.3887795,103.157698 L54.3887795,103.157698 C53.3818898,103.920354 52.3188976,104.414889 51.2145669,104.560866 L51.2145669,104.560866 C49.0944882,104.85282 48.0935039,105.686975 48.6633858,108.028566 L48.6633858,108.028566 C48.9379921,109.148717 48.7106299,110.393991 48.7106299,111.579683 L48.7106299,111.579683 C47.4527559,109.679001 47.1751969,106.988852 45.757874,106.04149 L45.757874,106.04149 C44.3080709,105.079233 41.7391732,105.829973 39.1702756,105.829973 L39.1702756,105.829973 C39.6427165,108.213272 39.4478346,110.516135 40.4635827,111.412852 L40.4635827,111.412852 C41.1929134,112.059322 42.4980315,112.035489 43.8031496,112.017614 L43.8031496,112.017614 C44.3700787,112.008677 44.9429134,111.999739 45.4625984,112.044426 L45.4625984,112.044426 C45.4596457,112.208278 45.4596457,112.369151 45.4566929,112.533003 L45.4566929,112.533003 C43.7677165,113.084141 42.0787402,113.632299 40.2480315,114.228124 L40.2480315,114.228124 C40.6879921,116.331386 40.7116142,118.312504 41.5265748,119.873565 L41.5265748,119.873565 C42.5364173,121.798079 40.7322835,122.936105 40.8385827,124.535895 L40.8385827,124.535895 C40.4370079,123.710677 40.0295276,122.882481 39.7431102,122.304531 L39.7431102,122.304531 C36.8287402,122.173449 34.2244094,122.060242 30.9822835,121.917244 L30.9822835,121.917244 C31.9360236,125.024471 32.5177165,128.143614 33.8257874,130.905263 L33.8257874,130.905263 C36.1702756,135.84763 40.1683071,138.427552 45.8080709,137.941955 L45.8080709,137.941955 C48.3238189,137.724479 50.8454724,137.54871 53.3641732,137.423587 L53.3641732,137.423587 C59.1929134,137.134612 62.9074803,134.203153 64.6820866,128.578567 L64.6820866,128.578567 C68.0984252,117.770303 71.6062992,106.991831 75.0639764,96.1925052 L75.0639764,96.1925052 C75.2559055,95.6056177 75.3533465,94.988939 75.5216535,94.2590535 L75.5216535,94.2590535 C66.2854331,95.8379894 57.3356299,97.3692593 48.25,98.9243623 M41.8897638,99.2580242 C40.761811,99.3563353 39.6427165,99.5708323 38.5531496,99.7346841 L38.5531496,99.7346841 C38.5679134,103.959083 40.121063,104.688968 45.6722441,103.160677 L45.6722441,103.160677 C45.4153543,101.879654 45.1643701,100.592672 44.8956693,99.2431286 L44.8956693,99.2431286 C44.2106299,99.2431286 43.5846457,99.2192956 42.988189,99.2192956 L42.988189,99.2192956 C42.613189,99.2192956 42.25,99.228233 41.8897638,99.2580242 M24.7312992,100.601609 C25.5492126,101.712823 26.0216535,103.020658 26.6624016,103.107053 L26.6624016,103.107053 C29.3051181,103.470506 31.9980315,103.461569 34.6702756,103.589671 L34.6702756,103.589671 C34.8681102,103.351341 35.0659449,103.113011 35.2637795,102.87766 L35.2637795,102.87766 C34.5610236,101.888591 33.9114173,100.107075 33.1496063,100.050471 L33.1496063,100.050471 C32.765748,100.026638 32.378937,100.014722 31.992126,100.014722 L31.992126,100.014722 C29.7923228,100.014722 27.4980315,100.372217 24.7312992,100.601609 M28.9124016,110.784257 C31.3218504,111.704806 34.1269685,111.558829 36.8228346,111.856741 L36.8228346,111.856741 C36.515748,106.589649 36.2765748,106.369194 31.738189,106.27982 L31.738189,106.27982 C30.2027559,106.253008 28.6732283,106.101073 26.1633858,105.9402 L26.1633858,105.9402 C27.2175197,107.918339 27.7017717,110.322492 28.9124016,110.784257 M29.7185039,117.052334 C30.2027559,118.112903 30.8641732,119.775254 31.640748,119.894419 L31.640748,119.894419 C34.0590551,120.26383 36.5718504,120.02848 39.0728346,120.02848 L39.0728346,120.02848 C38.5147638,114.633285 38.511811,114.642223 33.8700787,114.189396 L33.8700787,114.189396 C32.3464567,114.04044 30.8316929,113.825943 28.8415354,113.584633 L28.8415354,113.584633 C29.1870079,115.011634 29.2903543,116.104973 29.7185039,117.052334" id="Fill-7" fill="url(#linearGradient-3)" mask="url(#mask-2)"></path>
            </g>
        </g>
    </g>
</svg>