<?xml version="1.0" encoding="UTF-8"?>
<svg width="89px" height="138px" viewBox="0 0 89 138" version="1.1" xmlns="http://www.w3.org/2000/svg" xmlns:xlink="http://www.w3.org/1999/xlink">
    <!-- Generator: Sketch 46.2 (44496) - http://www.bohemiancoding.com/sketch -->
    <title>Ice Cream Cone Copy</title>
    <desc>Created with Sketch.</desc>
    <defs>
        <path d="M23.2177165,74.2941428 C23.146063,76.0861342 23.146063,76.0861342 26.0397638,77.2399202 C25.1192913,77.8223871 23.6200787,78.2264909 23.2838583,79.0932239 C22.1677165,81.9386721 23.3692913,83.4826274 26.4531496,83.6972204 C27.6299213,83.7780412 28.803937,83.8811573 29.9807087,83.9619781 C45.0858268,85.0070741 60.042126,83.6944335 74.9019685,80.9883314 C75.6047244,80.860133 76.5637795,80.1856976 76.7649606,79.5558531 C77.6055118,76.8943418 78.2035433,74.1520097 79,71 C60.3673228,76.0136742 41.8807087,76.9277849 23.2177165,74.2941428 Z M12.9188976,74.071189 C12.8940945,71.3065615 10.7389764,71.939193 9,71.2034454 C9.27283465,74.2690605 11.011811,74.1826659 12.9188976,74.071189 Z M20.3295276,75.6067834 C20.0759843,72.3767399 17.342126,73.6531505 15.3909449,72.6331368 C15.9586614,75.7015388 17.0885827,76.2784318 20.3295276,75.6067834 Z M15.680315,81.9191636 C14.5641732,77.5046779 13.869685,76.8553249 9.96456693,76.4066303 C9.8488189,80.8322637 9.8488189,80.8322637 15.680315,81.9191636 Z M16.7964567,78.1540309 C15.9862205,82.5517951 16.2066929,82.7440928 22.6582677,83.0395066 C21.6248031,78.9566647 21.1700787,78.0815709 18.5106299,78.0815709 C18.0200787,78.078784 17.4551181,78.1094401 16.7964567,78.1540309 Z M44.7,92.4453712 C53.1799213,90.9905975 61.5330709,89.5581191 70.1535433,88.08105 C69.9964567,88.7638461 69.9055118,89.3407391 69.726378,89.8897629 C66.4992126,99.9923582 63.2251969,110.075445 60.0366142,120.186401 C58.380315,125.448111 54.9133858,128.190443 49.4732283,128.460775 C47.1224409,128.577826 44.7688976,128.742254 42.4208661,128.945699 C37.1570866,129.399968 33.4255906,126.986493 31.2374016,122.362988 C30.0165354,119.77951 29.473622,116.861602 28.5834646,113.954842 C31.6094488,114.088614 34.0401575,114.194517 36.7602362,114.317142 C37.0275591,114.857805 37.407874,115.632569 37.7826772,116.404547 C37.6834646,114.907969 39.3673228,113.843365 38.4248031,112.043013 C37.6641732,110.582665 37.642126,108.729361 37.2314961,106.761794 C38.9401575,106.204409 40.5165354,105.691615 42.0929134,105.176035 C42.0956693,105.022754 42.0956693,104.87226 42.0984252,104.718979 C41.6133858,104.677175 41.0787402,104.685536 40.5496063,104.693897 C39.3314961,104.710619 38.1133858,104.732914 37.4326772,104.128152 C36.4846457,103.289288 36.6665354,101.134997 36.2255906,98.9054583 C38.6232283,98.9054583 41.0208661,98.2031537 42.3740157,99.1033298 C43.6968504,99.9895713 43.9559055,102.506163 45.1299213,104.284219 C45.1299213,103.175024 45.342126,102.01009 45.0858268,100.962207 C44.553937,98.771686 45.488189,97.9913476 47.4669291,97.7182292 C48.4976378,97.5816699 49.4897638,97.1190408 50.4295276,96.4055885 C48.6850394,96.49477 46.9377953,96.5839516 45.0169291,96.6814939 C44.903937,95.1793425 44.8047244,93.8416195 44.7,92.4453712 Z M38.7637795,92.7575065 C39.1,92.7296373 39.4389764,92.7212765 39.7889764,92.7212765 C40.3456693,92.7212765 40.9299213,92.7435719 41.5692913,92.7435719 C41.8200787,94.006048 42.0543307,95.2099986 42.2940945,96.4083754 C37.1129921,97.8380668 35.6633858,97.1552708 35.6496063,93.2034142 C36.6665354,93.0501334 37.7110236,92.849475 38.7637795,92.7575065 Z M22.7492126,94.0144087 C25.3314961,93.7998157 27.4728346,93.4653849 29.5259843,93.4653849 C29.8870079,93.4653849 30.2480315,93.4765326 30.6062992,93.498828 C31.3173228,93.5517795 31.923622,95.2183594 32.5795276,96.1436178 C32.3948819,96.3637847 32.2102362,96.5867385 32.0255906,96.8096923 C29.5314961,96.6898546 27.0181102,96.6982154 24.5515748,96.3582108 C23.9535433,96.2773901 23.5125984,95.0539309 22.7492126,94.0144087 Z M26.6515748,103.540111 C25.5216535,103.108138 25.069685,100.859091 24.0858268,99.0085744 C26.4283465,99.1590683 27.8559055,99.3012013 29.2889764,99.3262836 C33.5248031,99.4098913 33.7480315,99.6161236 34.0346457,104.543403 C31.5185039,104.264711 28.9003937,104.40127 26.6515748,103.540111 Z M27.403937,109.403797 C27.0043307,108.517555 26.907874,107.494754 26.5854331,106.159818 C28.4429134,106.385559 29.8566929,106.586218 31.2787402,106.725564 C35.6110236,107.149176 35.6137795,107.140815 36.1346457,112.187932 C33.8003937,112.187932 31.4551181,112.408099 29.1980315,112.062521 C28.4732283,111.951044 27.8559055,110.395941 27.403937,109.403797 Z" id="path-1"></path>
        <linearGradient x1="94.0867457%" y1="72.2738199%" x2="0%" y2="40.310861%" id="linearGradient-3">
            <stop stop-color="#FFDF42" offset="0%"></stop>
            <stop stop-color="#C56E05" offset="76.4907607%"></stop>
            <stop stop-color="#C36B04" offset="100%"></stop>
        </linearGradient>
    </defs>
    <g id="Page-1" stroke="none" stroke-width="1" fill="none" fill-rule="evenodd">
        <g id="Loading" transform="translate(-143.000000, -265.000000)">
            <g id="Ice-Cream-Cone-Copy" transform="translate(143.000000, 265.000000)">
                <path d="M9.19153492,55.966743 C6.82914139,56.9495049 4.61853717,57.7576788 2.50728595,58.7742319 C0.503667136,59.7372823 -0.37395102,61.2297288 0.147652224,63.7246487 C1.37852549,69.6071406 2.55972225,75.5177919 3.30762955,81.476314 C3.74643863,84.9990509 5.52375338,86.8688329 8.55677965,87.665743 C10.3892905,88.1472682 11.1565165,89.2426676 11.8050708,90.8899906 C16.6650883,103.257585 21.5996206,115.594204 26.5065548,127.942086 C28.3583843,132.59683 31.4631655,135.956242 36.3480213,137.116408 C42.113255,138.48777 47.9088466,138.223071 53.5968058,136.598276 C58.7604019,135.122725 62.1742813,131.704178 64.0288707,126.531302 C68.1161426,115.149286 72.3469245,103.823588 76.3955592,92.4274921 C77.1131086,90.4000176 78.0818004,89.1215823 80.2206497,88.8005655 C82.9059404,88.3950706 84.0650587,86.7336679 84.5452649,83.9768659 C85.4311625,78.8828363 86.7089524,73.8592051 87.8708306,68.8186783 C89.8413317,60.2751262 89.8578905,60.2779421 82.7431119,55.9076083 C82.7955482,55.5809596 82.7900286,55.2008082 82.9169797,54.8685276 C85.0227113,49.2788932 84.3079216,44.3735314 79.7266445,40.2650796 C79.2050412,39.7976341 78.9428597,38.603677 79.0918892,37.8574537 C80.4303949,31.1329967 78.1894328,25.8305878 73.0092778,21.7333999 C71.7535663,20.7393742 71.4831054,19.8720657 71.8473997,18.2782455 C72.6560227,14.7245333 71.8032428,11.3397773 69.3856532,8.70406051 C64.1447825,3.00460452 57.184553,1.22774842 49.7965536,0 C49.3963818,5.75014285 46.1784485,9.48689092 42.027701,12.1028962 C37.6699681,14.8512504 32.8651467,16.8815408 28.2038352,19.1089468 C22.841533,21.6714493 16.9355492,24.6169191 15.4645729,30.4459082 C14.1729839,35.5624653 11.7112374,39.5526476 9.2826085,43.8694787 C7.11064156,47.730128 7.85302924,51.9230578 9.19153492,55.966743" id="Fill-2" fill="#2D2D2D"></path>
                <path d="M55.6196802,69 C63.3319356,67.5552043 71.0497115,66.1327653 78.7481654,64.612516 C79.26434,64.5119113 80.0648246,63.6008796 79.9958173,63.1956661 C79.8384807,62.2902236 79.3388679,61.3568353 78.7205625,60.6693696 C78.50802,60.4346253 77.5032738,60.8146876 76.9153316,61.0578156 C73.1751362,62.6143944 69.531551,64.4588144 65.6975056,65.7219626 C62.3823952,66.8146417 58.8602628,67.2561847 55.4319803,67.9883636 C55.4927068,68.3265072 55.5589538,68.6618563 55.6196802,69 M42.2736692,21.7241616 C34.9809782,21.9309602 28.0250428,27.1316658 27.5944373,32.3351658 C32.3725024,28.8838648 37.0843206,25.4772769 42.2736692,21.7241616 M22.3360813,34.5820048 C23.2828614,30.9742074 25.4303685,28.4702675 28.074728,26.5783397 C31.0089182,24.4740242 34.1501303,22.5541506 37.429357,21.0702309 C45.8454868,17.255635 50.9161429,13.9245006 56.0751283,8 C58.3358073,9.99812168 60.8476729,11.7950339 62.8185213,14.067024 C65.1178444,16.7162818 64.9135828,19.5974895 62.2609423,21.8583013 C60.1520794,23.6580081 57.6650564,25.1391332 55.1366291,26.2821147 C45.2934285,30.7338739 34.8015592,32.8326003 24.2296415,34.5708265 C23.7134669,34.6546637 23.1724497,34.5820048 22.3360813,34.5820048 M33.3800089,40.6965366 C26.5924513,40.2466099 19.1617457,45.87768 18.4302684,51.8413047 C23.3822319,48.1524647 28.2845102,44.4971596 33.3800089,40.6965366 M69.8710669,26.5140645 C72.236637,32.1479293 70.8564911,37.4576232 66.1391523,40.897746 C61.6840413,44.1478376 56.5471382,45.4640828 51.1700898,46.1822888 C41.4455816,47.4845611 31.8646087,49.4463533 22.7915295,53.3894997 C20.8124002,54.2502291 18.9409224,55.3680594 17.0142387,56.3713121 C15.2421313,51.1035367 17.8395659,44.5167216 23.2856217,42.169278 C27.4840256,40.3583929 32.0523086,39.3327836 36.5350225,38.3211472 C48.0426791,35.7193971 59.4840887,32.9974803 69.8710669,26.5140645 M18.9933679,66.0712846 C24.5498354,63.5002749 30.0179735,60.9655946 36.0492111,58.1738135 C27.3708536,57.7602162 21.2430058,60.6973154 18.9933679,66.0712846 M14,65.5906176 C16.9921563,63.6400037 19.8600996,61.4518508 22.9957911,59.7806945 C31.9446572,55.0103537 41.6802065,52.7914605 51.6200173,51.5590526 C59.8263649,50.541827 67.6241893,48.4710464 74.6518923,43.9102987 C76.4598835,48.4850192 75.0410935,54.0937328 70.5666604,56.9078706 C67.2515499,58.9926242 63.4285458,60.7084937 59.6165828,61.4350834 C51.0237943,63.0699102 42.687713,65.3698461 34.4648036,68.3600421 C31.9584586,69.2710739 28.9055759,69.0111783 26.1508046,68.7568719 C22.1649432,68.3879879 18.2260068,67.5328477 14.2677483,66.8873007 C14.179419,66.4541415 14.0910896,66.0237768 14,65.5906176" id="Fill-4" fill="#FFFFFF"></path>
                <mask id="mask-2" fill="white">
                    <use xlink:href="#path-1"></use>
                </mask>
                <g id="Clip-8"></g>
                <path d="M23.2177165,74.2941428 C23.146063,76.0861342 23.146063,76.0861342 26.0397638,77.2399202 L26.0397638,77.2399202 C25.1192913,77.8223871 23.6200787,78.2264909 23.2838583,79.0932239 L23.2838583,79.0932239 C22.1677165,81.9386721 23.3692913,83.4826274 26.4531496,83.6972204 L26.4531496,83.6972204 C27.6299213,83.7780412 28.803937,83.8811573 29.9807087,83.9619781 L29.9807087,83.9619781 C45.0858268,85.0070741 60.042126,83.6944335 74.9019685,80.9883314 L74.9019685,80.9883314 C75.6047244,80.860133 76.5637795,80.1856976 76.7649606,79.5558531 L76.7649606,79.5558531 C77.6055118,76.8943418 78.2035433,74.1520097 79,71 L79,71 C60.3673228,76.0136742 41.8807087,76.9277849 23.2177165,74.2941428 M12.9188976,74.071189 C12.8940945,71.3065615 10.7389764,71.939193 9,71.2034454 L9,71.2034454 C9.27283465,74.2690605 11.011811,74.1826659 12.9188976,74.071189 M20.3295276,75.6067834 C20.0759843,72.3767399 17.342126,73.6531505 15.3909449,72.6331368 L15.3909449,72.6331368 C15.9586614,75.7015388 17.0885827,76.2784318 20.3295276,75.6067834 M15.680315,81.9191636 C14.5641732,77.5046779 13.869685,76.8553249 9.96456693,76.4066303 L9.96456693,76.4066303 C9.8488189,80.8322637 9.8488189,80.8322637 15.680315,81.9191636 M16.7964567,78.1540309 C15.9862205,82.5517951 16.2066929,82.7440928 22.6582677,83.0395066 L22.6582677,83.0395066 C21.6248031,78.9566647 21.1700787,78.0815709 18.5106299,78.0815709 L18.5106299,78.0815709 C18.0200787,78.078784 17.4551181,78.1094401 16.7964567,78.1540309 M44.7,92.4453712 C44.8047244,93.8416195 44.903937,95.1793425 45.0169291,96.6814939 L45.0169291,96.6814939 C46.9377953,96.5839516 48.6850394,96.49477 50.4295276,96.4055885 L50.4295276,96.4055885 C49.4897638,97.1190408 48.4976378,97.5816699 47.4669291,97.7182292 L47.4669291,97.7182292 C45.488189,97.9913476 44.553937,98.771686 45.0858268,100.962207 L45.0858268,100.962207 C45.342126,102.01009 45.1299213,103.175024 45.1299213,104.284219 L45.1299213,104.284219 C43.9559055,102.506163 43.6968504,99.9895713 42.3740157,99.1033298 L42.3740157,99.1033298 C41.0208661,98.2031537 38.6232283,98.9054583 36.2255906,98.9054583 L36.2255906,98.9054583 C36.6665354,101.134997 36.4846457,103.289288 37.4326772,104.128152 L37.4326772,104.128152 C38.1133858,104.732914 39.3314961,104.710619 40.5496063,104.693897 L40.5496063,104.693897 C41.0787402,104.685536 41.6133858,104.677175 42.0984252,104.718979 L42.0984252,104.718979 C42.0956693,104.87226 42.0956693,105.022754 42.0929134,105.176035 L42.0929134,105.176035 C40.5165354,105.691615 38.9401575,106.204409 37.2314961,106.761794 L37.2314961,106.761794 C37.642126,108.729361 37.6641732,110.582665 38.4248031,112.043013 L38.4248031,112.043013 C39.3673228,113.843365 37.6834646,114.907969 37.7826772,116.404547 L37.7826772,116.404547 C37.407874,115.632569 37.0275591,114.857805 36.7602362,114.317142 L36.7602362,114.317142 C34.0401575,114.194517 31.6094488,114.088614 28.5834646,113.954842 L28.5834646,113.954842 C29.473622,116.861602 30.0165354,119.77951 31.2374016,122.362988 L31.2374016,122.362988 C33.4255906,126.986493 37.1570866,129.399968 42.4208661,128.945699 L42.4208661,128.945699 C44.7688976,128.742254 47.1224409,128.577826 49.4732283,128.460775 L49.4732283,128.460775 C54.9133858,128.190443 58.380315,125.448111 60.0366142,120.186401 L60.0366142,120.186401 C63.2251969,110.075445 66.4992126,99.9923582 69.726378,89.8897629 L69.726378,89.8897629 C69.9055118,89.3407391 69.9964567,88.7638461 70.1535433,88.08105 L70.1535433,88.08105 C61.5330709,89.5581191 53.1799213,90.9905975 44.7,92.4453712 M38.7637795,92.7575065 C37.7110236,92.849475 36.6665354,93.0501334 35.6496063,93.2034142 L35.6496063,93.2034142 C35.6633858,97.1552708 37.1129921,97.8380668 42.2940945,96.4083754 L42.2940945,96.4083754 C42.0543307,95.2099986 41.8200787,94.006048 41.5692913,92.7435719 L41.5692913,92.7435719 C40.9299213,92.7435719 40.3456693,92.7212765 39.7889764,92.7212765 L39.7889764,92.7212765 C39.4389764,92.7212765 39.1,92.7296373 38.7637795,92.7575065 M22.7492126,94.0144087 C23.5125984,95.0539309 23.9535433,96.2773901 24.5515748,96.3582108 L24.5515748,96.3582108 C27.0181102,96.6982154 29.5314961,96.6898546 32.0255906,96.8096923 L32.0255906,96.8096923 C32.2102362,96.5867385 32.3948819,96.3637847 32.5795276,96.1436178 L32.5795276,96.1436178 C31.923622,95.2183594 31.3173228,93.5517795 30.6062992,93.498828 L30.6062992,93.498828 C30.2480315,93.4765326 29.8870079,93.4653849 29.5259843,93.4653849 L29.5259843,93.4653849 C27.4728346,93.4653849 25.3314961,93.7998157 22.7492126,94.0144087 M26.6515748,103.540111 C28.9003937,104.40127 31.5185039,104.264711 34.0346457,104.543403 L34.0346457,104.543403 C33.7480315,99.6161236 33.5248031,99.4098913 29.2889764,99.3262836 L29.2889764,99.3262836 C27.8559055,99.3012013 26.4283465,99.1590683 24.0858268,99.0085744 L24.0858268,99.0085744 C25.069685,100.859091 25.5216535,103.108138 26.6515748,103.540111 M27.403937,109.403797 C27.8559055,110.395941 28.4732283,111.951044 29.1980315,112.062521 L29.1980315,112.062521 C31.4551181,112.408099 33.8003937,112.187932 36.1346457,112.187932 L36.1346457,112.187932 C35.6137795,107.140815 35.6110236,107.149176 31.2787402,106.725564 L31.2787402,106.725564 C29.8566929,106.586218 28.4429134,106.385559 26.5854331,106.159818 L26.5854331,106.159818 C26.907874,107.494754 27.0043307,108.517555 27.403937,109.403797" id="Fill-7" fill="url(#linearGradient-3)" mask="url(#mask-2)"></path>
            </g>
        </g>
    </g>
</svg>