<?xml version="1.0" encoding="UTF-8"?>
<svg width="35px" height="24px" viewBox="0 0 35 24" version="1.1" xmlns="http://www.w3.org/2000/svg" xmlns:xlink="http://www.w3.org/1999/xlink">
    <!-- Generator: Sketch 46.2 (44496) - http://www.bohemiancoding.com/sketch -->
    <title>new-map</title>
    <desc>Created with Sketch.</desc>
    <defs></defs>
    <g id="Page-1" stroke="none" stroke-width="1" fill="none" fill-rule="evenodd">
        <g id="Home" transform="translate(-17.000000, -28.000000)">
            <g id="new-map" transform="translate(17.000000, 28.000000)">
                <path d="M16.7774797,11.0443235 L17.5,12 L18.2225203,11.0446655 C18.2319461,11.0323519 19.1074536,9.87726249 20.0058005,8.45332497 C21.875,5.49360089 21.875,4.4654106 21.875,4.12746914 C21.875,1.85149503 19.912268,0 17.5,0 C15.087732,0 13.125,1.85183707 13.125,4.12746914 C13.125,4.4654106 13.125,5.49394294 14.993837,8.45332497 C15.8794954,9.85537155 16.7412268,10.9967791 16.7774797,11.0443235 Z M17.5,2.21440584 C18.5890371,2.21440584 19.4746955,3.05036627 19.4746955,4.07787247 C19.4746955,5.10503663 18.5890371,5.94099706 17.5,5.94099706 C16.4109629,5.94099706 15.524942,5.10503663 15.524942,4.07787247 C15.524942,3.05036627 16.4109629,2.21440584 17.5,2.21440584 Z" id="Shape" fill="#000000" fill-rule="nonzero"></path>
                <path d="M18.7596832,11.939813 L17.2266219,14.028377 L15.692869,11.9388047 C15.6572486,11.8904054 14.8110043,10.7362166 13.9447019,9.32322614 C13.5954143,8.75352611 13.3111426,8.25205565 13.075287,7.80368997 L8.75,7.71428571 L18.1136741,19.5458965 L26.25,19.7142857 L19.3897842,11.0457705 C19.0190552,11.5872376 18.764179,11.9337631 18.7596832,11.939813 Z" id="Shape" fill="#000000" fill-rule="nonzero"></path>
                <polygon id="Shape" fill="#000000" fill-rule="nonzero" points="0 11.785801 9.40983966 24 16.625 19.9274437 7.21446527 7.71428571"></polygon>
                <path d="M25.6074722,3.42857143 L22.3394956,5.27672864 C22.1143691,6.08629507 21.6256121,7.23523396 20.5867001,8.97963619 C20.4306032,9.24162618 20.2755468,9.494594 20.125,9.73472258 L27.7994205,19.7142857 L35,15.6438982 L25.6074722,3.42857143 Z" id="Shape" fill="#000000" fill-rule="nonzero"></path>
                <rect id="Rectangle" x="6" y="0" width="24" height="24"></rect>
            </g>
        </g>
    </g>
</svg>