<?xml version="1.0" encoding="UTF-8"?>
<svg width="27px" height="33px" viewBox="0 0 27 33" version="1.1" xmlns="http://www.w3.org/2000/svg" xmlns:xlink="http://www.w3.org/1999/xlink">
    <!-- Generator: Sketch 46.2 (44496) - http://www.bohemiancoding.com/sketch -->
    <title>Pizza Icon</title>
    <desc>Created with Sketch.</desc>
    <defs>
        <linearGradient x1="-4.01039109e-14%" y1="49.9986287%" x2="99.9997615%" y2="49.9986287%" id="linearGradient-1">
            <stop stop-color="#FF9715" offset="25%"></stop>
            <stop stop-color="#FFE855" offset="78%"></stop>
        </linearGradient>
        <linearGradient x1="11.6682352%" y1="39.1749911%" x2="80.9399996%" y2="56.8398774%" id="linearGradient-2">
            <stop stop-color="#156745" offset="13%"></stop>
            <stop stop-color="#146D40" offset="19%"></stop>
            <stop stop-color="#108D21" offset="59%"></stop>
            <stop stop-color="#0F9915" offset="81%"></stop>
        </linearGradient>
        <linearGradient x1="8614%" y1="10528%" x2="9814%" y2="10528%" id="linearGradient-3">
            <stop stop-color="#156745" offset="13%"></stop>
            <stop stop-color="#146D40" offset="19%"></stop>
            <stop stop-color="#108D21" offset="59%"></stop>
            <stop stop-color="#0F9915" offset="81%"></stop>
        </linearGradient>
        <linearGradient x1="-0.0648311457%" y1="50.3382761%" x2="99.9896587%" y2="50.3382761%" id="linearGradient-4">
            <stop stop-color="#FF3B15" offset="25%"></stop>
            <stop stop-color="#FF9455" offset="78%"></stop>
        </linearGradient>
        <linearGradient x1="7539%" y1="8427%" x2="9177%" y2="8427%" id="linearGradient-5">
            <stop stop-color="#FF3B15" offset="25%"></stop>
            <stop stop-color="#FF9455" offset="78%"></stop>
        </linearGradient>
        <linearGradient x1="6275%" y1="6579%" x2="6886%" y2="6579%" id="linearGradient-6">
            <stop stop-color="#FF3B15" offset="25%"></stop>
            <stop stop-color="#FF9455" offset="78%"></stop>
        </linearGradient>
    </defs>
    <g id="Page-1" stroke="none" stroke-width="1" fill="none" fill-rule="evenodd">
        <g id="Search" transform="translate(-24.000000, -155.000000)">
            <g id="Pizza-Group" transform="translate(0.000000, 135.000000)">
                <g id="Pizza-Icon" transform="translate(21.000000, 19.000000)">
                    <path d="M25.5317213,9.48858108 C25.5317213,8.44506757 25.5162295,8.44506757 24.4605738,8.56101351 L24.3986066,8.56101351 C21.2383839,8.88170422 18.1631162,9.78249435 15.3248361,11.2188514 C13.3682923,12.2518884 11.5394424,13.5137039 9.87614754,14.9781757 L23.617377,28.8359459 C23.8608197,28.1157432 24.2613934,27.4758108 25.0603279,27.2506081 C25.467541,27.1368919 25.5627049,26.9206081 25.5604918,26.5237162 C25.5457377,20.8468243 25.5361475,15.1684459 25.5317213,9.48858108 Z M17.4007377,17.1410135 C16.719935,17.1260383 16.169221,16.5780398 16.1459016,15.8923649 C16.1555333,15.2263943 16.6763408,14.6821706 17.3365574,14.6481757 C17.6656856,14.634312 17.9864641,14.7547096 18.2263691,14.9821483 C18.4662741,15.209587 18.6050464,15.5248604 18.6113115,15.8566892 C18.6286485,16.5479965 18.086874,17.122777 17.4007377,17.1410135 Z M18.9853279,19.9660811 C19.0049033,18.6138275 20.0779995,17.5169491 21.4197541,17.4777027 C22.0798874,17.4686837 22.715791,17.727988 23.1838663,18.19706 C23.6519415,18.6661319 23.9127135,19.3054126 23.9072951,19.9705405 C23.9120059,20.6218107 23.6594249,21.2482274 23.2052422,21.7116758 C22.7510594,22.1751242 22.1325724,22.4375459 21.4861475,22.4410811 C20.8268162,22.4536625 20.1901971,22.1983971 19.7197512,21.7328082 C19.2493052,21.2672194 18.984615,20.6304811 18.9853279,19.9660811 L18.9853279,19.9660811 Z M24.715082,25.4133108 C24.6863115,25.6050676 24.387541,25.7522297 24.3056557,25.8280405 C23.4071311,25.8124324 22.2386066,24.9472973 22.072623,24.2382432 C22.0261475,24.0464865 22.1567213,23.6607432 22.2939344,23.6116892 C22.5152459,23.5314189 22.9335246,23.5604054 23.0530328,23.7142568 C23.4292623,24.1936486 23.7966393,24.6061486 24.427377,24.7488514 C24.5778689,24.784527 24.7482787,25.2037162 24.715082,25.4133108 L24.715082,25.4133108 Z M22.8383607,15.2568919 C21.6613151,15.2568919 20.7071311,14.2955444 20.7071311,13.1096622 C20.7071311,11.9237799 21.6613151,10.9624324 22.8383607,10.9624324 C24.0154062,10.9624324 24.9695902,11.9237799 24.9695902,13.1096622 C24.9695902,14.2955444 24.0154062,15.2568919 22.8383607,15.2568919 L22.8383607,15.2568919 Z" id="Shape" fill="url(#linearGradient-1)" fill-rule="nonzero"></path>
                    <path d="M25.8459836,1.22297297 C27.1295902,1.16054054 28.2671311,1.3902027 29.1413115,2.46047297 C30.559918,4.20189189 29.9402459,7.1272973 27.8931148,8.0347973 C27.3818852,8.25777027 27.2845082,8.54317568 27.2845082,9.03817568 C27.2963115,16.9626351 27.2963115,24.8878378 27.2845082,32.8137838 C27.2949272,33.159742 27.1809684,33.4978503 26.9636066,33.7658784 C26.5342623,34.1783784 26.0783607,33.9665541 25.6977049,33.5785811 C23.1732787,31.0277703 20.647377,28.4799324 18.12,25.9350676 C15.0378689,22.8387162 11.9601639,19.7356757 8.88688525,16.6259459 C8.64248435,16.3075712 8.20573081,16.2133458 7.85336066,16.402973 C6.27540984,17.029527 4.51377049,16.3539189 3.54663934,14.8243243 C2.66139344,13.4106757 2.85836066,11.7785135 4.12647541,10.5566216 C9.38704918,5.49290541 15.6147541,2.45155405 22.8383607,1.53513514 C23.8386885,1.41027027 24.8434426,1.33222973 25.8459836,1.22297297 Z M23.617377,28.8359459 C23.8608197,28.1157432 24.2613934,27.4758108 25.0603279,27.2506081 C25.467541,27.1368919 25.5627049,26.9206081 25.5604918,26.5237162 C25.5457377,20.8468243 25.5361475,15.1684459 25.5317213,9.48858108 C25.5317213,8.44506757 25.5162295,8.44506757 24.4605738,8.55878378 L24.3986066,8.55878378 C21.2383839,8.87947449 18.1631162,9.78026462 15.3248361,11.2166216 C13.3681798,12.2503565 11.5393251,13.5129238 9.87614754,14.9781757 L23.617377,28.8359459 Z M5.31270492,14.4006757 C5.67344262,13.6180405 5.9545082,12.7796622 6.4192623,12.055 C7.35983607,10.5766892 8.78729508,9.6022973 10.270082,8.76837838 C12.2043443,7.68918919 14.1917213,6.66574324 16.2233607,5.76716216 C18.2151639,4.87527027 20.2954918,4.18628378 22.3359836,3.40364865 C22.4353094,3.34769518 22.5293846,3.28276618 22.6170492,3.20966216 C22.3957377,3.20966216 22.2961475,3.20966216 22.1943443,3.20966216 C22.0482787,3.22304054 21.9022131,3.24533784 21.7517213,3.26986486 C16.2049968,4.19480605 11.0130966,6.62447429 6.73352459,10.297973 C6.06164196,10.8390361 5.44215249,11.4430187 4.88336066,12.1018243 C4.61070065,12.4549838 4.50158025,12.9090522 4.58370151,13.3487567 C4.66582278,13.7884611 4.93128822,14.1715158 5.31270492,14.4006757 Z" id="Shape" fill="#222222" fill-rule="nonzero"></path>
                    <path d="M5.31270492,14.4006757 C4.93128822,14.1715158 4.66582278,13.7884611 4.58370151,13.3487567 C4.50158025,12.9090522 4.61070065,12.4549838 4.88336066,12.1018243 C5.44215249,11.4430187 6.06164196,10.8390361 6.73352459,10.297973 C11.0152083,6.62418533 16.2095224,4.19523244 21.7583607,3.27209459 C21.9022131,3.24756757 22.0482787,3.22527027 22.2009836,3.21189189 C22.3027869,3.21189189 22.4068033,3.21189189 22.6236885,3.21189189 C22.5360239,3.28499591 22.4419488,3.34992491 22.342623,3.40587838 C20.3021311,4.18851351 18.2262295,4.88641892 16.23,5.76939189 C14.1983607,6.66128378 12.2109836,7.68472973 10.2722951,8.77060811 C8.7895082,9.60006757 7.36204918,10.5789189 6.42147541,12.0572297 C5.9545082,12.7796622 5.67344262,13.6180405 5.31270492,14.4006757 Z" id="Shape" fill="#FFFFFF" fill-rule="nonzero"></path>
                    <path d="M23.9072951,19.9705405 C23.9120059,20.6218107 23.6594249,21.2482274 23.2052422,21.7116758 C22.7510594,22.1751242 22.1325724,22.4375459 21.4861475,22.4410811 C20.8268162,22.4536625 20.1901971,22.1983971 19.7197512,21.7328082 C19.2493052,21.2672194 18.984615,20.6304811 18.9853279,19.9660811 C19.0049033,18.6138275 20.0779995,17.5169491 21.4197541,17.4777027 C22.0798874,17.4686837 22.715791,17.727988 23.1838663,18.19706 C23.6519415,18.6661319 23.9127135,19.3054126 23.9072951,19.9705405 Z" id="Shape" fill="#222222" fill-rule="nonzero"></path>
                    <path d="M24.9363934,13.1118919 C24.9291712,13.9746108 24.4065011,14.747873 23.6123848,15.0706914 C22.8182684,15.3935097 21.9093173,15.2022196 21.3098633,14.5861222 C20.7104094,13.9700249 20.5386738,13.0506239 20.874829,12.2571294 C21.2109843,11.463635 21.9887356,10.9525361 22.845,10.9624324 C23.4068466,10.9629283 23.9449174,11.1909243 24.3382295,11.5951564 C24.7315416,11.9993885 24.9470842,12.5459295 24.9363934,13.1118919 L24.9363934,13.1118919 Z M24.2968033,13.1118919 C24.3074773,12.5821491 24.0368321,12.0869093 23.5868169,11.8127245 C23.1368018,11.5385397 22.5757848,11.5270651 22.1150956,11.7826231 C21.6544064,12.0381811 21.3640347,12.5219464 21.3533607,13.0516892 C21.3426866,13.581432 21.6133319,14.0766718 22.063347,14.3508566 C22.5133622,14.6250414 23.0743792,14.636516 23.5350683,14.380958 C23.9957575,14.1253999 24.2861292,13.6416347 24.2968033,13.1118919 L24.2968033,13.1118919 Z" id="Shape" fill="#222222" fill-rule="nonzero"></path>
                    <path d="M13.2555738,15.3483108 C13.3131148,14.1375676 13.9748361,13.4619595 14.7118033,12.8443243 C15.0052,12.6036303 15.3175411,12.3873768 15.6457377,12.1977027 C15.9489344,12.0170946 16.2543443,12.0170946 16.4579508,12.3693919 C16.6615574,12.7216892 16.5309836,13.0026351 16.2189344,13.2367568 C15.758695,13.5667797 15.3154942,13.9202812 14.8910656,14.2958784 C14.4919705,14.6354384 14.3638435,15.1999753 14.5768033,15.6805405 C14.6358179,15.9622323 14.5529972,16.2551152 14.3554918,16.4631757 C14.0368033,16.7084459 13.6915574,16.51 13.5388525,16.1577027 C13.4261429,15.8947587 13.3314939,15.6243248 13.2555738,15.3483108 L13.2555738,15.3483108 Z" id="Shape" stroke="#222222" stroke-width="0.525" fill="url(#linearGradient-2)" fill-rule="nonzero"></path>
                    <path d="M18.6113115,15.8566892 C18.6286485,16.5479965 18.086874,17.122777 17.4007377,17.1410135 C16.7191089,17.1259805 16.1680729,16.5766825 16.1459016,15.8901351 C16.1566864,15.2250292 16.6771791,14.6821092 17.3365574,14.6481757 C17.6656856,14.634312 17.9864641,14.7547096 18.2263691,14.9821483 C18.4662741,15.209587 18.6050464,15.5248604 18.6113115,15.8566892 L18.6113115,15.8566892 Z M18.2395082,15.907973 C17.8278689,15.627027 17.6065574,15.3438514 17.3852459,15.3527703 C17.1344317,15.4329781 16.9453411,15.6421991 16.8895082,15.9012838 C16.9569403,16.1563686 17.1515707,16.3575315 17.4029508,16.4319595 C17.5932787,16.4564865 17.8278689,16.18 18.2395082,15.907973 Z" id="Shape" fill="#222222" fill-rule="nonzero"></path>
                    <path d="M24.3056557,25.8280405 C23.4071311,25.8124324 22.2386066,24.9472973 22.072623,24.2382432 C22.0261475,24.0464865 22.1567213,23.6607432 22.2939344,23.6116892 C22.5152459,23.5314189 22.9335246,23.5604054 23.0530328,23.7142568 C23.4292623,24.1936486 23.7966393,24.6061486 24.427377,24.7488514 C24.5778689,24.784527 24.7482787,25.1947973 24.715082,25.4177703 C24.6818852,25.6407432 24.387541,25.75 24.3056557,25.8280405 Z" id="Shape" stroke="#222222" stroke-width="0.525" fill="url(#linearGradient-3)" fill-rule="nonzero"></path>
                    <path d="M24.2968033,13.1208108 C24.2861292,13.6505536 23.9957575,14.1343189 23.5350683,14.3898769 C23.0743792,14.6454349 22.5133622,14.6339603 22.063347,14.3597755 C21.6133319,14.0855907 21.3426866,13.5903509 21.3533607,13.0606081 C21.3640347,12.5308653 21.6544064,12.0471001 22.1150956,11.791542 C22.5757848,11.535984 23.1368018,11.5474586 23.5868169,11.8216434 C24.0368321,12.0958282 24.3074773,12.591068 24.2968033,13.1208108 L24.2968033,13.1208108 Z" id="Shape" fill="url(#linearGradient-4)" fill-rule="nonzero"></path>
                    <path d="M23.3097541,20.0374324 C23.2895867,21.0459865 22.4617355,21.8471094 21.4606967,21.8267905 C20.459658,21.8064717 19.6645047,20.9724054 19.6846721,19.9638514 C19.6977182,19.3114313 20.0552416,18.7155825 20.6225667,18.4007555 C21.1898919,18.0859285 21.8808286,18.099953 22.4351077,18.437546 C22.9893868,18.7751391 23.3228001,19.3850124 23.3097541,20.0374324 Z" id="Shape" fill="url(#linearGradient-5)" fill-rule="nonzero"></path>
                    <path d="M18.2395082,15.907973 C17.8278689,16.18 17.5932787,16.4564865 17.4007377,16.4319595 C17.1493576,16.3575315 16.9547272,16.1563686 16.8872951,15.9012838 C16.943528,15.6416512 17.133575,15.4323065 17.3852459,15.3527703 C17.6065574,15.3438514 17.8278689,15.627027 18.2395082,15.907973 Z" id="Shape" fill="url(#linearGradient-6)" fill-rule="nonzero"></path>
                    <rect id="Rectangle-2" x="0" y="0" width="35" height="35"></rect>
                </g>
            </g>
        </g>
    </g>
</svg>