<?xml version="1.0" encoding="UTF-8"?>
<svg width="24px" height="24px" viewBox="0 0 24 24" version="1.1" xmlns="http://www.w3.org/2000/svg" xmlns:xlink="http://www.w3.org/1999/xlink">
    <!-- Generator: Sketch 46.2 (44496) - http://www.bohemiancoding.com/sketch -->
    <title>plus icon</title>
    <desc>Created with Sketch.</desc>
    <defs></defs>
    <g id="Page-1" stroke="none" stroke-width="1" fill="none" fill-rule="evenodd">
        <g id="Home" transform="translate(-19.000000, -28.000000)" fill-rule="nonzero" fill="#000000">
            <g id="plus-icon" transform="translate(19.000000, 28.000000)">
                <path d="M11.9837576,0.21408 C5.40945455,0.21408 0.0802424242,5.49 0.0802424242,11.99856 C0.0802424242,18.50712 5.40945455,23.78328 11.9837576,23.78328 C18.5580606,23.78328 23.8870303,18.50712 23.8870303,11.99856 C23.8870303,5.49 18.5580606,0.21408 11.9837576,0.21408 Z M11.9837576,22.38192 C6.1910303,22.38192 1.49551515,17.73288 1.49551515,11.99832 C1.49551515,6.26376 6.19127273,1.61496 11.9837576,1.61496 C17.7762424,1.61496 22.4717576,6.26376 22.4717576,11.99832 C22.4717576,17.73288 17.7762424,22.38192 11.9837576,22.38192 Z" id="Shape"></path>
                <path d="M18.6666667,12.23136 C18.6666667,11.30832 17.9107879,10.56 16.9784242,10.56 L6.53672727,10.56 C5.60436364,10.56 4.84848485,11.30832 4.84848485,12.23136 L4.84848485,12.24864 C4.84848485,13.17168 5.60436364,13.92 6.53672727,13.92 L16.9784242,13.92 C17.9107879,13.92 18.6666667,13.17168 18.6666667,12.24864 L18.6666667,12.23136 Z" id="Shape"></path>
                <path d="M13.5757576,6.95136 C13.5757576,6.02832 12.8198788,5.28 11.8875152,5.28 L11.870303,5.28 C10.937697,5.28 10.1818182,6.02832 10.1818182,6.95136 L10.1818182,17.2884 C10.1818182,18.21168 10.937697,18.96 11.8700606,18.96 L11.8872727,18.96 C12.8198788,18.96 13.5757576,18.21168 13.5757576,17.2884 L13.5757576,6.95136 Z" id="Shape"></path>
            </g>
        </g>
    </g>
</svg>