<?xml version="1.0" encoding="UTF-8"?>
<svg width="24px" height="24px" viewBox="0 0 24 24" version="1.1" xmlns="http://www.w3.org/2000/svg" xmlns:xlink="http://www.w3.org/1999/xlink">
    <!-- Generator: Sketch 46.2 (44496) - http://www.bohemiancoding.com/sketch -->
    <title>Fill 93</title>
    <desc>Created with Sketch.</desc>
    <defs></defs>
    <g id="Page-1" stroke="none" stroke-width="1" fill="none" fill-rule="evenodd">
        <g id="Home" transform="translate(-332.000000, -29.000000)" fill="#2D2D2D">
            <g id="Search-Icon" transform="translate(332.000000, 29.000000)">
                <path d="M3.1626,23.6092 C2.4006,24.3722 1.6146,23.9102 0.8516,23.1472 C0.0896,22.3852 -0.3714,21.5992 0.3906,20.8372 L7.7086,13.5172 C5.5626,10.1092 5.9716,5.5532 8.9396,2.5842 C12.3836,-0.8608 17.9706,-0.8608 21.4156,2.5842 C24.8616,6.0292 24.8616,11.6152 21.4156,15.0602 C18.4476,18.0292 13.8896,18.4372 10.4816,16.2912 L3.1626,23.6092 Z M10.5566,4.2012 C8.0046,6.7532 8.0046,10.8902 10.5566,13.4432 C13.1076,15.9962 17.2456,15.9962 19.7986,13.4432 C22.3496,10.8912 22.3496,6.7532 19.7986,4.2012 C17.2456,1.6492 13.1076,1.6492 10.5566,4.2012 Z M15.2183,3.7158 C12.3313,3.7158 9.9903,6.0568 9.9903,8.9448 C9.9903,10.3638 10.9533,7.3048 12.6043,5.6768 C14.3113,3.9948 16.6853,3.7158 15.2183,3.7158 Z" id="Fill-93"></path>
            </g>
        </g>
    </g>
</svg>