<?xml version="1.0" encoding="UTF-8"?>
<svg width="162px" height="117px" viewBox="0 0 162 117" version="1.1" xmlns="http://www.w3.org/2000/svg" xmlns:xlink="http://www.w3.org/1999/xlink">
    <!-- Generator: Sketch 46.2 (44496) - http://www.bohemiancoding.com/sketch -->
    <title>Snack Attack Logo</title>
    <desc>Created with Sketch.</desc>
    <defs>
        <polygon id="path-1" points="0 117 162 117 162 0 0 0"></polygon>
    </defs>
    <g id="Page-1" stroke="none" stroke-width="1" fill="none" fill-rule="evenodd">
        <g id="Loading" transform="translate(-107.000000, -95.000000)">
            <g id="Snack-Attack-Logo" transform="translate(107.000000, 95.000000)">
                <mask id="mask-2" fill="white">
                    <use xlink:href="#path-1"></use>
                </mask>
                <g id="Clip-6"></g>
                <path d="M83.3458014,43.4561841 C82.6906904,41.1386105 82.1313264,39.1582706 81.5714024,37.1773715 C81.3636706,37.1829641 81.1564987,37.1879974 80.9493269,37.19359 C80.1883902,39.5111637 79.4274536,41.8292966 78.4195904,44.9007529 C80.5232247,44.283889 81.8519243,43.8940847 83.3458014,43.4561841 L83.3458014,43.4561841 Z M27.0308891,80.4724887 C26.7778035,80.4506776 26.5247179,80.4299849 26.2710723,80.4087331 C25.5470906,82.1754356 24.823109,83.9421381 23.9009142,86.1920413 C25.7408243,86.0253818 26.9743368,85.9135298 28.762174,85.7507851 C28.0695481,83.6390191 27.5504986,82.0557539 27.0308891,80.4724887 L27.0308891,80.4724887 Z M87.0816141,89.0772639 C86.4572989,86.7652829 85.9119329,84.7435578 85.3660071,82.7223919 C85.1269196,82.6899548 84.887832,82.6575177 84.6493044,82.6250807 C83.8822086,84.9885137 83.1151128,87.3525059 82.1419649,90.3529361 C84.1728091,89.8283502 85.5300648,89.4782534 87.0816141,89.0772639 L87.0816141,89.0772639 Z M14.7120021,57.1351258 C16.7859604,57.7637341 18.5161255,58.4784685 20.316281,58.7950097 C24.4485198,59.5214885 28.4928506,59.2138955 32.2152251,57.0277479 C36.2405184,54.6631964 38.6621896,49.5051409 38.1011458,44.8761454 C37.5513004,40.3377501 35.036122,37.6091202 30.6782338,36.554915 C29.4296034,36.2529146 28.0874657,36.3574962 26.8091592,36.148333 C26.1434097,36.0392773 25.5230139,35.6528286 24.8824609,35.3916541 C25.2844863,34.7149495 25.5280532,33.7368036 26.1215726,33.4269735 C27.24534,32.840869 28.548843,32.4991611 29.8159509,32.309572 C31.5500354,32.0506345 33.931952,32.6708539 34.9123788,31.7368897 C36.0406256,30.6631103 35.9431988,28.3047107 36.37658,26.5038933 C36.4196941,26.3232523 36.44993,26.1403743 36.4852052,25.9580555 C37.120159,22.6438804 36.52384,21.8933534 33.2068504,22.3323726 C26.501761,23.219359 21.3095861,26.4999785 18.0928229,32.5288019 C14.3928454,39.4647451 16.5989458,43.9438589 24.2553461,45.6585502 C25.5022967,45.937621 26.5566335,47.0723596 27.6994383,47.8122607 C26.376898,48.6080878 25.0873931,49.4682297 23.7133397,50.1622715 C23.2771589,50.3826199 22.6108494,50.2019789 22.0587644,50.1326307 C17.4629085,49.5543558 17.4601089,49.5482039 15.7786572,54.0508066 C15.4583807,54.9087116 15.1784187,55.7822758 14.7120021,57.1351258 L14.7120021,57.1351258 Z M137.732336,62.5661002 C134.08835,63.1824048 130.846391,63.7310389 127.481808,64.3003657 C128.090445,76.4206496 128.680605,88.1880404 129.293162,100.391095 C131.860413,99.3687675 134.01668,98.2083029 136.318528,97.6630243 C139.888603,96.8179824 137.574997,93.4422887 139.10135,91.6520972 C141.403197,93.2370402 143.5897,94.7436868 146.088641,96.46453 C147.718579,93.1000215 149.152545,90.1404173 150.605547,87.1411056 C148.020378,85.4325661 145.739808,83.8269305 143.359571,82.3857174 C141.681479,81.3695418 141.430073,80.4506776 142.807486,78.9177458 C145.233637,76.2159604 147.56852,73.4246935 149.790298,70.5545709 C150.259514,69.948333 150.505321,68.503205 150.124013,68.0188858 C148.296421,65.7001936 146.218543,63.5794795 143.919495,61.0471499 C142.902673,62.6544633 142.027512,64.0308023 141.15851,65.4116154 C140.324784,66.7381803 139.497776,68.0686599 138.667409,69.3974618 C138.465276,69.3130136 138.263703,69.2291245 138.061571,69.1446763 C137.961345,67.141966 137.861118,65.1386965 137.732336,62.5661002 L137.732336,62.5661002 Z M63.5222535,55.0216821 C63.8408503,49.2982147 64.1706455,44.212863 64.3957349,39.122478 C64.682416,32.6182835 64.9215035,26.1101742 65.072683,19.6015057 C65.0900406,18.8442676 64.4310101,17.4153581 64.0664996,17.4092063 C61.1095412,17.3583136 58.0529163,17.215143 55.2560961,17.9606367 C54.5662698,18.1446333 54.6351404,21.4750269 54.5029984,23.3692407 C54.3227028,25.9681222 54.299746,28.5776296 54.1720833,31.1809852 C54.1396077,31.8414713 53.9677111,32.4952463 53.8081327,33.4661217 C49.2425127,29.3846419 44.9999689,25.5917402 40.757425,21.7988385 C40.4253901,21.952635 40.0927953,22.1064315 39.7602005,22.260228 L39.7602005,58.5847279 C41.648824,58.4689611 43.6779884,58.2575608 45.7082727,58.2402237 C48.5935609,58.2156163 49.8606688,57.0920628 49.4659224,54.0200473 C49.166923,51.6952033 49.4065705,49.3015702 49.4065705,46.4224995 C54.2135177,49.3513444 58.5478891,51.9916111 63.5222535,55.0216821 L63.5222535,55.0216821 Z M116.86341,36.550441 C118.760432,33.9084965 120.590264,31.4684448 122.263316,28.9254894 C122.555597,28.4819961 122.450331,27.3522908 122.081341,26.9680792 C119.591919,24.3775866 117.290632,21.4319639 114.338153,19.5019574 C110.129204,16.7509572 105.22819,17.711766 102.511999,21.9509572 C100.048893,25.7953108 98.15691,30.1480318 96.8186918,34.5220047 C95.8046695,37.8356206 96.058875,41.5362444 95.6764469,45.8850505 C90.5531427,35.3116799 85.7573939,25.4127769 80.580337,14.7281136 C74.880871,28.7532373 69.5044811,41.9830931 64.0357038,55.4416864 C67.6684905,56.9997849 71.1338598,58.4857389 74.7795248,60.0483115 C75.0662058,59.0444397 75.2554601,58.4449129 75.4083194,57.8358787 C76.8126087,52.2499892 76.8114888,52.3070338 82.7293252,52.26453 C84.2808744,52.2527855 85.1157211,52.7192084 85.6560477,54.1738438 C86.2618854,55.8029684 87.1135298,57.3414928 87.9567753,59.1283287 C91.7704174,57.2749408 95.3472116,55.5373199 99.1031815,53.711895 C102.081977,58.268746 105.918016,60.967735 111.513896,60.3128415 C116.685914,59.7077221 120.846709,57.1272962 124.804811,53.238761 C125.048378,55.696709 125.233713,57.5696709 125.445924,59.7144332 C128.411841,59.2351473 131.200263,59.1579695 133.638172,58.1949236 C134.53181,57.8414713 134.593402,55.3891159 135.3465,52.8405679 C137.648347,55.793461 139.620959,58.3229942 141.866254,61.202065 C143.395407,58.7737578 144.205617,57.1921704 145.292989,55.8303721 C146.798064,53.9467843 146.724714,52.6174231 144.785698,50.9743171 C142.2666,48.8401807 140.073378,46.3235104 137.485969,43.7162401 C140.979335,40.8008174 144.098111,38.1980211 147.337831,35.494558 C145.051662,32.0489568 142.825404,28.6939557 140.356139,24.97208 C138.431681,27.4059798 136.809021,29.4579049 135.186921,31.5103893 C134.957912,31.438804 134.728903,31.3672188 134.499895,31.2950742 C134.499895,29.7571091 134.626437,28.2040439 134.447262,26.6867713 C134.355994,25.9116369 133.827426,24.6566573 133.306697,24.5509572 C130.369336,23.9531082 127.374862,23.6382448 124.490134,23.2400516 L124.490134,52.5027748 C121.883128,49.053818 119.685986,46.1479028 117.439571,43.1759948 C115.981529,44.2777371 114.868961,45.2827275 113.606892,46.0377285 C110.768077,47.7362013 108.630848,46.9571521 107.305508,43.9628737 C105.837387,40.6470209 106.62856,37.5710906 108.265217,34.6176382 C109.524486,32.3459239 111.535173,31.952764 113.647206,33.5488922 C114.735139,34.3710045 115.657333,35.4112282 116.86341,36.550441 L116.86341,36.550441 Z M59.3194643,75.8065821 C59.0215847,85.4571736 58.7360235,94.7213164 58.4353443,104.458593 C62.5558248,103.538051 66.6141536,105.140331 69.7194919,101.854119 C72.6170984,103.144332 75.5197442,104.436782 78.4425473,105.73818 C78.8042582,104.909916 78.9643964,104.668875 79.0159094,104.406582 C80.226465,98.2681437 80.2275849,98.3324586 86.4018664,97.993547 C88.061481,97.9023876 88.9702376,98.3218327 89.5631971,99.9011831 C90.1634356,101.498989 91.0509151,102.989417 91.9008796,104.705786 C95.6142953,102.581157 98.9911968,100.649473 102.495201,98.645085 C105.07589,101.854678 108.02501,104.27236 112.309548,103.69744 C118.598614,102.852958 123.34061,99.4291676 126.94876,94.3667455 C127.31887,93.8477522 127.400059,92.6078727 127.042267,92.1705313 C125.004704,89.6846203 122.793564,87.3402022 120.333818,84.6054205 C119.492813,85.6338998 118.956405,86.3972897 118.308013,87.0510647 C117.591311,87.7753065 116.839893,88.5057002 115.984329,89.0448268 C113.461312,90.6336847 111.576608,90.025769 110.362692,87.3301355 C108.586614,83.3851151 109.857641,79.8315767 112.035745,76.567735 C113.219984,74.7937621 115.09237,75.0169069 116.769902,76.0912454 C117.759848,76.7260056 118.661885,77.498903 119.772215,78.3366746 C121.614924,75.2266294 123.34229,72.3643364 124.995745,69.4606582 C125.223634,69.0596687 125.268988,68.3756937 125.091492,67.9512153 C121.864091,60.2373414 110.30502,58.5517316 105.640854,65.3981932 C103.177748,69.0138094 101.477259,73.2809636 100.125043,77.4770918 C99.0511086,80.808604 99.0292716,84.4784685 98.4435911,88.6980856 C93.6495222,79.0368681 89.1264564,69.9214885 84.2775149,60.1489783 C79.2818733,72.3609809 74.5331582,83.9684233 69.7844431,95.5758658 C69.5386365,95.5137879 69.2928299,95.4522693 69.0470232,95.3896322 C69.0470232,88.911723 68.9999896,82.4326952 69.1259725,75.9575823 C69.137171,75.3692407 70.2407811,74.3239837 70.8578173,74.3088836 C73.4866603,74.2428909 73.8153357,72.4979996 73.982753,70.5540116 C74.1339324,68.7923424 74.1232939,67.0127769 74.3483833,65.262293 C74.7616072,62.0465476 74.5482762,61.8239621 71.4166214,62.1975479 C66.817966,62.7456227 62.2086719,63.206453 57.6038573,63.7047537 C57.7080031,63.389331 57.811589,63.0739084 57.9157349,62.759045 C57.0467329,62.1533663 56.1407759,60.980598 55.3143282,61.0342869 C50.0157677,61.3799097 44.7312054,61.9643364 39.4522423,62.5644225 C38.8783202,62.6292966 37.9482865,63.2489568 37.9023728,63.6862981 C37.5664184,66.8897397 37.4141191,70.1127554 37.1951888,73.4571306 C39.0709341,73.5902345 40.4948207,73.6914605 42.0614879,73.8027533 C41.8397581,78.5855453 41.6320263,83.0562702 41.4248544,87.5275543 C41.2076039,87.537621 40.9897935,87.5476877 40.772543,87.5577544 C35.7601037,78.944031 30.7471045,70.3297483 25.4776601,61.275328 C20.279326,71.9667025 15.4214257,81.9578834 10.4632991,92.154872 C13.9269887,94.1928157 17.3022103,96.1787481 20.7765385,98.2228436 C22.5794936,92.7348247 22.5794936,92.7348247 27.9620427,93.139729 C28.3338322,93.167692 28.7660935,93.0910733 29.0650929,93.2549365 C29.7560391,93.6335556 30.5763277,93.9959561 30.9962706,94.6044311 C32.1329163,96.2514519 32.7465929,98.9537965 34.2096742,99.4901269 C35.7416262,100.051624 38.0193969,98.5757367 39.976891,98.0092063 C40.1252709,97.9667025 40.3190046,98.0785545 40.7008727,98.1674769 C40.359879,100.348032 41.7501702,100.684147 43.5357677,100.650032 C44.8387108,100.625425 46.1528523,100.664014 47.4462767,100.811099 C50.1775858,101.123166 51.2347222,100.128802 51.2252035,97.2396644 C51.2011268,89.9771134 51.5247628,82.714003 51.6473862,75.4497741 C51.6793018,73.5605937 52.1093234,72.3716068 54.3165437,72.9532373 C54.5265152,73.9515165 54.7079305,74.8161325 54.9156623,75.8065821 L59.3194643,75.8065821 Z M157.233367,51.8534739 C155.694696,54.2733921 154.258491,56.5322435 152.681745,59.0131211 C155.750689,62.2825554 158.796115,65.5251452 162,68.9371908 C159.016165,72.2826844 156.122478,75.5291891 152.969546,79.0642719 C155.785404,80.724715 158.380652,82.2548505 161.106361,83.8616046 C157.203131,91.8595827 153.38501,99.6830716 149.494098,107.655324 C148.651413,107.216864 147.886557,107.00826 147.384305,106.526178 C144.332719,103.596773 141.23634,103.716455 137.537482,105.546913 C133.379487,107.604431 128.890016,108.990277 124.564044,110.716154 C123.083605,111.306733 121.728029,111.8755 121.810898,109.227404 C120.61434,109.627275 119.740859,109.89516 118.884175,110.208905 C114.641071,111.763648 110.311739,112.382749 106.083754,110.446031 C102.307066,108.715681 99.0695861,109.133448 95.7486771,111.575177 C93.5963294,113.157883 91.0738719,114.239492 88.5066206,115.66225 C87.6857721,114.165111 86.9461125,112.815057 85.9136127,110.932028 C85.3380109,113.148376 84.8906316,114.868101 84.3368668,117 C80.9162914,115.474898 77.6468954,114.200344 74.5572349,112.582964 C72.0190996,111.254721 69.4776048,111.093655 66.7238987,111.348118 C62.0849287,111.77763 57.4263614,111.994063 52.7778726,112.32179 C51.3220703,112.424134 50.109275,112.319553 50.2974095,110.357668 C50.4390702,108.876188 49.6366992,108.355517 48.260966,108.461777 C42.5402229,108.903592 36.7562084,107.262723 31.0248268,109.122822 C30.2610905,109.370574 28.8232057,107.546268 27.5706558,106.583781 C27.238061,107.638546 26.8136386,108.984126 26.2682727,110.713917 C17.3985172,105.350613 8.73929318,100.11482 0,94.8303721 C5.06507215,85.0298989 10.0052813,75.4715853 15.0720332,65.6683158 C11.4605236,64.1023876 8.25327918,62.7109486 4.76831245,61.1992687 C6.41560874,56.8677995 8.14129439,52.7717789 9.49015121,48.5555173 C9.97784498,47.0326522 9.96104727,45.0987309 9.48567182,43.5652398 C8.04274777,38.9116369 8.6625836,34.5018714 10.6301564,30.2526135 C14.4062836,22.0986018 20.8353305,17.0182835 29.5858222,15.2046031 C32.2208243,14.6582061 33.2208485,13.5889008 33.2309272,11.1275973 C33.2326069,10.593504 33.4112227,10.0594106 33.5741605,9.16739084 C37.8939739,11.303205 42.0329318,13.3495375 46.2262024,15.4227146 C46.4563311,15.0642289 46.6881396,14.8617767 46.7178156,14.6330394 C47.3068556,10.1080663 47.3001365,10.0403958 51.7644103,9.89219187 C58.0086823,9.68470639 64.255194,9.5571951 70.5022656,9.47162831 C71.7273792,9.45485051 72.9569723,9.78313616 74.3366249,9.97328458 C76.0981457,6.93650247 77.9576532,3.73082383 80.1223192,0 C84.5233215,7.45158099 88.6667588,14.4658206 92.9820928,21.7725532 C93.8314975,20.5662293 94.5873948,19.4756722 95.3606498,18.3974188 C101.747702,9.49847279 111.831933,7.81845558 120.866866,14.0497311 C121.948079,14.795784 123.345089,15.2454291 124.657551,15.4646591 C127.410697,15.9254894 130.243353,15.9534524 132.971302,16.5104754 C135.751885,17.0775651 137.806805,16.5552162 139.229572,13.9759088 C139.667433,13.1817595 140.398134,12.5486771 141.241939,11.5492794 C146.967721,20.3084104 152.582639,28.8975263 158.349856,37.7198537 C155.37498,39.8282641 152.43034,41.9148634 149.11727,44.2626371 C151.917449,46.881652 154.524455,49.3200258 157.233367,51.8534739 L157.233367,51.8534739 Z" id="Fill-5" fill="#2D2D2D" mask="url(#mask-2)"></path>
                <path d="M127.900199,64.0971822 C128.507661,76.0613737 129.097784,87.6766809 129.709721,99.7220212 C132.274377,98.7129065 134.427905,97.5668879 136.727984,97.0292086 C140.29445,96.1945361 137.983183,92.8624704 139.507993,91.0954157 C141.806954,92.6604267 143.991805,94.1470491 146.48766,95.8456518 C148.11651,92.5246268 149.549026,89.6032729 151,86.6432769 C148.418004,84.9568188 146.13974,83.3719347 143.761909,81.949348 C142.084954,80.9463057 141.834362,80.039317 143.210382,78.525645 C145.63408,75.85933 147.966602,73.1041378 150.186134,70.2705571 C150.654876,69.6721543 150.900434,68.2457034 150.518952,67.7676436 C148.693768,65.4794705 146.617431,63.3861648 144.320708,60.8865635 C143.305473,62.4725517 142.431197,63.8316547 141.563074,65.194622 C140.73019,66.5034901 139.903459,67.8173264 139.07449,69.1289547 C138.872562,69.0455979 138.670634,68.962241 138.469265,68.8794362 C138.36914,66.9020572 138.269015,64.9246783 138.140363,62.3853307 C134.499503,62.9942221 131.26138,63.5352135 127.900199,64.0971822 M29.2803741,85.2709251 C28.5884485,83.1858999 28.0693644,81.623097 27.5508396,80.0602942 C27.2974505,80.039317 27.0446208,80.0183397 26.791791,79.9979145 C26.0685413,81.7412319 25.3452916,83.4851013 24.4240292,85.7064784 C26.2615198,85.5414208 27.4943445,85.4310144 29.2803741,85.2709251 M82.6056367,89.8130451 C84.634987,89.295239 85.9908705,88.9496669 87.5408511,88.5538599 C86.9171671,86.2717593 86.3717932,84.2767153 85.8269786,82.2811193 C85.5881328,82.2491014 85.349287,82.2170836 85.1104412,82.1856177 C84.3446803,84.5185053 83.57836,86.851393 82.6056367,89.8130451 M59.8067698,75.4552425 L55.4074203,75.4552425 C55.1993392,74.4770416 55.0186666,73.6236 54.8089074,72.6382227 C52.6039187,72.0646614 52.1743319,73.2377296 52.1424485,75.103046 C52.0199491,82.2728388 51.6966403,89.4426316 51.7206926,96.6107683 C51.7302017,99.4625661 50.6741341,100.444079 47.9455865,100.136597 C46.6534698,99.9908608 45.3400976,99.9533226 44.0390312,99.977612 C42.255239,100.010734 40.8663534,99.6795147 41.2070024,97.5265895 C40.8255203,97.4393685 40.6319825,97.32841 40.4837527,97.3709165 C38.5282376,97.929573 36.2527698,99.3869377 34.7223667,98.8321454 C33.2607646,98.3027467 32.6477084,95.6358796 31.512212,94.0101451 C31.0926936,93.4095342 30.272675,93.0518174 29.5829867,92.6775397 C29.2842896,92.5157943 28.8524654,92.5919747 28.4810518,92.5643731 C23.1033853,92.1641498 23.1033853,92.1647018 21.3028124,97.5817928 C17.8319969,95.5635634 14.4596283,93.6032975 11,91.5922446 C15.9531138,81.5270434 20.8061026,71.6649901 25.9991809,61.1117926 C31.2632977,70.0491922 36.2706693,78.5521425 41.2786002,87.0545408 C41.495631,87.0446042 41.7126619,87.0341156 41.9302521,87.024179 C42.1372145,82.6112345 42.3447362,78.1982899 42.566242,73.4773115 C41.0011587,73.3669051 39.5787116,73.2669873 37.7048628,73.1356036 C37.9235717,69.8350037 38.0757171,66.6536428 38.4113318,63.491603 C38.4571991,63.0593619 39.3862925,62.4482623 39.9596343,62.3836746 C45.2332602,61.7918962 50.5124797,61.2150226 55.8056831,60.8738668 C56.6307359,60.8203197 57.5363363,61.977931 58.4044597,62.5757817 C58.3004191,62.8871278 58.1969379,63.1984739 58.0928974,63.50982 C62.6930564,63.0179594 67.2976903,62.563085 71.8916963,62.0215415 C75.0196255,61.6533361 75.2333002,61.8724929 74.8199347,65.0472294 C74.5956322,66.7750899 74.60626,68.5311039 74.4552334,70.270005 C74.2879854,72.1888686 73.959083,73.9112087 71.3334572,73.9763485 C70.7170448,73.9918054 69.6139911,75.0230013 69.602804,75.6037391 C69.4775078,81.9957187 69.5244939,88.3910105 69.5244939,94.7851982 C69.770052,94.8464737 70.0156101,94.9077493 70.2611682,94.9690249 C75.0050822,83.5115988 79.7489962,72.0541727 84.739587,60 C89.583626,69.6462088 94.1021188,78.6437798 98.8913407,88.1801342 C99.4764291,84.0150521 99.498244,80.3920655 100.571092,77.1036103 C101.921942,72.9622655 103.620711,68.7502607 106.081327,65.1808212 C110.740778,58.4228443 122.287602,60.0872211 125.511741,67.7008477 C125.689616,68.1203921 125.644308,68.7955273 125.41665,69.1907823 C123.764307,72.0574849 122.038688,74.8827852 120.197841,77.9520836 C119.089194,77.1251395 118.188068,76.3627832 117.199123,75.7362268 C115.523287,74.6757732 113.652795,74.4555123 112.469753,76.2065581 C110.293291,79.4276654 109.023549,82.9352773 110.798391,86.8298637 C112.011079,89.4901064 113.893318,90.0901652 116.413785,88.5223941 C117.269043,87.9902352 118.019142,87.2687292 118.735679,86.5543997 C119.382856,85.9090742 119.918721,85.1549983 120.759436,84.1403634 C123.216695,86.8398003 125.425599,89.1533668 127.460543,91.6077015 C127.818532,92.0388385 127.737425,93.2626937 127.36769,93.7749795 C123.763188,98.772526 119.025986,102.152066 112.743279,102.985083 C108.463072,103.553124 105.516375,101.166689 102.938854,97.998025 C99.4383927,99.97706 96.0649055,101.883227 92.3552442,103.980397 C91.506139,102.28621 90.6195567,100.815597 90.0199251,99.237889 C89.4275652,97.6789504 88.5197274,97.2649263 86.8617907,97.3554596 C80.6937516,97.689439 80.6926329,97.6259553 79.4833012,103.68506 C79.4318402,103.944515 79.2713045,104.18244 78.9105187,105 C75.9906707,103.715421 73.0909596,102.439675 70.1962827,101.166137 C67.0935246,104.409326 63.0398582,102.828306 58.9235438,103.736951 C59.2239189,94.1249678 59.5091914,84.9805562 59.8067698,75.4552425" id="Fill-1" fill="#FFFFFF" mask="url(#mask-2)"></path>
                <path d="M20.5778572,58.6174924 C24.6906144,59.3365624 28.715878,59.0321063 32.4201458,56.8682535 C36.427019,54.5278162 38.837273,49.4229172 38.2788743,44.8405757 C37.7316212,40.3484639 35.2283007,37.6482148 30.8909581,36.604207 C29.6482144,36.3052865 28.3124042,36.4088015 27.0401245,36.2017714 C26.3775136,36.0938278 25.7600427,35.7113202 25.1225096,35.4528093 C25.5226397,34.7830058 25.7650583,33.8148353 26.3557795,33.508165 C27.4742488,32.9280376 28.7716064,32.5898146 30.0327404,32.4027124 C31.7580922,32.1464157 34.1287791,32.7597564 35.1051409,31.8358705 C36.2280685,30.7724882 36.1311011,28.43814 36.562439,26.6556878 C36.6053499,26.476889 36.6354433,26.295876 36.6699949,26.1154166 C37.3025124,22.8350401 36.7090048,22.0927207 33.4070961,22.5267091 C26.7336182,23.4052034 21.5659221,26.6518129 18.3648818,32.6191531 C14.682348,39.4849156 16.8780476,43.9177968 24.4983514,45.6150014 C25.7394232,45.8912261 26.7887893,47.014946 27.9262063,47.7467479 C26.6099011,48.5344589 25.3264756,49.3863825 23.9589003,50.0727927 C23.5247759,50.290894 22.8616078,50.1120952 22.3121256,50.0434542 C17.7379371,49.4710767 17.7345934,49.4649875 16.0616263,53.9216717 C15.7428598,54.7708276 15.4642177,55.635483 15,56.97509 C17.0641806,57.596734 18.7861886,58.3041794 20.5778572,58.6174924 M64.4494961,39.1461389 C64.7348256,32.7077221 64.972786,26.2665375 65.1232527,19.8236922 C65.1405285,19.0741766 64.484605,17.660393 64.121813,17.6543039 C61.1787953,17.6039303 58.1365811,17.4616662 55.3529466,18.1995572 C54.6658153,18.3816773 54.7349185,21.6786604 54.6033994,23.5535566 C54.4233966,26.1259341 54.400548,28.7088292 54.2740445,31.2856352 C54.241722,31.9393856 54.0706358,32.5864932 53.9112525,33.5469139 C49.3677147,29.5076114 45.1451725,25.752837 40.9226304,21.9986161 C40.5921609,22.1508442 40.2611341,22.3030722 39.9301073,22.4553003 L39.9301073,58.4099087 C41.8098268,58.2947689 43.8294246,58.0855245 45.850137,58.0683642 C48.721265,58.0440077 49.9829564,56.9324661 49.5900711,53.8912261 C49.2924813,51.5900913 49.5309989,49.2208691 49.5309989,46.3711597 C54.3152835,49.2701356 58.6292203,51.8834763 63.5801328,54.882646 C63.8972275,49.2175477 64.2254679,44.1840576 64.4494961,39.1461389 M78.4072354,44.8649322 C80.500952,44.2543593 81.8233874,43.8685303 83.3102215,43.4350955 C82.658199,41.1411569 82.1009149,39.181013 81.544188,37.2208691 C81.3374356,37.2258511 81.1312404,37.2313867 80.9250453,37.2363687 C80.1676961,39.5308608 79.4103469,41.8247993 78.4072354,44.8649322 M116.669809,36.5997786 C115.468862,35.4721838 114.551015,34.4425685 113.468769,33.6288403 C111.366693,32.0489898 109.365486,32.43814 108.112153,34.686687 C106.482655,37.6100194 105.695769,40.6545807 107.156968,43.9366178 C108.47606,46.9003598 110.602656,47.6720177 113.428644,45.9903128 C114.684763,45.2430113 115.792087,44.2482701 117.243255,43.1577636 C119.479079,46.099917 121.665862,48.9756435 124.260577,52.3894271 L124.260577,23.4251315 C127.131705,23.8198173 130.112061,24.1309161 133.035016,24.7226681 C133.553848,24.8272903 134.079924,26.0694714 134.170761,26.8367008 C134.349092,28.3384999 134.223146,29.8757265 134.223146,31.3985608 C134.451075,31.469416 134.679004,31.5402712 134.906934,31.6111265 C136.521386,29.5795738 138.136395,27.5485746 140.051781,25.1394963 C142.509404,28.8234154 144.724609,32.1442015 147,35.5546637 C143.776111,38.2305563 140.672038,40.8073623 137.195142,43.6930529 C139.769795,46.2731802 141.953235,48.7647384 144.460456,50.8771104 C146.390331,52.5034597 146.463335,53.8187102 144.965356,55.6836424 C143.88311,57.0309992 143.076162,58.5964572 141.554776,61 C139.320067,58.1502906 137.356755,55.6465541 135.06576,52.7243288 C134.316212,55.2468862 134.254354,57.6736784 133.365486,58.0235262 C130.93907,58.9767506 128.163795,59.053695 125.211861,59.528093 C125.00065,57.4046499 124.816189,55.5507888 124.57377,53.1179076 C120.634329,56.9667866 116.49315,59.5208968 111.345516,60.119845 C105.775461,60.7680598 101.958064,58.0971492 98.9927553,53.5862164 C95.2544931,55.3930252 91.6951191,57.1134791 87.8994566,58.9474121 C87.0601867,57.1787988 86.2125575,55.6559646 85.609576,54.0434542 C85.0717968,52.6036535 84.2408861,52.1425408 82.6966517,52.153612 C76.806158,52.1956823 76.8078298,52.1392195 75.4101611,57.6681428 C75.2580226,58.270966 75.0696605,58.8643786 74.784331,59.8585663 C71.1558538,58.3113756 67.7068221,56.8405757 64.0911624,55.298367 C69.5341569,41.9770274 74.8851995,28.8820924 80.5572377,15 C85.7104444,25.5762524 90.4835833,35.3736507 95.5827335,45.8397454 C95.9633586,41.5347357 95.7103516,37.8718516 96.7195932,34.5925823 C98.0515023,30.2626626 99.9345656,25.9543316 102.386059,22.1491835 C105.089444,17.9532245 109.967352,17.0022142 114.1559,19.7251591 C117.09446,21.635483 119.385455,24.5510656 121.86314,27.1151398 C122.230391,27.4954332 122.33516,28.6136175 122.044258,29.0525879 C120.379093,31.5696097 118.557331,33.9847772 116.669809,36.5997786" id="Fill-3" fill="#FFFFFF" mask="url(#mask-2)"></path>
            </g>
        </g>
    </g>
</svg>