<?xml version="1.0" encoding="UTF-8"?>
<svg width="34px" height="21px" viewBox="0 0 34 21" version="1.1" xmlns="http://www.w3.org/2000/svg" xmlns:xlink="http://www.w3.org/1999/xlink">
    <!-- Generator: Sketch 46.2 (44496) - http://www.bohemiancoding.com/sketch -->
    <title>Taco Icon</title>
    <desc>Created with Sketch.</desc>
    <defs>
        <linearGradient x1="58.219401%" y1="37.7604167%" x2="0%" y2="73.2869466%" id="linearGradient-1">
            <stop stop-color="#FF7033" offset="0%"></stop>
            <stop stop-color="#FF3D17" offset="100%"></stop>
        </linearGradient>
        <linearGradient x1="6545%" y1="651%" x2="7167%" y2="651%" id="linearGradient-2">
            <stop stop-color="#FF3B15" offset="25%"></stop>
            <stop stop-color="#FF9455" offset="78%"></stop>
        </linearGradient>
        <linearGradient x1="0.000331483941%" y1="50.0066375%" x2="99.9980841%" y2="50.0066375%" id="linearGradient-3">
            <stop stop-color="#156745" offset="13%"></stop>
            <stop stop-color="#146D40" offset="19%"></stop>
            <stop stop-color="#108D21" offset="59%"></stop>
            <stop stop-color="#0F9915" offset="81%"></stop>
        </linearGradient>
        <path d="M31.915,22.429661 C31.8212582,22.1674177 31.7485212,21.8978954 31.6975,21.6237288 C31.6809771,21.4987462 31.630795,21.3808431 31.5525,21.2830508 C31.4925,21.209322 31.4575,21.1483051 31.5125,21.0542373 C31.545,20.9983051 31.5125,20.9347458 31.49,20.8788136 C31.3976707,20.6674844 31.1654619,20.558662 30.9475,20.6245763 C30.9067274,20.6380947 30.862325,20.6344021 30.8242537,20.6143269 C30.7861824,20.5942516 30.7576294,20.5594743 30.745,20.5177966 C30.6227548,20.2396655 30.5827949,19.9313526 30.63,19.6305085 C30.6616545,19.4108403 30.675867,19.1889371 30.6725,18.9669492 C30.6753724,18.7322153 30.5393385,18.5186913 30.3275,18.4254237 C30.246692,18.3854279 30.1631398,18.3514405 30.0775,18.3237288 C29.8275,18.2550847 29.6,18.1991525 29.3625,18.1330508 C29.125,18.0669492 29.1325,18.0644068 29.2125,17.8432203 C29.2125,17.8127119 29.235,17.7822034 29.245,17.7516949 C29.3559757,17.5201782 29.2849514,17.2409679 29.0775,17.0932203 C29.0275,17.0550847 29.0275,17.0169492 29.05,16.9584746 C29.1314976,16.7671204 29.1934883,16.567773 29.235,16.3635593 C29.3125,15.8932203 29.235,15.6364407 28.825,15.4254237 C28.6525,15.3389831 28.48,15.2525424 28.305,15.1711864 C27.9266667,15.0016949 27.5483333,14.8389831 27.17,14.6830508 C27.1276857,14.6746641 27.0918547,14.64623 27.0735698,14.6065276 C27.0552849,14.5668252 27.0567453,14.5206295 27.0775,14.4822034 C27.1129634,14.3718335 27.1397149,14.2587632 27.1575,14.1440678 C27.2613406,13.758788 27.0792614,13.3531368 26.725,13.1805085 C26.4512312,13.0100467 26.1383732,12.9153873 25.8175,12.9059322 C25.6425,12.9059322 25.47,12.9338983 25.2975,12.9364407 C24.73,13.0889831 24.2325,13.4067797 23.6975,13.6381356 C23.4404309,13.7824416 23.1254521,13.7677031 22.8825,13.6 C22.7112231,13.4663877 22.6068778,13.2625373 22.5975,13.0432203 C22.593748,12.9788701 22.593748,12.9143503 22.5975,12.85 C22.5975,12.7661017 22.5975,12.6822034 22.5975,12.5957627 C22.6098093,12.2792314 22.3856263,12.0041175 22.0775,11.9576271 C21.9124828,11.9256004 21.7453583,11.9060553 21.5775,11.8991525 C21.1240037,11.9457871 20.6780344,12.0499875 20.25,12.209322 C20.1413523,12.2443523 20.0301812,12.2707035 19.9175,12.2881356 C19.6740716,12.395815 19.3992132,12.4040094 19.15,12.3110169 C18.9325,12.2169492 18.8625,11.9983051 18.775,11.8025424 C18.6774241,11.4972086 18.5385962,11.2071462 18.3625,10.940678 C18.335,10.8669492 18.2625,10.8567797 18.2025,10.8313559 C17.74,10.790678 17.4525,11.05 17.2025,11.4059322 C17.0953001,11.5838031 16.9758339,11.7537207 16.845,11.9144068 C16.6439209,12.1067339 16.3680379,12.1961558 16.0946064,12.1576315 C15.821175,12.1191073 15.5795891,11.9567784 15.4375,11.7161017 C15.3659065,11.540674 15.2717524,11.3756764 15.1575,11.2254237 C14.9394099,10.9915796 14.6176274,10.8895588 14.3075,10.9559322 C13.76,11.0118644 13.4375,11.3754237 13.1825,11.8254237 C12.9978797,12.2085451 12.7942852,12.5819053 12.5725,12.9440678 C12.4087783,13.1965158 12.1171024,13.3309833 11.8225,13.2898305 C11.7409909,13.2750878 11.6693246,13.2261929 11.625,13.1550847 C11.5710659,13.0716865 11.5289837,12.9809601 11.5,12.8855932 C11.4558636,12.7279899 11.328784,12.608709 11.1707743,12.5765714 C11.0127645,12.5444339 10.8503477,12.6048341 10.75,12.7330508 C10.6154473,12.8712492 10.5174132,13.0417813 10.465,13.2288136 C10.4018436,13.5503086 10.2236904,13.8365616 9.965,14.0322034 C9.66820189,14.2761986 9.23459788,14.2368277 8.985,13.9432203 C8.90977039,13.8707915 8.8257583,13.8084232 8.735,13.7576271 C8.62299559,13.7069316 8.49538665,13.7054731 8.38229014,13.7535959 C8.26919362,13.8017186 8.18062959,13.8951591 8.1375,14.0118644 C8.09484217,14.1490603 8.07539923,14.2926258 8.08,14.4364407 C8.09083727,14.6403568 8.0740126,14.8448194 8.03,15.0440678 C7.95510533,15.2769889 7.74097081,15.4341487 7.5,15.4330508 C7.25091009,15.439666 7.0022679,15.4079518 6.7625,15.3389831 C6.53633489,15.285673 6.30650214,15.2499763 6.075,15.2322034 C5.69651525,15.2175282 5.3702803,15.5006338 5.325,15.8830508 C5.26478616,16.2979582 5.30249069,16.7214806 5.435,17.1186441 C5.49482678,17.2982006 5.52769605,17.4859026 5.5325,17.6754237 C5.52,17.8508475 5.45,17.929661 5.2825,17.929661 C5,17.9423729 4.75,17.8508475 4.5,17.8559322 C4.43682248,17.8623215 4.37317752,17.8623215 4.31,17.8559322 C3.91946982,17.9493679 3.65220445,18.3157007 3.6775,18.7228814 C3.69552205,18.8418957 3.71972253,18.9598571 3.75,19.0762712 C3.92181549,19.3188785 4.05121094,19.5897961 4.1325,19.8771186 C4.19941349,20.0857374 4.14307863,20.3148962 3.9875,20.4669492 C3.85050014,20.5980586 3.67470289,20.6794021 3.4875,20.6983051 C3.24318711,20.7349057 2.99688528,20.7561325 2.75,20.7618644 C2.56859224,20.7984297 2.40768727,20.9038816 2.3,21.0567797 C2.15628267,21.2977091 2.1640998,21.6017822 2.32,21.8347458 C2.43690118,22.0148959 2.56817722,22.184961 2.7125,22.3432203 C2.89177354,22.5471646 3.03931338,22.7777983 3.15,23.0271186 C3.68,21.120339 4.8,18.2372881 7.02,16.4474576 C7.72488626,15.8912444 8.48284522,15.4083197 9.2825,15.0059322 C9.69207364,14.7326939 10.1169609,14.4839669 10.555,14.2610169 C11.324609,13.8704701 12.1269588,13.5505568 12.9525,13.3050847 C13.0868921,13.2526771 13.2287093,13.2226311 13.3725,13.2161017 C13.3725,13.1957627 13.395,13.1728814 13.4275,13.1754237 C13.989165,13.0283887 14.5594931,12.9179944 15.135,12.8449153 C15.8347078,12.7453334 16.5411269,12.7028249 17.2475,12.7177966 C17.8060635,12.7284364 18.3636029,12.7708757 18.9175,12.8449153 C19.5275,12.9262712 20.1225,13.0584746 20.7175,13.1957627 C20.7393772,13.2024568 20.7603666,13.2118487 20.78,13.2237288 L20.805,13.2440678 L20.805,13.2440678 L20.8325,13.2440678 C20.9425555,13.2378423 21.0520118,13.264345 21.1475,13.320339 C21.3613229,13.417497 21.5829748,13.4957521 21.81,13.5542373 C21.985,13.6025424 22.1475,13.6711864 22.31,13.7220339 C22.3825,13.7449153 22.4275,13.8033898 22.4975,13.8288136 C23.2507202,14.111997 23.9702404,14.4804132 24.6425,14.9271186 C25.2357353,15.3010827 25.7961457,15.7263879 26.3175,16.1983051 C26.5079086,16.3550753 26.6874983,16.5249671 26.855,16.7067797 L26.8725,16.7271186 L26.8725,16.7550847 L26.9,16.7830508 L26.9,16.7830508 C26.94,16.8161017 26.995,16.8338983 27.0125,16.8923729 C27.0338412,16.8912702 27.0532795,16.9047955 27.06,16.9254237 L27.06,16.9254237 L27.085,16.9483051 L27.085,16.9483051 C27.1047736,16.9558162 27.117779,16.9751463 27.1175,16.9966102 C27.15,16.9966102 27.165,17.0220339 27.17,17.0550847 L27.17,17.0550847 L27.1975,17.0830508 L27.1975,17.0830508 L27.2225,17.1110169 L27.2225,17.1110169 L27.25,17.1389831 C27.305,17.1923729 27.3575,17.2508475 27.41,17.3067797 C29.38,19.1271186 30.56,21.6847458 31.16,23.3322034 C31.3680708,23.2095653 31.5632542,23.065595 31.7425,22.9025424 C31.9675,22.7271186 32,22.6762712 31.915,22.429661 Z" id="path-4"></path>
        <linearGradient x1="-0.00239186164%" y1="49.9885423%" x2="99.9894347%" y2="49.9885423%" id="linearGradient-5">
            <stop stop-color="#FF9715" offset="25%"></stop>
            <stop stop-color="#FFE855" offset="78%"></stop>
        </linearGradient>
    </defs>
    <g id="Page-1" stroke="none" stroke-width="1" fill="none" fill-rule="evenodd">
        <g id="Search" transform="translate(-21.000000, -225.000000)">
            <g id="Tacos-Group" transform="translate(0.000000, 203.000000)">
                <g id="Taco-Icon" transform="translate(21.000000, 15.000000)">
                    <ellipse id="Oval-2" stroke="#222222" fill="url(#linearGradient-1)" cx="14.5" cy="11" rx="4.5" ry="3"></ellipse>
                    <ellipse id="Oval-2-Copy-2" stroke="#222222" fill="url(#linearGradient-1)" transform="translate(22.739258, 11.791260) rotate(19.000000) translate(-22.739258, -11.791260) " cx="22.7392578" cy="11.7912598" rx="4.5" ry="3"></ellipse>
                    <ellipse id="Oval-2-Copy" stroke="#222222" fill="url(#linearGradient-1)" cx="8.5" cy="14" rx="4.5" ry="3"></ellipse>
                    <path d="M19.105,12.4288136 C18.8900573,12.2364853 18.6503536,12.0748296 18.3925,11.9483051 L18.3625,11.9483051 C18.5373642,12.2100323 18.6761541,12.4948829 18.775,12.7949153 C18.8625,12.9932203 18.9325,13.2118644 19.15,13.3033898 C19.3982534,13.3988042 19.6731021,13.3933415 19.9175,13.2881356 C19.6877544,12.9642613 19.4142254,12.6749697 19.105,12.4288136 L19.105,12.4288136 Z" id="Shape" stroke="#222222" stroke-width="0.5" fill="url(#linearGradient-2)" fill-rule="nonzero"></path>
                    <g id="Shape" fill-rule="nonzero">
                        <use fill="url(#linearGradient-3)" fill-rule="evenodd" xlink:href="#path-4"></use>
                        <path stroke="#222222" stroke-width="1.5" d="M3.59861778,21.440028 C3.39999739,21.4697834 3.20020473,21.4905235 2.99983659,21.5021966 C3.08146872,21.6203849 3.17195008,21.7340194 3.27580552,21.8480568 C3.50529405,22.1091265 3.69400718,22.4041221 3.8354835,22.7227958 L3.15,23.0271186 L2.42739471,22.8262665 C2.55203483,22.377849 2.68962018,21.938291 2.84089293,21.5095498 C2.8164038,21.5103893 2.79190845,21.5110935 2.76740796,21.5116624 L2.75,20.7618644 L2.87909341,21.4023221 C3.18136166,20.5619971 3.53690017,19.7642137 3.95136884,19.0238983 L3.75,19.0762712 L4.03720299,18.8728728 C4.10391151,18.7572505 4.1720984,18.6430859 4.24178591,18.5304377 L4.31,17.8559322 L4.40861151,18.2680955 C4.88605832,17.5376929 5.43015651,16.8758918 6.04738451,16.299777 C6.05051419,16.497129 6.0837778,16.6934418 6.14654265,16.8815638 C6.22983657,17.1315516 6.27557568,17.3927476 6.28060319,17.7287306 C6.24110846,18.2829956 5.85998663,18.679661 5.3162142,18.6789029 C5.12716125,18.6874098 4.99048702,18.6731916 4.74537108,18.633799 C4.6006876,18.6105469 4.55371,18.6049949 4.57546406,18.602126 C4.52659159,18.6070686 4.47756086,18.6098802 4.42850833,18.610561 C4.42221386,18.6168855 4.42001319,18.6152785 4.41904624,18.6105908 C4.41905003,18.6106158 4.41905382,18.6106408 4.41905761,18.6106658 C4.35748096,18.6111768 4.29588377,18.6083302 4.23453594,18.602126 L4.24178591,18.5304377 Z M3.37130413,19.9579575 C3.38482037,19.9560587 3.39843411,19.9541064 3.41215113,19.9520997 C3.43261394,19.9500334 3.45251186,19.9408264 3.46328224,19.9305764 C3.41522512,19.9775445 3.39867269,20.0448764 3.41082663,20.0812939 C3.3990496,20.0396671 3.38586382,19.9985313 3.37130413,19.9579575 Z M12.0627158,12.335225 C12.2225179,12.0612584 12.3746038,11.7750916 12.5299834,11.4556643 C12.9416462,10.7292005 13.45871,10.2887404 14.1505397,10.2225405 C14.7191139,10.1008543 15.3085316,10.2877285 15.7545062,10.7714594 C15.8925616,10.9530154 16.008778,11.150392 16.1008101,11.3594082 C16.126837,11.3901211 16.1617962,11.4096907 16.1992418,11.4149665 C16.244713,11.421373 16.2911418,11.406324 16.2634046,11.4408598 C16.3719661,11.3075279 16.4711301,11.1664864 16.5887633,10.9748553 C17.0241568,10.3549731 17.5409181,10.020273 18.2682106,10.0842401 L18.3861238,10.0946108 L18.4951118,10.1407921 C18.4803808,10.1349042 18.4803808,10.1349042 18.4914168,10.1389686 L18.4962321,10.1406954 C18.5871442,10.1733337 18.6453041,10.1985792 18.7299174,10.2551647 C18.8483222,10.3343485 18.9473444,10.4407484 19.0167721,10.570977 C19.2172462,10.8826011 19.3749036,11.2166167 19.4597154,11.4964953 C19.4767568,11.5350567 19.4767568,11.5350567 19.4913332,11.5688866 C19.4977194,11.5837307 19.4977194,11.5837307 19.5036636,11.5975215 C19.5369491,11.6746264 19.5233047,11.6553301 19.4121989,11.6083422 C19.4778838,11.6328522 19.5497463,11.6307097 19.6140988,11.6022437 L19.8028369,11.5469525 C19.876349,11.53558 19.9489045,11.5183819 19.9883546,11.506441 C20.4759242,11.3249447 20.9840314,11.2062258 21.5007796,11.1530869 L21.6083159,11.1497859 C21.8138153,11.1582366 22.0184052,11.1821632 22.1893943,11.216021 C22.8777074,11.3198744 23.3739993,11.9289158 23.3475,12.5957627 C23.3475,12.7241525 23.3475,12.7241525 23.3462284,12.8936552 C23.3447211,12.9195063 23.3443186,12.9454087 23.3452518,12.9758602 C23.357844,12.9703851 23.3752697,12.9620522 23.3998117,12.949745 C23.5360383,12.890835 23.6487969,12.8363929 23.9043033,12.7085997 L23.9127689,12.7043656 C24.4625175,12.4294112 24.7297284,12.3124341 25.1028128,12.2121501 L25.2864474,12.1865221 C25.3315254,12.1858577 25.3742647,12.1829805 25.4809424,12.173951 C25.6373661,12.1607108 25.7129867,12.1559322 25.8395906,12.1562576 C26.2931998,12.1696241 26.7351999,12.3033571 27.0535378,12.5062957 C27.7062643,12.8243634 28.0514159,13.5494462 27.9171538,14.183107 C28.149784,14.282337 28.3837651,14.3846815 28.6211721,14.491087 C28.7758811,14.5630099 28.8956905,14.6219505 29.1682165,14.7585636 C29.8737996,15.1217099 30.1059697,15.690784 29.9699689,16.5129606 C29.9446181,16.6376718 29.9131161,16.7609369 29.8767846,16.8793825 C29.9991391,17.085767 30.0615683,17.3187625 30.0592577,17.5423118 C30.1734209,17.5723828 30.2044308,17.5810513 30.308401,17.610157 C30.4289524,17.6491656 30.5465251,17.6969918 30.629713,17.7390075 C31.1180029,17.9539901 31.4289785,18.4421095 31.4224137,18.9555747 C31.4263812,19.217146 31.409634,19.4786214 31.3709344,19.7467677 C31.3635453,19.7938595 31.3601909,19.8412985 31.3616046,19.8907353 C31.7157968,19.9794017 32.0252318,20.2308475 32.1858109,20.5989078 C32.1873195,20.6026067 32.1873195,20.6026067 32.1925396,20.615208 C32.2160627,20.6708658 32.2365258,20.7277381 32.2527687,20.7983162 C32.2695691,20.871316 32.2781662,20.946091 32.2767278,21.0216475 C32.361142,21.1741787 32.4156573,21.3360342 32.434841,21.486513 C32.478574,21.7215156 32.5409115,21.9525034 32.6212352,22.1772093 L32.6240634,22.1852656 C32.8198031,22.7531645 32.6730741,23.128024 32.2471771,23.4573405 C32.0299193,23.6549711 31.7932393,23.8295499 31.5408269,23.9783233 L30.7638991,24.4362491 L30.455282,23.5888599 C29.6420916,21.356032 28.4601808,19.2983442 26.8631573,17.8200661 C26.8339255,17.7887661 26.8339255,17.7887661 26.8080719,17.7609003 C26.8034063,17.7558809 26.7989838,17.7511335 26.7947573,17.7466102 L26.3576878,17.7466102 L26.362999,17.3380028 L26.3495043,17.2929113 L26.1225,17.0620595 L26.1225,17.029453 C26.028903,16.9387834 25.9279442,16.8486386 25.8141885,16.7543425 C25.3249353,16.3114824 24.7991044,15.9124202 24.2274195,15.5517851 C23.6024146,15.1364797 22.9335963,14.7940244 22.2414668,14.5337582 C22.1439918,14.4983557 22.0852276,14.4655492 22.0086999,14.4128377 C21.9693199,14.399563 21.9221651,14.3827656 21.8284293,14.3492065 C21.7240043,14.3118205 21.6670847,14.2928361 21.6228972,14.2805241 C21.3698912,14.2153458 21.1225556,14.1294825 20.825985,13.9940678 L20.5384502,13.9940678 L20.4187209,13.8966609 C19.7136197,13.7354494 19.2816889,13.6501282 18.8181311,13.5883033 C18.2924479,13.5180351 17.7633161,13.4777582 17.2316072,13.4676282 C16.5658911,13.4535183 15.9001284,13.4935802 15.229478,13.5889407 C14.8578552,13.6361302 14.4885123,13.6998023 14.1225,13.7797545 L14.1225,13.9328179 L13.4065216,13.9653297 C13.3444843,13.9681467 13.2832155,13.9811274 13.1662604,14.0239773 C12.3840431,14.2565672 11.6237413,14.559715 10.8951996,14.9294212 C10.4833634,15.1390346 10.0838608,15.3729015 9.61962503,15.6758924 C8.86511857,16.0555613 8.14986081,16.5112794 7.49073592,17.0313306 C5.76511975,18.4225741 4.58765296,20.6554456 3.87260529,23.2279708 L3.31276427,25.2421095 L2.4645165,23.3314414 C2.38461957,23.1514746 2.27825303,22.9852028 2.15833103,22.8485883 C1.98638739,22.6600408 1.83003872,22.4574948 1.69669327,22.2518653 C1.37968033,21.7781491 1.36384424,21.1621522 1.68681949,20.624912 C1.90467085,20.3155992 2.23175218,20.1012408 2.6018072,20.0266509 L2.73259204,20.0120665 C2.93623004,20.0073386 3.13941804,19.9905337 3.37130413,19.9579575 C3.31405417,19.7984182 3.23556174,19.6475695 3.13794436,19.5097316 L3.05867275,19.3977983 L3.02414801,19.2650538 C2.98731331,19.1234278 2.95787478,18.9799343 2.92894308,18.7693844 C2.88117892,18.000528 3.38842998,17.3052539 4.13548518,17.1265183 L4.2590533,17.0969542 L4.38546406,17.1097384 C4.39846019,17.1110527 4.41153981,17.1110527 4.48474892,17.1060873 C4.54534106,17.1048549 4.59739748,17.1057739 4.6514042,17.1094315 C4.54167681,16.6749793 4.51768096,16.2241613 4.58020281,15.7948627 C4.67119478,15.0263855 5.33212109,14.4528359 6.1324102,14.4844039 C6.40254198,14.5051425 6.67070891,14.5467931 6.96982903,14.6182094 C7.08438865,14.6511622 7.20182006,14.6718221 7.32790395,14.6798709 C7.33349885,14.6096259 7.33436809,14.5369823 7.33038349,14.4604216 C7.32311221,14.2331298 7.3538458,14.006195 7.43400287,13.7518802 C7.54846463,13.4421555 7.7848792,13.1927237 8.0886414,13.0634724 C8.39483358,12.9331871 8.7411099,12.9371448 9.10129583,13.1031599 C9.23867868,13.1800511 9.36637002,13.2732388 9.52370799,13.4253851 C9.62899498,13.3414335 9.70274593,13.2186333 9.74282123,13.0264331 C9.82899753,12.7189197 9.99047115,12.4380334 10.1593806,12.2708076 C10.4343183,11.9195131 10.8829477,11.7526748 11.3202561,11.8416189 C11.6292957,11.9044744 11.894046,12.0871717 12.0627158,12.335225 Z"></path>
                    </g>
                    <path d="M3.955,25.8576271 L30.34,25.8576271 C30.6677628,25.8602917 30.9760021,25.6994402 31.1650038,25.4271072 C31.3540056,25.1547742 31.3997728,24.8055373 31.2875,24.4923729 C30.7025,22.8322034 29.465,20.0152542 27.3125,18.090678 C23.86,15.0067797 20.4025,13.7966102 17.8975,13.7305085 C15.165,13.6669492 10.0525,14.9 7.02,17.3559322 C4.52,19.3720339 3.415,22.7737288 2.9775,24.6067797 C2.90701838,24.9100477 2.97715463,25.2294373 3.16780556,25.4734018 C3.35845648,25.7173662 3.64857342,25.8589707 3.955,25.8576271 Z" id="Shape" stroke="#222222" stroke-width="1.78800011" fill="url(#linearGradient-5)" fill-rule="nonzero"></path>
                    <ellipse id="Oval" fill="#D8A030" fill-rule="nonzero" cx="10.765" cy="20.75" rx="1.675" ry="1.70338983"></ellipse>
                    <ellipse id="Oval" fill="#D8A030" fill-rule="nonzero" cx="23.8625" cy="23.4525424" rx="1" ry="1"></ellipse>
                    <ellipse id="Oval" fill="#D8A030" fill-rule="nonzero" cx="20.9075" cy="19.5474576" rx="1.575" ry="1.60169492"></ellipse>
                    <ellipse id="Oval" fill="#D8A030" fill-rule="nonzero" cx="15.6875" cy="17.0432203" rx="1" ry="1"></ellipse>
                    <rect id="Rectangle-2" x="0" y="0" width="35" height="35"></rect>
                </g>
            </g>
        </g>
    </g>
</svg>